<?xml version="1.0" standalone="no"?>
<!DOCTYPE svg PUBLIC "-//W3C//DTD SVG 1.1//EN" "http://www.w3.org/Graphics/SVG/1.1/DTD/svg11.dtd" >
<svg xmlns="http://www.w3.org/2000/svg" xmlns:xlink="http://www.w3.org/1999/xlink" version="1.1">
<metadata></metadata>
<defs>
<font id="pf_stamps_prosolid" horiz-adv-x="1269" >
<font-face units-per-em="2048" ascent="1536" descent="-512" />
<missing-glyph horiz-adv-x="681" />
<glyph horiz-adv-x="0" />
<glyph horiz-adv-x="682" />
<glyph unicode=" "  horiz-adv-x="681" />
<glyph unicode="&#x09;" horiz-adv-x="681" />
<glyph unicode="&#xa0;" horiz-adv-x="681" />
<glyph unicode="!" horiz-adv-x="645" d="M166 154q0 72 49 121t123 49t123 -48.5t49 -121.5q0 -74 -49 -123t-123 -49t-123 48t-49 124zM186 1386q0 14 17 15h268q16 0 16 -15l-24 -819q0 -16 -17 -16h-223q-14 0 -14 16z" />
<glyph unicode="&#x22;" horiz-adv-x="917" d="M162 1391q0 10 10 10h227q10 0 11 -10l-29 -578q0 -10 -10 -10h-172q-10 0 -11 10zM506 1391q0 10 10 10h229q10 0 11 -10l-29 -578q0 -10 -10 -10h-174q-10 0 -11 10z" />
<glyph unicode="#" horiz-adv-x="1417" d="M102 264l21 180q0 8 10 9h186q12 111 24.5 211t23.5 210h-183q-10 0 -10 13l21 180q0 8 10 8h186l35 314q0 8 10 8h185q10 0 10 -13l-35 -309h344l35 314q0 8 10 8h184q10 0 11 -13l-35 -309h164q10 0 10 -10l-14 -180q0 -10 -11 -11h-172q-12 -111 -24.5 -211 t-22.5 -210h162q10 0 10 -13l-20 -180q0 -8 -8 -8h-166q-6 -59 -14.5 -120.5t-14.5 -121.5q0 -10 -10 -10h-187q-10 0 -10 10l29 242h-342q-4 -59 -12.5 -120.5t-14.5 -121.5q0 -10 -10 -10h-188q-10 0 -11 12l29 240h-184q-10 0 -11 12zM526 453h342l50 421h-347z" />
<glyph unicode="$" horiz-adv-x="1331" d="M104 434q0 16 17 17h250q16 0 16 -15q2 -25 7 -53.5t20.5 -55t45 -48t81.5 -31.5v401q-76 20 -146.5 52t-126 78t-88.5 111.5t-33 153.5q0 61 20.5 119t60.5 104t95.5 77.5t127.5 44.5q18 0 18 -17v-207q0 -10 -8 -14q-35 -18 -41 -47t-6 -51q0 -39 24.5 -76t102.5 -70 v600q0 16 16 17h115q14 0 14 -17v-102q76 -6 139.5 -25.5t114.5 -48t90 -63.5t64 -70q8 -12 -2 -22l-166 -152q-12 -12 -25 4q-25 37 -77 79t-138 52v-1278q0 -16 -14 -16h-115q-16 0 -16 16v113q-96 8 -175 44t-135.5 92t-90.5 134t-36 170zM760 610v226q0 16 18 16 q68 -16 136.5 -46t124 -80t90 -125t34.5 -181q0 -84 -31.5 -159t-85 -133t-124 -94t-146.5 -40q-14 0 -14 16v223q0 14 8 17q25 8 48.5 22.5t44 37t32.5 52t12 70.5q0 51 -31.5 92t-107.5 70q-8 2 -8 16z" />
<glyph unicode="%" horiz-adv-x="1851" d="M76 834v282q0 51 21.5 101.5t62.5 91.5t98 66.5t129 25.5q10 0 10 -10v-170q0 -8 -10 -9q-37 0 -71.5 -28.5t-34.5 -65.5v-287q0 -41 35.5 -65.5t76.5 -24.5q10 0 10 -10v-172q0 -10 -10 -10q-70 0 -128 25.5t-100 65.5t-65.5 91t-23.5 103zM301 -84l991 1550q4 4 8 4 h175q16 0 8 -16l-991 -1550q-4 -4 -9 -4h-174q-16 0 -8 16zM432 1221v170q0 10 10 10q70 0 128.5 -25.5t99.5 -66.5t64.5 -91.5t23.5 -101.5v-282q0 -51 -21.5 -102.5t-61.5 -91.5t-97.5 -65.5t-128.5 -25.5q-10 0 -11 10v172q0 10 11 10q39 0 71.5 25t32.5 65v287 q0 41 -34 67.5t-77 26.5q-10 0 -10 9zM1051 274v283q0 51 21.5 101.5t61.5 91.5t98 66.5t130 25.5q8 0 8 -11v-169q0 -10 -8 -11q-39 0 -74 -27.5t-35 -64.5v-287q0 -41 36 -65.5t77 -24.5q10 0 10 -10v-172q0 -10 -10 -10q-70 0 -127 25.5t-99 65.5t-65.5 91t-23.5 102z M1405 662v169q0 10 10 11q70 0 128.5 -25.5t99 -66.5t64.5 -91.5t24 -101.5v-283q0 -51 -21.5 -102t-61.5 -91t-97.5 -65.5t-129.5 -25.5q-10 0 -10 10v172q0 10 10 10q39 0 72 23.5t33 66.5v287q0 41 -34 66.5t-77 25.5q-10 0 -10 11z" />
<glyph unicode="&#x26;" horiz-adv-x="1462" d="M131 412q0 117 61.5 207t153.5 155q12 10 23 -4l127 -174q8 -12 -2 -23q-45 -29 -73 -73.5t-28 -89.5q0 -47 21.5 -81t54.5 -56.5t72 -34t75 -11.5q59 0 127 21q8 2 17 -6l139 -187l-6 -24q-66 -23 -137.5 -35t-141.5 -12q-96 0 -184 28.5t-154.5 84t-105.5 134 t-39 181.5zM354 1040q0 154 84 242t209 113q8 2 14.5 -3.5t6.5 -11.5v-209q0 -8 -4 -12q-39 -39 -39 -84q0 -37 17 -66.5t40 -60.5l14 -18l-2 2l328 -438q10 20 19.5 48.5t15.5 56.5t9 51.5t1 37.5q-4 18 16 19h224q16 0 16 -15q2 -20 -3 -67t-22.5 -105.5t-46 -121 t-73.5 -111.5l194 -260q6 -10 2 -18.5t-14 -8.5h-281q-6 0 -12 6l-614 819q6 -6 -2.5 3.5t-12.5 15.5q-27 37 -55.5 87t-28.5 109zM793 1167v213q0 6 5 11.5t13 3.5q61 -8 112.5 -37t89.5 -73t59.5 -98.5t21.5 -113.5q0 -100 -42 -166.5t-112 -113.5q-12 -8 -20 4l-123 166 q-10 14 2 24q23 16 37 35.5t14 48.5q0 25 -15.5 46.5t-35.5 37.5q-6 6 -6 12z" />
<glyph unicode="'" horiz-adv-x="645" d="M203 1391q0 10 10 10h227q10 0 11 -10l-29 -578q0 -10 -10 -10h-174q-10 0 -11 10z" />
<glyph unicode="(" horiz-adv-x="745" d="M160 410v569q0 78 32.5 155.5t90 142t134.5 107.5t165 52q18 0 18 -17v-231q0 -12 -12 -17q-29 -8 -58.5 -25.5t-54 -42t-40 -56t-15.5 -64.5v-577q0 -37 15.5 -69t40 -56.5t54 -41t58.5 -22.5q12 -4 12 -16v-232l-18 -14q-90 8 -167 50t-134.5 105.5t-89 141.5 t-31.5 158z" />
<glyph unicode=")" horiz-adv-x="745" d="M139 -31v232q0 12 13 16q27 6 56.5 22.5t54 41t40.5 56.5t16 69v577q0 33 -16 64.5t-40.5 56t-54.5 42t-56 25.5q-12 4 -13 17v231q0 16 19 17q88 -8 165.5 -51.5t135 -108t90.5 -142t33 -155.5v-569q0 -80 -33 -158t-89.5 -141.5t-134 -105.5t-167.5 -50q-18 0 -19 14z " />
<glyph unicode="*" horiz-adv-x="913" d="M127 1104l49 147q4 10 14 6l183 -63v195q0 10 10 10h158q10 0 10 -10v-195l184 63q10 4 15 -6l49 -147q4 -10 -6 -14l-185 -64q29 -39 58.5 -79t58.5 -77q6 -6 -2 -14l-127 -92q-6 -6 -14 2l-121 164l-119 -164q-8 -8 -14 -2l-125 92q-8 8 -2 14l116 156l-184 64 q-10 4 -6 14z" />
<glyph unicode="+" horiz-adv-x="1388" d="M166 444v201q0 10 10 10h399v402q0 10 11 10h202q8 0 9 -10v-402h401q10 0 10 -10v-201q0 -10 -10 -10h-401v-399q0 -10 -9 -10h-202q-10 0 -11 10v399h-399q-10 0 -10 10z" />
<glyph unicode="," horiz-adv-x="645" d="M84 -215l129 479q4 8 8 8h283q14 0 8 -14l-236 -479q-6 -6 -8 -6h-174q-14 0 -10 12z" />
<glyph unicode="-" horiz-adv-x="1126" d="M207 502v221q0 10 8 10h696q10 0 11 -10v-221q0 -8 -11 -8h-696q-8 0 -8 8z" />
<glyph unicode="." horiz-adv-x="663" d="M139 150q0 70 49 117.5t119 47.5q72 0 120 -47t48 -118q0 -72 -48 -120t-120 -48q-70 0 -119 48t-49 120z" />
<glyph unicode="/" horiz-adv-x="1251" d="M66 -86l868 1550q6 6 8 6h215q14 0 8 -14l-870 -1550q-6 -6 -8 -6h-215q-14 0 -6 14z" />
<glyph unicode="0" d="M129 451v489q0 82 30.5 163t87 145.5t135.5 105.5t175 41h10q16 0 17 -15v-227q0 -16 -17 -16h-10q-31 0 -60.5 -15.5t-53 -42t-39 -62.5t-15.5 -75v-496q0 -43 15.5 -78.5t39 -61t53 -40t60.5 -14.5h10q16 0 17 -16v-228q0 -16 -17 -16h-10q-96 0 -175 40t-135.5 105.5 t-87 147.5t-30.5 166zM684 8v228q0 16 16 16h9q31 0 60.5 13.5t53 39t37.5 61t14 80.5v496q0 43 -14 79t-37.5 61.5t-53.5 40t-60 14.5h-9q-16 0 -16 16v227q0 14 16 15h9q96 0 175 -41t135 -105.5t87 -145.5t31 -163v-489q0 -84 -31 -166t-87 -147.5t-135 -105.5t-175 -40 h-9q-16 0 -16 16z" />
<glyph unicode="1" horiz-adv-x="983" d="M254 999v256q0 6 6 13l191 137h227q16 0 16 -16v-1373q0 -16 -16 -16h-240q-14 0 -14 16v1074l-143 -105q-10 -6 -18.5 -1t-8.5 15z" />
<glyph unicode="2" d="M168 1087q23 61 60.5 118t90 100t116 68.5t138.5 25.5h9q16 0 16 -15v-231q0 -16 -16 -16h-9q-49 0 -97 -42t-64 -106q-4 -18 -23 -10l-211 88zM172 16v238q0 16 16 16h947q16 0 16 -16l-2 -238q0 -16 -16 -16h-945q-16 0 -16 16zM274.5 385q-4.5 10 6.5 18l448 402 q55 53 86 108.5t31 96.5q0 59 -39 93t-82 34h-8q-14 0 -15 16v231q0 14 15 15h8q94 0 169 -36t126 -94.5t77.5 -134t26.5 -155.5q0 -86 -32.5 -167t-102.5 -144l-327 -293h-371q-12 0 -16.5 10z" />
<glyph unicode="3" d="M133 287q-4 12 4 20l199 113q8 4 15 1t9 -11q20 -72 72.5 -117t106.5 -45q16 0 16 -17v-227q0 -16 -16 -16h-9q-72 0 -135 24.5t-113.5 65.5t-88 95t-60.5 114zM133 1098q23 61 60.5 114.5t89 94.5t114 64.5t133.5 23.5h9q16 0 16 -15v-227q0 -16 -16 -16h-9 q-49 0 -98 -46.5t-72 -117.5q-8 -20 -24 -10l-199 114q-8 8 -4 21zM580 600v229q0 16 14 17h106q47 4 86 38t39 97v23q0 27 -12 51t-32.5 42.5t-46 30t-50.5 11.5h-10q-14 0 -15 16v227q0 14 15 15h10q94 0 171 -35t131 -90t84 -127t30 -146v-14q0 -76 -29 -150.5 t-100 -119.5q72 -53 103.5 -132t31.5 -157v-14q0 -72 -31 -147t-86 -135t-133 -99t-172 -39h-10q-14 0 -15 16l5 225q0 16 14 17q25 0 52.5 11t50 32.5t36.5 50.5t14 64v22q0 31 -12 58.5t-32.5 49t-48 34t-58.5 12.5h-86q-14 0 -14 16z" />
<glyph unicode="4" d="M88 342v293l520 670q8 10 18.5 6t10.5 -15v-376l-254 -328h238q16 0 16 -14v-236q0 -16 -16 -16h-517q-16 0 -16 16zM741 16v1373q0 14 17 14h239q16 0 17 -14v-797h170q16 0 16 -14v-236q0 -16 -16 -16h-170v-310q0 -16 -17 -16h-239q-16 0 -17 16z" />
<glyph unicode="5" d="M117 334q-4 16 12 20l225 54q16 4 21 -11q16 -66 73.5 -105.5t114.5 -39.5q16 0 17 -16v-228q0 -16 -17 -16q-84 0 -156.5 24.5t-131 68.5t-99.5 107.5t-59 141.5zM158 567v813q0 14 16 15h848q14 0 14 -15v-237q0 -16 -14 -17h-592v-211q29 16 60.5 25.5t72.5 9.5 q16 0 17 -14v-229q0 -16 -17 -17q-20 0 -44.5 -10t-48.5 -26.5t-41 -40t-26 -50.5q0 -12 -14 -12h-215q-16 0 -16 16zM682 8v228q0 12 14 16q37 4 70 21.5t58.5 45t41 64.5t15.5 82q0 98 -51.5 156.5t-133.5 68.5q-14 0 -14 17v229q0 14 16 14q96 0 179.5 -38t143.5 -101 t95 -147t35 -177q0 -104 -35 -192t-95 -152.5t-143 -104.5t-178 -46q-18 0 -18 16z" />
<glyph unicode="6" d="M154 451v489q0 82 30.5 163t87 145.5t135 105.5t175.5 41h10q16 0 16 -15v-225q0 -16 -16 -16q-35 0 -66.5 -17.5t-56.5 -45t-40 -62.5t-15 -72v-80q41 25 86 37t92 16q16 0 16 -16v-227q0 -16 -14 -17q-76 -6 -128 -63t-52 -146q0 -88 53 -140t127 -58q14 0 14 -17v-223 q0 -16 -16 -16q-106 0 -188 40t-137.5 105.5t-84 147.5t-28.5 166zM709 1155v225q0 14 16 15h8q119 0 220.5 -57.5t156.5 -155.5q8 -12 -4 -21l-176 -141q-6 -4 -13.5 -4t-11.5 8q-29 57 -83 86t-97 29q-16 0 -16 16zM711 8v223q0 16 14 17q33 2 64.5 17.5t56 41t39 60 t14.5 79.5q0 49 -14.5 87t-39 64t-56 40t-64.5 18q-14 0 -14 17v227q0 16 18 16q106 -8 187 -46t136.5 -99t83 -143t27.5 -176q0 -84 -30.5 -164t-88 -144.5t-138.5 -105.5t-179 -45q-16 0 -16 16z" />
<glyph unicode="7" d="M156 1141v237q0 14 16 15h573q8 0 12.5 -6.5t0.5 -16.5l-119 -237q-4 -8 -14 -9h-453q-16 0 -16 17zM205 7q-4 7 0 18l678 1361q6 6 14 7h166q16 0 16 -15v-186q0 -31 -16 -64l-559 -1120q-4 -8 -15 -8h-272q-8 0 -12 7z" />
<glyph unicode="8" d="M129 403q0 86 36 175.5t122 152.5q-63 47 -99 118t-36 144q0 80 28.5 153t82.5 128t132 89t176 34q16 0 17 -15v-227q0 -16 -15 -16q-55 -4 -101 -42t-46 -85q0 -72 46 -114t101 -46q14 0 15 -16v-209q0 -12 -13 -17q-78 -16 -120.5 -68.5t-42.5 -105.5q0 -78 46 -127 t115 -59q14 -4 15 -17v-225q0 -16 -17 -16q-100 0 -181 37t-139 95t-90 132t-32 147zM690 8v225q0 16 15 17q31 2 57 18.5t47.5 41t34 53t12.5 59.5q0 59 -35 115.5t-119 72.5q-12 4 -12 17v209q0 12 12 16q23 2 47.5 12t44 27.5t33 45.5t13.5 67q0 53 -41 88.5t-94 46.5 q-14 4 -15 16v227q0 14 17 15q96 0 171.5 -33t129 -88t81 -125t27.5 -143q0 -82 -39 -155t-96 -120q43 -31 72.5 -70.5t48 -81.5t27 -84t8.5 -79q0 -78 -28 -151.5t-81 -132t-134 -97.5t-187 -45q-16 0 -17 16z" />
<glyph unicode="9" d="M123 932v8q0 82 30.5 163t87 145.5t135.5 105.5t175 41h8q16 0 16 -15v-227q0 -16 -16 -16h-8q-31 0 -60.5 -13.5t-53 -39t-38 -61.5t-14.5 -81v-14q0 -43 14.5 -79t38 -60.5t53 -39t60.5 -14.5h8q16 0 16 -16v-213q0 -14 -16 -14h-8q-96 0 -175 34.5t-135.5 94 t-87 140.5t-30.5 171zM172 217q2 6 6 8l176 144q6 4 13.5 4t11.5 -8q29 -55 76 -85t98 -30q16 0 16 -17v-225q0 -16 -16 -16q-121 0 -220.5 57t-158.5 158q-4 4 -2 10zM678 8v225q0 16 16 17h8q31 0 61 16.5t54.5 44t39.5 63.5t15 72v86q-35 -25 -78.5 -32.5t-91.5 -7.5h-8 q-16 0 -16 14v213q0 16 16 16h8q31 0 61 15.5t53.5 42t38.5 61.5t15 74v14q0 43 -15 79t-38.5 61.5t-53.5 40t-61 14.5h-8q-16 0 -16 16v227q0 14 16 15h8q106 0 186.5 -40t134.5 -104.5t82 -146.5t28 -164v-489q0 -82 -31 -164t-88.5 -147.5t-136 -106.5t-175.5 -41h-8 q-16 0 -16 16z" />
<glyph unicode=":" horiz-adv-x="974" d="M303 152q0 70 48 117.5t120 47.5t120 -47t48 -118q0 -72 -48 -120t-120 -48t-120 48t-48 120zM303 958q0 72 48 120t120 48t120 -48t48 -120q0 -70 -48 -118.5t-120 -48.5t-120 48t-48 119z" />
<glyph unicode=";" horiz-adv-x="974" d="M205 -215l127 479q4 8 10 8h283q14 0 8 -14l-238 -479q-6 -6 -8 -6h-172q-14 0 -10 12zM303 958q0 72 48 120t120 48t120 -48t48 -120q0 -70 -48 -118.5t-120 -48.5t-120 48t-48 119z" />
<glyph unicode="&#x3c;" horiz-adv-x="1282" d="M117 555v158q0 6 6 10l1022 451q14 6 14 -11v-223q0 -8 -6 -8l-709 -297q178 -76 354.5 -150.5t354.5 -146.5q6 -4 6 -10v-224q0 -6 -4 -10t-10 0l-1022 451q-6 2 -6 10z" />
<glyph unicode="=" horiz-adv-x="1300" d="M143 281v202q0 10 11 11h1022q10 0 10 -11v-202q0 -10 -10 -11h-1022q-10 0 -11 11zM143 745v201q0 10 11 10h1022q10 0 10 -10v-201q0 -10 -10 -10h-1022q-10 0 -11 10z" />
<glyph unicode="&#x3e;" horiz-adv-x="1282" d="M133 104v224q0 6 6 10l709 297l-709 297q-6 0 -6 8v223q0 16 14 11l1022 -451q6 -4 7 -10v-158q0 -8 -7 -10l-1022 -451q-6 -4 -10 0t-4 10z" />
<glyph unicode="?" horiz-adv-x="1150" d="M78 938q8 199 115.5 318.5t291.5 142.5q6 2 11.5 -3t5.5 -12v-227q0 -12 -10 -16q-78 -20 -113 -85t-39 -151q0 -20 -18 -16l-230 33q-14 4 -14 16zM397 154q0 72 50 121t122 49q74 0 123 -48.5t49 -121.5q0 -74 -49 -123t-123 -49q-72 0 -122 48t-50 124zM434 408v51 q0 98 27.5 177t113.5 134l-2 -2q6 4 11.5 8t11.5 8q53 35 96 77t43 114q0 59 -33.5 102t-87.5 60q-10 4 -10 16v233q0 14 19 15q84 -8 158.5 -40t130 -85t87 -127t31.5 -164q0 -78 -18.5 -134t-51 -101t-79.5 -82t-103 -76q-51 -35 -63.5 -74t-12.5 -98v-12q0 -14 -16 -15 h-235q-16 0 -17 15z" />
<glyph unicode="A" horiz-adv-x="1267" d="M29 20l379 1229q4 12 16 12.5t16 -12.5l125 -397l-108 -338h196q12 0 17 -12l71 -236q4 -8 -1 -14t-15 -6h-344q-16 -57 -35.5 -116.5t-36.5 -117.5q-4 -12 -16 -12h-248q-10 0 -15 6t-1 14zM510 1386q-4 6 1 12.5t15 6.5h242q12 0 16 -12l426 -1373q4 -20 -16 -20h-250 q-10 0 -14 12z" />
<glyph unicode="B" horiz-adv-x="1273" d="M139 16v1373q0 14 15 14h239q16 0 17 -14v-1373q0 -16 -17 -16h-239q-14 0 -15 16zM512 16v222q0 16 16 16h215q66 0 110 51t44 117v10q0 31 -11.5 61.5t-31.5 55t-49 39t-62 14.5h-215q-16 0 -16 16v228q0 14 16 14h195q72 0 109.5 39t37.5 96v13q0 53 -34.5 92 t-112.5 39h-195q-16 0 -16 16v234q0 14 16 14h177q197 0 310 -102t113 -297q0 -86 -40.5 -155t-88.5 -106q82 -53 119 -135t37 -174q0 -100 -30.5 -180t-86 -136.5t-134.5 -87t-177 -30.5h-199q-16 0 -16 16z" />
<glyph unicode="C" horiz-adv-x="1316" d="M129 451v489q0 82 36 163t98.5 145.5t146.5 105.5t178 41h10q16 0 16 -15v-225q0 -16 -16 -16h-10q-31 0 -66 -17.5t-64.5 -45t-49 -62.5t-19.5 -72v-496q0 -43 19.5 -78.5t49 -61t64.5 -40t66 -14.5h10q16 0 16 -16v-228q0 -16 -16 -16h-10q-96 0 -180 40t-145.5 105.5 t-97.5 147.5t-36 166zM715 8v228q0 16 16 16h8q31 0 66 13.5t63.5 39t48 61t19.5 80.5v21q0 16 16 16h230q16 0 16 -16v-16q0 -84 -36 -166t-97 -147.5t-145 -105.5t-181 -40h-8q-16 0 -16 16zM715 1155v225q0 14 16 15h8q96 0 180.5 -41t145.5 -105.5t97 -145.5t36 -163 v-14q0 -16 -16 -17h-230q-16 0 -16 17v16q0 41 -19.5 77t-48 62.5t-63.5 42t-66 15.5h-8q-16 0 -16 16z" />
<glyph unicode="D" horiz-adv-x="1298" d="M139 16v1370q0 14 17 15h237q16 0 17 -15v-1370q0 -16 -17 -16h-237q-16 0 -17 16zM514 14v226q0 16 14 16h193q37 0 72.5 14.5t63.5 40t45.5 61.5t17.5 81v493q0 37 -13.5 72t-39 63.5t-62.5 46t-84 17.5h-193q-14 0 -14 16v228q0 14 14 14h193q111 0 195.5 -42 t143 -107.5t89.5 -147.5t31 -164v-485q0 -84 -36 -166t-97.5 -147.5t-145.5 -105.5t-180 -40h-193q-14 0 -14 16z" />
<glyph unicode="E" horiz-adv-x="1159" d="M137 16v1370q0 14 17 15h243q16 0 17 -15v-1370q0 -16 -17 -16h-243q-16 0 -17 16zM518 16v236q0 16 17 16h532q16 0 16 -16v-236q0 -16 -16 -16h-532q-16 0 -17 16zM518 580v235q0 16 17 16h399q16 0 16 -16v-235q0 -16 -16 -17h-399q-16 0 -17 17zM518 1149v237 q0 14 17 15h532q16 0 16 -15v-237q0 -16 -16 -16h-532q-16 0 -17 16z" />
<glyph unicode="F" horiz-adv-x="1099" d="M137 16v1370q0 14 17 15h245q16 0 17 -15v-1370q0 -16 -17 -16h-245q-16 0 -17 16zM522 580v235q0 16 17 16h397q16 0 16 -16v-235q0 -16 -16 -17h-397q-16 0 -17 17zM522 1149v237q0 14 17 15h530q16 0 16 -15v-237q0 -16 -16 -16h-530q-16 0 -17 16z" />
<glyph unicode="G" horiz-adv-x="1308" d="M119 451v489q0 82 35.5 163t98 145.5t146.5 105.5t179 41h10q16 0 16 -15v-225q0 -16 -16 -16h-10q-31 0 -66 -17.5t-64.5 -45t-49 -62.5t-19.5 -72v-496q0 -43 19.5 -78.5t49 -61t64.5 -40t66 -14.5h10q16 0 16 -16v-228q0 -16 -16 -16h-10q-96 0 -180.5 40t-146 105.5 t-97 147.5t-35.5 166zM705 8v228q0 16 16 16h8q31 0 64.5 13.5t63.5 38t49.5 60t19.5 80.5h-205q-16 0 -16 17v215q0 16 16 16h453q16 0 16 -16v-209q0 -90 -38 -176t-101.5 -152.5t-146.5 -106.5t-175 -40h-8q-16 0 -16 16zM705 1155v225q0 14 16 15h8q96 0 180 -41 t145.5 -105.5t97.5 -145.5t36 -163v-14q0 -16 -17 -17h-229q-16 0 -16 17v16q0 41 -19.5 77t-48.5 62.5t-63.5 42t-65.5 15.5h-8q-16 0 -16 16z" />
<glyph unicode="H" horiz-adv-x="1306" d="M139 16v1370q0 14 17 15h233q16 0 17 -15v-555h182q16 0 16 -16v-237q0 -16 -16 -17h-182v-545q0 -16 -17 -16h-233q-16 0 -17 16zM707 578v237q0 16 16 16h166v555q0 14 16 15h246q16 0 16 -15v-1370q0 -16 -16 -16h-246q-16 0 -16 16v545h-166q-16 0 -16 17z" />
<glyph unicode="I" horiz-adv-x="649" d="M190 16v1370q0 14 17 15h237q16 0 17 -15v-1370q0 -16 -17 -16h-237q-16 0 -17 16z" />
<glyph unicode="J" horiz-adv-x="1263" d="M59 451v28q0 14 17 15h227q16 0 16 -15v-33q0 -43 19.5 -78.5t49.5 -61t64.5 -40t65.5 -14.5h8q16 0 17 -16v-228q0 -16 -17 -16h-8q-96 0 -180 40t-145.5 105.5t-97.5 147.5t-36 166zM645 8v228q0 16 17 16h8q31 0 64.5 13.5t63 39t49 61t19.5 80.5v940q0 14 17 15h229 q16 0 16 -15v-935q0 -84 -35.5 -166t-98 -147.5t-146.5 -105.5t-178 -40h-8q-16 0 -17 16z" />
<glyph unicode="K" horiz-adv-x="1318" d="M129 16v1370q0 14 14 15h240q16 0 16 -15v-1370q0 -16 -16 -16h-240q-14 0 -14 16zM434 803q-6 10 2 18l520 574q6 6 11 6h301q10 0 15 -8.5t-3 -16.5l-690 -762q-14 -14 -27 0zM643 500q-6 10 2 18l162 176q16 16 27 -2l446 -667q6 -10 1 -17.5t-15 -7.5h-283 q-10 0 -14 8z" />
<glyph unicode="L" horiz-adv-x="1095" d="M137 16v1370q0 14 17 15h241q16 0 17 -15v-1370q0 -16 -17 -16h-241q-16 0 -17 16zM518 16v236q0 16 17 16h530q16 0 16 -16v-236q0 -16 -16 -16h-530q-16 0 -17 16z" />
<glyph unicode="M" horiz-adv-x="1406" d="M139 16v1039q0 12 10.5 16t18.5 -6l240 -315v-734q0 -16 -17 -16h-235q-16 0 -17 16zM139 1282v104q0 14 17 15h211q6 0 12 -6l479 -635q6 -10 0 -21l-141 -192q-4 -8 -12.5 -8t-12.5 8zM776 1042q-6 10 0 21l248 332q6 6 12 6h215q16 0 17 -15v-1370q0 -16 -17 -16h-235 q-14 0 -15 16v916l-57 -80q-4 -6 -11 -5t-11 5z" />
<glyph unicode="N" horiz-adv-x="1372" d="M139 16v975q0 12 11.5 16.5t19.5 -6.5l240 -339v-646q0 -16 -17 -16h-237q-16 0 -17 16zM139 1223v166q0 14 17 14h200q10 0 15 -6l862 -1237v-144q0 -16 -16 -16h-211q-10 0 -13 6zM965 723v666q0 14 16 14h236q16 0 16 -14v-998q0 -12 -11.5 -16t-19.5 6z" />
<glyph unicode="O" horiz-adv-x="1327" d="M129 451v489q0 82 34 163t94 145.5t144 105.5t187 41h10q16 0 16 -15v-225q0 -16 -16 -16h-10q-45 0 -82 -16.5t-62.5 -44t-40 -63.5t-14.5 -75v-496q0 -43 17.5 -79.5t45 -63.5t63.5 -42t73 -15h10q16 0 16 -17v-219q0 -16 -16 -16h-10q-104 0 -189.5 40t-144.5 105.5 t-92 147.5t-33 166zM715 8v219q0 16 16 17h8q37 0 72 14t62.5 41t45 63.5t17.5 81.5v496q0 86 -52.5 142.5t-144.5 56.5h-8q-16 0 -16 16v225q0 14 16 15h8q106 0 192.5 -41t145 -105.5t90 -145.5t31.5 -163v-489q0 -84 -30.5 -166t-90 -147.5t-144.5 -105.5t-194 -40h-8 q-16 0 -16 16z" />
<glyph unicode="P" horiz-adv-x="1140" d="M137 16v1370q0 14 17 15h239q14 0 15 -15v-1370q0 -16 -15 -16h-239q-16 0 -17 16zM510 543v231q0 16 16 17h142q90 0 136 52t46 124q0 68 -46 118t-136 50h-142q-16 0 -16 16v235q0 14 16 15h138q96 0 177 -32t140 -88t92 -136t33 -178v-6q0 -98 -33 -179.5t-92 -137.5 t-140 -87t-177 -31h-138q-16 0 -16 17z" />
<glyph unicode="Q" horiz-adv-x="1337" d="M139 451v489q0 82 36 163t99.5 145.5t146.5 105.5t179 41h8q16 0 17 -15v-221q0 -16 -17 -16h-8q-37 0 -72.5 -16.5t-64.5 -44t-46.5 -64.5t-17.5 -76v-496q0 -43 19.5 -80.5t50.5 -65.5t65.5 -43t65.5 -15h8q16 0 17 -17v-217q0 -16 -17 -16h-8q-96 0 -179 40 t-146.5 105.5t-99.5 147.5t-36 166zM729 1159l2 221q0 14 14 15q98 0 183.5 -41t148 -105.5t98 -145.5t35.5 -163v-489q0 -145 -94 -265l139 -137q4 -4 4.5 -11t-4.5 -11l-145 -150q-12 -12 -23 0l-157 156q-80 -41 -178 -41q-16 0 -17 16v217q0 16 15 17q31 0 65.5 15 t64 43t48 64.5t18.5 81.5v496q0 43 -16.5 80t-44 63.5t-64.5 42t-76 15.5q-16 0 -16 16z" />
<glyph unicode="R" horiz-adv-x="1263" d="M139 16v1370q0 14 17 15h239q16 0 17 -15v-1370q0 -16 -17 -16h-239q-16 0 -17 16zM518 551v229q0 16 14 17h195q88 0 134 51t46 123q0 66 -46 116t-134 50h-195q-14 0 -14 16v233q0 14 14 15h191q94 0 174 -31t138.5 -88t90 -138t31.5 -179q0 -158 -79 -264.5 t-220 -147.5l326 -528q6 -10 1 -17.5t-16 -7.5h-258q-10 0 -14 8l-322 527h-43q-14 0 -14 16z" />
<glyph unicode="S" horiz-adv-x="1200" d="M106 420v14q0 16 17 17h231q16 0 17 -15q2 -27 13 -55.5t30.5 -54t47 -47t62.5 -33.5q12 -4 13 -17v-223q0 -20 -19 -16q-78 12 -152.5 46t-132 87t-92.5 128t-35 169zM150 1047q0 80 32.5 143t84.5 109.5t118 74t133 31.5q18 0 19 -16v-218q0 -12 -11 -16 q-55 -16 -81.5 -47t-26.5 -70q0 -29 25.5 -52t70.5 -45.5t105.5 -45.5t132.5 -47q57 -20 117.5 -53t110.5 -84.5t82 -122t32 -168.5q0 -84 -31 -157t-86 -130t-130 -94t-163 -47q-18 -4 -18 16v223q0 12 10 17q61 23 104 71t43 113q0 43 -24.5 75t-64.5 56.5t-90 44 t-103 37.5q-78 27 -148.5 57.5t-124 74.5t-86 108.5t-32.5 161.5zM666 1176v217q0 16 18 16q131 -12 223 -66.5t152 -168.5q8 -16 -6 -23l-203 -104q-14 -6 -23 6q-25 43 -63.5 69.5t-85.5 36.5q-12 4 -12 17z" />
<glyph unicode="T" horiz-adv-x="1007" d="M35 1149v237q0 14 16 15h905q16 0 17 -15v-237q0 -16 -17 -16h-905q-16 0 -16 16zM373 16v998q0 16 16 16h236q14 0 14 -16v-998q0 -16 -14 -16h-236q-16 0 -16 16z" />
<glyph unicode="U" horiz-adv-x="1329" d="M129 451v935q0 14 16 15h228q16 0 16 -15v-940q0 -43 19.5 -78.5t50 -61t65.5 -40t66 -14.5h8q16 0 16 -16v-228q0 -16 -16 -16h-8q-96 0 -179 40t-146.5 105.5t-99.5 147.5t-36 166zM717 8l2 228q0 16 16 16q31 0 66 13.5t65.5 39t50 61t19.5 80.5v940q0 14 16 15h232 q16 0 16 -15v-935q0 -84 -37 -166t-99.5 -147.5t-147.5 -105.5t-183 -40q-16 0 -16 16z" />
<glyph unicode="V" horiz-adv-x="1247" d="M33 1386q-4 6 1 12.5t13 6.5h252q10 0 14 -12l420 -1373q4 -8 -1 -14t-15 -6h-244q-12 0 -16 12zM676 555l260 838q0 12 14 12h248q8 0 13.5 -6t0.5 -13l-376 -1230q-4 -12 -16.5 -12.5t-16.5 12.5z" />
<glyph unicode="W" horiz-adv-x="1531" d="M47 1386q-4 16 16 17h242q12 0 17 -14l147 -863q18 61 38.5 133t37.5 134q4 12 16 12t17 -12l124 -426l-81 -355q0 -12 -15 -12h-282q-12 0 -17 14zM618 1036l27 94q4 12 17 13h194q12 0 16 -13l332 -1110q4 -8 -1 -14t-15 -6h-244q-12 0 -16 12zM1085 762l109 627 q4 14 16 14h240q20 0 16 -17l-188 -1138q-2 -12 -15.5 -13.5t-15.5 11.5z" />
<glyph unicode="X" horiz-adv-x="1265" d="M-9 7q-5 7 1 18l383 569q4 8 14 9t14 -7l144 -213q8 -10 0 -18l-238 -357q-4 -8 -14 -8h-289q-10 0 -15 7zM5 1393.5q5 7.5 15 7.5h287q8 0 12 -8l922 -1368q6 -10 1 -17.5t-15 -7.5h-287q-10 0 -14 8l-920 1370q-6 8 -1 15.5zM684 1040q-4 8 0 17l225 336q4 8 15 8h286 q10 0 14.5 -7.5t-1.5 -15.5l-369 -549q-4 -8 -13.5 -8t-13.5 8z" />
<glyph unicode="Y" horiz-adv-x="1271" d="M30 1393.5q5 7.5 15 7.5h287q10 0 14 -8l453 -672q8 -10 0 -19l-19 -22v-664q0 -16 -14 -16h-236q-16 0 -16 16v656l-483 704q-6 10 -1 17.5zM715 1032q-8 8 0 17l231 344q4 8 12 8h287q10 0 15.5 -7.5t-0.5 -17.5l-379 -551q-4 -8 -13.5 -7t-13.5 9z" />
<glyph unicode="Z" horiz-adv-x="1153" d="M53 16v228l856 1151q6 6 13 6h133q16 0 16 -15v-229l-850 -1151q-6 -6 -12 -6h-139q-16 0 -17 16zM102 1149v237q0 14 17 15h633q10 0 13 -7.5t-3 -17.5l-178 -237q-6 -6 -11 -6h-454q-16 0 -17 16zM360.5 8q-4.5 8 1.5 19l179 235q6 6 12 6h504q16 0 16 -16v-236 q0 -16 -16 -16h-682q-10 0 -14.5 8z" />
<glyph unicode="[" horiz-adv-x="823" d="M227 -41v1468q0 16 17 17h479q16 0 16 -17v-200q0 -16 -16 -17h-223v-1034h223q16 0 16 -16v-201q0 -14 -16 -14h-479q-16 0 -17 14z" />
<glyph unicode="\" horiz-adv-x="1251" d="M74 1446q-4 10 0 17t14 7h213q8 0 12 -8l865 -1538q4 -10 0 -17t-15 -7h-213q-4 0 -8 2t-4 6z" />
<glyph unicode="]" horiz-adv-x="823" d="M106 -41v201q0 16 17 16h223v1034h-223q-16 0 -17 17v200q0 16 17 17h481q16 0 17 -17v-1468q0 -14 -17 -14h-481q-16 0 -17 14z" />
<glyph unicode="^" horiz-adv-x="1228" d="M10 915.5q-2 6.5 2 10.5l506 524q4 4 8 4h176q4 0 9 -4l506 -524q4 -4 2 -10.5t-11 -6.5h-282q-4 0 -8 4l-304 324q-76 -82 -152.5 -162t-152.5 -162q-4 -4 -8 -4h-281q-8 0 -10 6.5z" />
<glyph unicode="_" horiz-adv-x="1024" d="M-2 -111q0 10 10 11h1008q10 0 10 -11v-161q0 -10 -10 -11h-1008q-10 0 -10 11v161z" />
<glyph unicode="`" horiz-adv-x="1267" d="M215 1722q-12 8 2 17l215 119q8 4 12 -3l277 -317q8 -8 -2 -14l-115 -68q-6 -6 -12 0z" />
<glyph unicode="a" horiz-adv-x="1267" d="M29 18l379 1229q4 12 16 12.5t16 -12.5l125 -397l-108 -338h196q12 0 17 -12l71 -236q4 -8 -1 -14t-15 -6h-344q-16 -57 -35.5 -116.5t-36.5 -117.5q-4 -12 -16 -12h-248q-10 0 -15 6t-1 14zM510 1384q-4 6 1 12.5t15 6.5h242q12 0 16 -12l426 -1373q4 -20 -16 -20h-250 q-10 0 -14 12z" />
<glyph unicode="b" horiz-adv-x="1273" d="M139 16v1373q0 14 15 14h239q16 0 17 -14v-1373q0 -16 -17 -16h-239q-14 0 -15 16zM512 16v222q0 16 16 16h215q66 0 110 51t44 117v10q0 31 -11.5 61.5t-31.5 55t-49 39t-62 14.5h-215q-16 0 -16 16v228q0 14 16 14h195q72 0 109.5 39t37.5 96v13q0 53 -34.5 92 t-112.5 39h-195q-16 0 -16 16v234q0 14 16 14h177q197 0 310 -102t113 -297q0 -86 -40.5 -155t-88.5 -106q82 -53 119 -135t37 -174q0 -100 -30.5 -180t-86 -136.5t-134.5 -87t-177 -30.5h-199q-16 0 -16 16z" />
<glyph unicode="c" horiz-adv-x="1316" d="M129 451v489q0 82 36 163t98.5 145.5t146.5 105.5t178 41h10q16 0 16 -15v-225q0 -16 -16 -16h-10q-31 0 -66 -17.5t-64.5 -45t-49 -62.5t-19.5 -72v-496q0 -43 19.5 -78.5t49 -61t64.5 -40t66 -14.5h10q16 0 16 -16v-228q0 -16 -16 -16h-10q-96 0 -180 40t-145.5 105.5 t-97.5 147.5t-36 166zM715 8v228q0 16 16 16h8q31 0 66 13.5t63.5 39t48 61t19.5 80.5v21q0 16 16 16h230q16 0 16 -16v-16q0 -84 -36 -166t-97 -147.5t-145 -105.5t-181 -40h-8q-16 0 -16 16zM715 1155v225q0 14 16 15h8q96 0 180.5 -41t145.5 -105.5t97 -145.5t36 -163 v-14q0 -16 -16 -17h-230q-16 0 -16 17v16q0 41 -19.5 77t-48 62.5t-63.5 42t-66 15.5h-8q-16 0 -16 16z" />
<glyph unicode="d" horiz-adv-x="1298" d="M139 16v1370q0 14 17 15h237q16 0 17 -15v-1370q0 -16 -17 -16h-237q-16 0 -17 16zM514 14v226q0 16 14 16h193q31 0 65.5 14.5t64.5 40t49.5 61.5t19.5 81v493q0 37 -17.5 72t-46.5 63.5t-64.5 46t-70.5 17.5h-193q-14 0 -14 16v228q0 14 14 14h193q98 0 182 -42 t145.5 -107.5t96.5 -147.5t35 -164v-485q0 -84 -36 -166t-97.5 -147.5t-145.5 -105.5t-180 -40h-193q-14 0 -14 16z" />
<glyph unicode="e" horiz-adv-x="1159" d="M137 16v1370q0 14 17 15h243q16 0 17 -15v-1370q0 -16 -17 -16h-243q-16 0 -17 16zM518 16v236q0 16 17 16h532q16 0 16 -16v-236q0 -16 -16 -16h-532q-16 0 -17 16zM518 580v235q0 16 17 16h399q16 0 16 -16v-235q0 -16 -16 -17h-399q-16 0 -17 17zM518 1149v237 q0 14 17 15h532q16 0 16 -15v-237q0 -16 -16 -16h-532q-16 0 -17 16z" />
<glyph unicode="f" horiz-adv-x="1099" d="M137 16v1370q0 14 17 15h245q16 0 17 -15v-1370q0 -16 -17 -16h-245q-16 0 -17 16zM522 580v235q0 16 17 16h397q16 0 16 -16v-235q0 -16 -16 -17h-397q-16 0 -17 17zM522 1149v237q0 14 17 15h530q16 0 16 -15v-237q0 -16 -16 -16h-530q-16 0 -17 16z" />
<glyph unicode="g" horiz-adv-x="1308" d="M119 451v489q0 82 35.5 163t98 145.5t146.5 105.5t179 41h10q16 0 16 -15v-225q0 -16 -16 -16h-10q-31 0 -66 -17.5t-64.5 -45t-49 -62.5t-19.5 -72v-496q0 -43 19.5 -78.5t49 -61t64.5 -40t66 -14.5h10q16 0 16 -16v-228q0 -16 -16 -16h-10q-96 0 -180.5 40t-146 105.5 t-97 147.5t-35.5 166zM705 8v228q0 16 16 16h8q31 0 64.5 13.5t63.5 38t49.5 60t19.5 80.5h-205q-16 0 -16 17v215q0 16 16 16h453q16 0 16 -16v-209q0 -90 -38 -176t-101.5 -152.5t-146.5 -106.5t-175 -40h-8q-16 0 -16 16zM705 1155v225q0 14 16 15h8q96 0 180 -41 t145.5 -105.5t97.5 -145.5t36 -163v-14q0 -16 -17 -17h-229q-16 0 -16 17v16q0 41 -19.5 77t-48.5 62.5t-63.5 42t-65.5 15.5h-8q-16 0 -16 16z" />
<glyph unicode="h" horiz-adv-x="1306" d="M139 16v1370q0 14 17 15h233q16 0 17 -15v-555h182q16 0 16 -16v-237q0 -16 -16 -17h-182v-545q0 -16 -17 -16h-233q-16 0 -17 16zM707 578v237q0 16 16 16h166v555q0 14 16 15h246q16 0 16 -15v-1370q0 -16 -16 -16h-246q-16 0 -16 16v545h-166q-16 0 -16 17z" />
<glyph unicode="i" horiz-adv-x="649" d="M190 16v1370q0 14 17 15h237q16 0 17 -15v-1370q0 -16 -17 -16h-237q-16 0 -17 16z" />
<glyph unicode="j" horiz-adv-x="1263" d="M59 451v28q0 14 17 15h227q16 0 16 -15v-33q0 -43 19.5 -78.5t49.5 -61t64.5 -40t65.5 -14.5h8q16 0 17 -16v-228q0 -16 -17 -16h-8q-96 0 -180 40t-145.5 105.5t-97.5 147.5t-36 166zM645 8v228q0 16 17 16h8q31 0 64.5 13.5t63 39t49 61t19.5 80.5v940q0 14 17 15h229 q16 0 16 -15v-935q0 -84 -35.5 -166t-98 -147.5t-146.5 -105.5t-178 -40h-8q-16 0 -17 16z" />
<glyph unicode="k" horiz-adv-x="1318" d="M129 16v1370q0 14 14 15h240q16 0 16 -15v-1370q0 -16 -16 -16h-240q-14 0 -14 16zM434 803q-6 10 2 18l520 574q6 6 11 6h301q10 0 15 -8.5t-3 -16.5l-690 -762q-14 -14 -27 0zM643 500q-6 10 2 18l162 176q16 16 27 -2l446 -667q6 -10 1 -17.5t-15 -7.5h-283 q-10 0 -14 8z" />
<glyph unicode="l" horiz-adv-x="1095" d="M137 16v1370q0 14 17 15h241q16 0 17 -15v-1370q0 -16 -17 -16h-241q-16 0 -17 16zM518 16v236q0 16 17 16h530q16 0 16 -16v-236q0 -16 -16 -16h-530q-16 0 -17 16z" />
<glyph unicode="m" horiz-adv-x="1406" d="M139 16v1039q0 12 10.5 16t18.5 -6l240 -315v-734q0 -16 -17 -16h-235q-16 0 -17 16zM139 1282v104q0 14 17 15h211q6 0 12 -6l479 -635q6 -10 0 -21l-141 -192q-4 -8 -12.5 -8t-12.5 8zM776 1042q-6 10 0 21l248 332q6 6 12 6h215q16 0 17 -15v-1370q0 -16 -17 -16h-235 q-14 0 -15 16v916l-57 -80q-4 -6 -11 -5t-11 5z" />
<glyph unicode="n" horiz-adv-x="1372" d="M139 14v975q0 12 11.5 16.5t19.5 -6.5l240 -340v-645q0 -16 -17 -16h-237q-16 0 -17 16zM139 1221v165q0 14 17 15h200q10 0 15 -6l862 -1237v-144q0 -16 -16 -16h-211q-10 0 -13 6zM965 721v665q0 14 16 15h236q16 0 16 -15v-997q0 -12 -11.5 -16t-19.5 6z" />
<glyph unicode="o" horiz-adv-x="1327" d="M129 451v489q0 82 34 163t94 145.5t144 105.5t187 41h10q16 0 16 -15v-225q0 -16 -16 -16h-10q-45 0 -82 -16.5t-62.5 -44t-40 -63.5t-14.5 -75v-496q0 -43 17.5 -79.5t45 -63.5t63.5 -42t73 -15h10q16 0 16 -17v-219q0 -16 -16 -16h-10q-104 0 -189.5 40t-144.5 105.5 t-92 147.5t-33 166zM715 8v219q0 16 16 17h8q37 0 72 14t62.5 41t45 63.5t17.5 81.5v496q0 86 -52.5 142.5t-144.5 56.5h-8q-16 0 -16 16v225q0 14 16 15h8q106 0 192.5 -41t145 -105.5t90 -145.5t31.5 -163v-489q0 -84 -30.5 -166t-90 -147.5t-144.5 -105.5t-194 -40h-8 q-16 0 -16 16z" />
<glyph unicode="p" horiz-adv-x="1140" d="M137 16v1370q0 14 17 15h239q14 0 15 -15v-1370q0 -16 -15 -16h-239q-16 0 -17 16zM510 543v231q0 16 16 17h142q90 0 136 52t46 124q0 68 -46 118t-136 50h-142q-16 0 -16 16v235q0 14 16 15h138q96 0 177 -32t140 -88t92 -136t33 -178v-6q0 -98 -33 -179.5t-92 -137.5 t-140 -87t-177 -31h-138q-16 0 -16 17z" />
<glyph unicode="q" horiz-adv-x="1337" d="M139 451v489q0 82 36 163t99.5 145.5t146.5 105.5t179 41h8q16 0 17 -15v-221q0 -16 -17 -16h-8q-37 0 -72.5 -16.5t-64.5 -44t-46.5 -64.5t-17.5 -76v-496q0 -43 19.5 -80.5t50.5 -65.5t65.5 -43t65.5 -15h8q16 0 17 -17v-217q0 -16 -17 -16h-8q-96 0 -179 40 t-146.5 105.5t-99.5 147.5t-36 166zM729 1159l2 221q0 14 14 15q98 0 183.5 -41t148 -105.5t98 -145.5t35.5 -163v-489q0 -145 -94 -265l139 -137q4 -4 4.5 -11t-4.5 -11l-145 -150q-12 -12 -23 0l-157 156q-80 -41 -178 -41q-16 0 -17 16v217q0 16 15 17q31 0 65.5 15 t64 43t48 64.5t18.5 81.5v496q0 43 -16.5 80t-44 63.5t-64.5 42t-76 15.5q-16 0 -16 16z" />
<glyph unicode="r" horiz-adv-x="1263" d="M139 16v1370q0 14 17 15h239q16 0 17 -15v-1370q0 -16 -17 -16h-239q-16 0 -17 16zM518 551v229q0 16 14 17h195q88 0 134 51t46 123q0 66 -46 116t-134 50h-195q-14 0 -14 16v233q0 14 14 15h191q94 0 174 -31t138.5 -88t90 -138t31.5 -179q0 -158 -79 -264.5 t-220 -147.5l326 -528q6 -10 1 -17.5t-16 -7.5h-258q-10 0 -14 8l-322 527h-43q-14 0 -14 16z" />
<glyph unicode="s" horiz-adv-x="1200" d="M106 420v14q0 16 17 17h231q16 0 17 -15q2 -27 13 -55.5t30.5 -54t47 -47t62.5 -33.5q12 -4 13 -17v-223q0 -20 -19 -16q-78 12 -152.5 46t-132 87t-92.5 128t-35 169zM150 1047q0 80 32.5 143t84.5 109.5t118 74t133 31.5q18 0 19 -16v-218q0 -12 -11 -16 q-55 -16 -81.5 -47t-26.5 -70q0 -29 25.5 -52t70.5 -45.5t105.5 -45.5t132.5 -47q57 -20 117.5 -53t110.5 -84.5t82 -122t32 -168.5q0 -84 -31 -157t-86 -130t-130 -94t-163 -47q-18 -4 -18 16v223q0 12 10 17q61 23 104 71t43 113q0 43 -24.5 75t-64.5 56.5t-90 44 t-103 37.5q-78 27 -148.5 57.5t-124 74.5t-86 108.5t-32.5 161.5zM666 1176v217q0 16 18 16q131 -12 223 -66.5t152 -168.5q8 -16 -6 -23l-203 -104q-14 -6 -23 6q-25 43 -63.5 69.5t-85.5 36.5q-12 4 -12 17z" />
<glyph unicode="t" horiz-adv-x="1007" d="M35 1149v237q0 14 16 15h905q16 0 17 -15v-237q0 -16 -17 -16h-905q-16 0 -16 16zM373 16v998q0 16 16 16h236q14 0 14 -16v-998q0 -16 -14 -16h-236q-16 0 -16 16z" />
<glyph unicode="u" horiz-adv-x="1329" d="M129 451v935q0 14 16 15h228q16 0 16 -15v-940q0 -43 19.5 -78.5t50 -61t65.5 -40t66 -14.5h8q16 0 16 -16v-228q0 -16 -16 -16h-8q-96 0 -179 40t-146.5 105.5t-99.5 147.5t-36 166zM717 8l2 228q0 16 16 16q31 0 66 13.5t65.5 39t50 61t19.5 80.5v940q0 14 16 15h232 q16 0 16 -15v-935q0 -84 -37 -166t-99.5 -147.5t-147.5 -105.5t-183 -40q-16 0 -16 16z" />
<glyph unicode="v" horiz-adv-x="1247" d="M33 1384q-4 6 1 12.5t13 6.5h252q10 0 14 -12l420 -1373q4 -8 -1 -14t-15 -6h-244q-12 0 -16 12zM676 553l260 838q0 12 14 12h248q8 0 13.5 -6t0.5 -13l-376 -1230q-4 -12 -16.5 -12.5t-16.5 12.5z" />
<glyph unicode="w" horiz-adv-x="1531" d="M47 1386q-4 16 16 17h242q12 0 17 -14l147 -863q18 61 38.5 133t37.5 134q4 12 16 12t17 -12l124 -426l-81 -355q0 -12 -15 -12l-282 -2q-12 0 -17 14zM618 1036l27 94q4 12 17 13h194q12 0 16 -13l332 -1110q4 -8 -1 -14t-15 -6l-244 -2q-12 0 -16 12zM1085 762l109 627 q4 14 16 14h240q20 0 16 -17l-188 -1138q-2 -12 -15.5 -13.5t-15.5 11.5z" />
<glyph unicode="x" horiz-adv-x="1265" d="M-9 7q-5 7 1 18l383 569q4 8 14 9t14 -7l144 -213q8 -10 0 -18l-238 -357q-4 -8 -14 -8h-289q-10 0 -15 7zM5 1393.5q5 7.5 15 7.5h287q8 0 12 -8l922 -1368q6 -10 1 -17.5t-15 -7.5h-287q-10 0 -14 8l-920 1370q-6 8 -1 15.5zM684 1040q-4 8 0 17l225 336q4 8 15 8h286 q10 0 14.5 -7.5t-1.5 -15.5l-369 -549q-4 -8 -13.5 -8t-13.5 8z" />
<glyph unicode="y" horiz-adv-x="1271" d="M30 1393.5q5 7.5 15 7.5h287q10 0 14 -8l453 -672q8 -10 0 -19l-19 -22v-664q0 -16 -14 -16h-236q-16 0 -16 16v656l-483 704q-6 10 -1 17.5zM715 1032q-8 8 0 17l231 344q4 8 12 8h287q10 0 15.5 -7.5t-0.5 -17.5l-379 -551q-4 -8 -13.5 -7t-13.5 9z" />
<glyph unicode="z" horiz-adv-x="1153" d="M53 16v228l856 1151q6 6 13 6h133q16 0 16 -15v-229l-850 -1151q-6 -6 -12 -6h-139q-16 0 -17 16zM102 1149v237q0 14 17 15h633q10 0 13 -7.5t-3 -17.5l-178 -237q-6 -6 -11 -6h-454q-16 0 -17 16zM360.5 8q-4.5 8 1.5 19l179 235q6 6 12 6h504q16 0 16 -16v-236 q0 -16 -16 -16h-682q-10 0 -14.5 8z" />
<glyph unicode="{" horiz-adv-x="872" d="M125 590v201q0 16 16 16h164v620q0 16 17 17h481q16 0 16 -17v-200q0 -16 -16 -17h-223v-1034h223q16 0 16 -16v-201q0 -14 -16 -14h-481q-16 0 -17 14v616h-164q-16 0 -16 15z" />
<glyph unicode="|" horiz-adv-x="882" d="M305 -84v1538q0 16 17 16h213q16 0 16 -16v-1538q0 -16 -16 -16h-213q-16 0 -17 16z" />
<glyph unicode="}" horiz-adv-x="872" d="M74 -41v201q0 16 16 16h223v1034h-223q-16 0 -16 17v200q0 16 16 17h481q16 0 17 -17v-620h164q16 0 16 -16v-201q0 -14 -16 -15h-164v-616q0 -14 -17 -14h-481q-16 0 -16 14z" />
<glyph unicode="~" horiz-adv-x="1228" d="M164 696q0 2 1 4t1 5q16 33 39.5 65.5t55.5 58t73 41t92 15.5q57 0 113.5 -19.5t115.5 -46.5l27 -12q49 -23 99 -41t83 -18q51 0 90 44t72 97q4 6 9 5t9 -7l74 -174q0 -2 -1 -4t-1 -4q-16 -35 -39.5 -67t-55.5 -57.5t-73 -41t-92 -15.5q-53 0 -109.5 19.5t-119.5 48.5 q2 -2 -1 -1t-26 11q-49 23 -99 41.5t-83 18.5q-51 0 -90 -44.5t-72 -97.5q-4 -6 -9 -5t-9 7z" />
<glyph unicode="&#xa2;" horiz-adv-x="917" d="M49 539v352q0 55 25.5 110.5t69.5 100.5t104.5 72.5t128.5 27.5h12v232q0 10 10 10h90q10 0 11 -10v-969q51 4 87 34.5t36 78.5v30q0 10 10 10h192q10 0 11 -10v-28q0 -55 -26 -110.5t-71 -100.5t-106.5 -73t-132.5 -30v-254q0 -10 -11 -10h-90q-10 0 -10 10v987h-12 q-45 0 -80 -32.5t-35 -73.5v-365q0 -43 31 -57q6 -6 6 -8v-187q0 -10 -12 -10q-72 8 -117 38t-72.5 69t-38 83t-10.5 83zM594 977v205q0 14 12 10q74 -18 119 -51t69.5 -74t33 -87t8.5 -89v-29q0 -10 -11 -10h-192q-10 0 -10 10v62q0 12 -4.5 24.5t-18.5 18.5q-6 2 -6 10z " />
<glyph unicode="&#xa3;" horiz-adv-x="1331" d="M133 16v236q0 16 14 16h1006q16 0 16 -16v-236q0 -16 -16 -16h-1006q-14 0 -14 16zM209 365v575q0 82 36 163t98.5 145.5t145 105.5t179.5 41h8q16 0 16 -15v-227q0 -16 -16 -16h-8q-31 0 -67 -15.5t-64.5 -42t-48 -62.5t-19.5 -75v-113h342q16 0 16 -16v-223 q0 -14 -16 -15h-342v-210q0 -16 -16 -17h-230q-14 0 -14 17zM795 1153v227q0 14 16 15h8q100 0 185.5 -43t148.5 -113q10 -12 0 -22l-158 -162q-4 -6 -12 -5t-12 7q-31 39 -73 59.5t-79 20.5h-8q-16 0 -16 16z" />
<glyph unicode="&#xa5;" horiz-adv-x="1331" d="M35 1393.5q4 7.5 14 7.5h289q10 0 14 -6l463 -658q4 -4 4 -10t-4 -10l-29 -39v-25h269q16 0 16 -16v-154q0 -16 -16 -16h-797q-16 0 -16 16v154q0 16 16 16h262v19l-483 704q-6 10 -2 17.5zM242 225v156q0 16 16 16h797q16 0 16 -16v-156q0 -14 -16 -14h-269v-195 q0 -16 -16 -16h-233q-16 0 -17 16v195h-262q-16 0 -16 14zM721 1032q-8 8 0 17l229 344q4 8 15 8h286q10 0 15.5 -7.5t-0.5 -17.5l-379 -551q-4 -8 -14.5 -7t-14.5 9z" />
<glyph unicode="&#xa8;" horiz-adv-x="1267" d="M266 1608q0 53 38 93t95 40t95 -40t38 -93q0 -59 -37.5 -96t-95.5 -37q-57 0 -95 37t-38 96zM737 1608q0 53 38 93t93 40q57 0 95 -40t38 -93q0 -59 -37.5 -96t-95.5 -37q-55 0 -93 37t-38 96z" />
<glyph unicode="&#xa9;" horiz-adv-x="1947" d="M100 440v502q0 76 29 155t82 143.5t132 107.5t179 51q18 0 19 -15v-227q0 -12 -15 -16q-82 -16 -124 -70.5t-42 -124.5v-510q0 -76 42 -132t124 -66q14 -4 15 -15v-223q0 -20 -19 -16q-90 12 -166.5 55t-133 105.5t-89.5 139t-33 156.5zM506 506v364q0 63 27.5 126 t75.5 114t112.5 83t138.5 32h17q16 0 16 -15v-188q0 -16 -16 -16h-17q-18 0 -41.5 -11.5t-44 -31t-34 -43t-13.5 -48.5v-370q0 -29 13.5 -52.5t33 -41t43 -26.5t43.5 -9h17q16 0 16 -17v-190q0 -16 -16 -16h-17q-74 0 -138.5 30.5t-112.5 81.5t-75.5 114.5t-27.5 129.5z M1001 166v190q0 16 17 17h14q20 0 43 9t43.5 25.5t33.5 41t13 53.5v26q0 16 17 17h190q16 0 17 -17v-22q0 -63 -28 -127t-77 -115t-113.5 -82.5t-138.5 -31.5h-14q-16 0 -17 16zM1001 1022v188q0 14 17 15h14q74 0 138.5 -32t113.5 -82t77 -113.5t28 -127.5v-18 q0 -16 -17 -16h-190q-16 0 -17 16v20q0 57 -42 95.5t-91 38.5h-14q-16 0 -17 16zM1376 0v223q0 10 15 15q82 10 123.5 66t41.5 132v510q0 70 -41.5 124t-123.5 71q-14 4 -15 16v227q0 14 19 15q100 -8 179 -51t132 -107.5t82 -143.5t29 -155v-502q0 -80 -32 -157.5 t-87.5 -140t-131 -105.5t-165.5 -53q-25 -4 -25 16z" />
<glyph unicode="&#xab;" horiz-adv-x="1136" d="M129 485q-6 6 0 13l262 397q6 10 15 2l151 -133q6 -6 2 -14l-160 -252l158 -258q4 -8 -2 -15l-154 -133q-8 -8 -14 2zM557 485q-6 6 0 13l260 397q6 10 14 2l154 -133q6 -6 2 -14l-160 -252l158 -258q4 -8 -2 -15l-154 -133q-8 -8 -14 2z" />
<glyph unicode="&#xad;" horiz-adv-x="1126" d="M207 502v221q0 10 8 10h696q10 0 11 -10v-221q0 -8 -11 -8h-696q-8 0 -8 8z" />
<glyph unicode="&#xae;" horiz-adv-x="2027" d="M100 440v502q0 76 29 155t82 143.5t132 107.5t179 51q18 0 19 -15v-227q0 -12 -15 -16q-82 -16 -124 -70.5t-42 -124.5v-510q0 -76 42 -132t124 -66q14 -4 15 -15v-223q0 -20 -19 -16q-90 12 -166.5 55t-133 105.5t-89.5 139t-33 156.5zM625 190v1041q0 16 16 16h197 q16 0 16 -16v-1041q0 -16 -16 -16h-197q-16 0 -16 16zM961 588v178q0 16 16 16h145q68 0 98.5 41t30.5 90q0 43 -35.5 81t-93.5 38h-145q-16 0 -16 15v184q0 16 16 16h149q74 0 135.5 -23.5t105.5 -68.5t69.5 -107.5t25.5 -138.5q0 -119 -54 -200.5t-159 -116.5l201 -393 q4 -10 0 -17.5t-14 -7.5h-226q-10 0 -14 8l-188 391h-31q-16 0 -16 15zM1479 0v223q0 10 14 15q82 10 124 66t42 132v510q0 70 -42 124t-124 71q-14 4 -14 16v227q0 14 18 15q100 -8 179 -51t132.5 -107.5t82 -143.5t28.5 -155v-502q0 -80 -32 -157.5t-87 -140t-131 -105.5 t-166 -53q-25 -4 -24 16z" />
<glyph unicode="&#xb4;" horiz-adv-x="1267" d="M575 1540l265 303q4 6 12 2l215 -119q12 -8 2 -16l-377 -266q-6 -6 -12 0l-102 82q-10 6 -3 14z" />
<glyph unicode="&#xb8;" horiz-adv-x="1316" d="M418 -514l53 125q4 10 14 6q53 -25 87 -31t69 -6q88 0 88 51q0 18 -12 26.5t-28.5 11.5t-34 1t-27.5 -8h-9l-83 41q-10 6 -7 14l72 197q2 6 10 6l111 2q14 0 10 -14l-41 -105q74 0 120 -18t73.5 -46t38 -61.5t10.5 -64.5q0 -39 -18.5 -75t-52.5 -63.5t-84 -45t-111 -17.5 q-70 0 -132.5 16.5t-111.5 45.5q-8 4 -4 12z" />
<glyph unicode="&#xbb;" horiz-adv-x="1136" d="M131 750q-4 8 2 14l154 133q8 8 14 -2l260 -397q6 -6 0 -13l-258 -391q-6 -10 -14 -2l-154 133q-8 4 -2 15l158 258q-41 61 -80 124.5t-80 127.5zM559 750q-4 8 2 14l152 133q8 8 14 -2l262 -397q6 -6 0 -13l-258 -391q-6 -10 -14 -2l-154 133q-8 4 -2 15l158 258 q-41 61 -80 124.5t-80 127.5z" />
<glyph unicode="&#x401;" horiz-adv-x="1159" d="M137 16v1370q0 14 17 15h243q16 0 17 -15v-1370q0 -16 -17 -16h-243q-16 0 -17 16zM233 1608q0 53 38 93t96 40q57 0 95 -40t38 -93q0 -59 -38 -96t-95 -37t-95.5 37t-38.5 96zM518 16v236q0 16 17 16h532q16 0 16 -16v-236q0 -16 -16 -16h-532q-16 0 -17 16zM518 580 v235q0 16 17 16h399q16 0 16 -16v-235q0 -16 -16 -17h-399q-16 0 -17 17zM518 1149v237q0 14 17 15h532q16 0 16 -15v-237q0 -16 -16 -16h-532q-16 0 -17 16zM705 1608q0 53 37.5 93t93.5 40q57 0 95 -40t38 -93q0 -59 -38 -96t-95 -37q-55 0 -93 37t-38 96z" />
<glyph unicode="&#x402;" horiz-adv-x="1478" d="M84 1161v225q0 14 16 15h963q16 0 16 -15v-225q0 -16 -16 -16h-963q-16 0 -16 16zM383 16v998q0 16 16 16h234q16 0 16 -16v-998q0 -16 -16 -16h-234q-16 0 -16 16zM754 633v225q0 16 14 16h184q96 0 178 -31.5t140.5 -88t91.5 -136t33 -178.5v-6q0 -98 -33 -179 t-91.5 -137.5t-140 -87t-178.5 -30.5h-96q-14 0 -14 16v224q0 16 14 16h102q88 0 135.5 56.5t47.5 127.5q0 68 -46 122t-137 54h-190q-14 0 -14 17z" />
<glyph unicode="&#x403;" horiz-adv-x="1079" d="M129 16v1370q0 14 16 15h246q16 0 17 -15v-1370q0 -16 -17 -16h-246q-16 0 -16 16zM477 1542l264 303q4 6 13 2l215 -118q12 -8 2 -17l-377 -266q-6 -6 -12 0l-103 82q-10 6 -2 14zM514 1149v237q0 14 16 15h531q16 0 16 -15v-237q0 -16 -16 -16h-531q-16 0 -16 16z" />
<glyph unicode="&#x404;" horiz-adv-x="1275" d="M104 451v489q0 82 36 163t98.5 145.5t146.5 105.5t178 41h10q14 0 15 -15v-225q0 -16 -15 -16h-10q-31 0 -65.5 -17.5t-64.5 -45t-49 -62.5t-19 -72v-496q0 -43 19 -78.5t49 -61t64.5 -40t65.5 -14.5h10q14 0 15 -16v-228q0 -16 -15 -16h-10q-96 0 -180 40t-145.5 105.5 t-97.5 147.5t-36 166zM475 608v215q0 16 17 17h423q16 0 17 -17v-215q0 -16 -17 -16h-423q-16 0 -17 16zM690 8v228q0 16 17 16h8q51 0 106.5 36t79.5 97q8 18 23 8l192 -121q10 -10 4 -22q-29 -53 -69.5 -100.5t-93 -82t-114 -55t-128.5 -20.5h-8q-16 0 -17 16zM690 1155 v225q0 14 17 15h8q127 0 230.5 -66.5t162.5 -165.5q8 -14 -4 -22l-189 -129q-16 -12 -22 6q-29 55 -81 88t-97 33h-8q-16 0 -17 16z" />
<glyph unicode="&#x405;" horiz-adv-x="1200" d="M106 420v14q0 16 17 17h231q16 0 17 -15q2 -27 13 -55.5t30.5 -54t47 -47t62.5 -33.5q12 -4 13 -17v-223q0 -20 -19 -16q-78 12 -152.5 46t-132 87t-92.5 128t-35 169zM150 1047q0 80 32.5 143t84.5 109.5t118 74t133 31.5q18 0 19 -16v-218q0 -12 -11 -16 q-55 -16 -81.5 -47t-26.5 -70q0 -29 25.5 -52t70.5 -45.5t105.5 -45.5t132.5 -47q57 -20 117.5 -53t110.5 -84.5t82 -122t32 -168.5q0 -84 -31 -157t-86 -130t-130 -94t-163 -47q-18 -4 -18 16v223q0 12 10 17q61 23 104 71t43 113q0 43 -24.5 75t-64.5 56.5t-90 44 t-103 37.5q-78 27 -148.5 57.5t-124 74.5t-86 108.5t-32.5 161.5zM666 1176v217q0 16 18 16q131 -12 223 -66.5t152 -168.5q8 -16 -6 -23l-203 -104q-14 -6 -23 6q-25 43 -63.5 69.5t-85.5 36.5q-12 4 -12 17z" />
<glyph unicode="&#x406;" horiz-adv-x="649" d="M190 16v1370q0 14 17 15h237q16 0 17 -15v-1370q0 -16 -17 -16h-237q-16 0 -17 16z" />
<glyph unicode="&#x407;" horiz-adv-x="649" d="M-31 1608q0 53 38 93t95 40t95.5 -40t38.5 -93q0 -59 -38 -96t-96 -37q-57 0 -95 37t-38 96zM190 16v1370q0 14 17 15h237q16 0 17 -15v-1370q0 -16 -17 -16h-237q-16 0 -17 16zM440 1608q0 53 38 93t93 40q57 0 95.5 -40t38.5 -93q0 -59 -38 -96t-96 -37q-55 0 -93 37 t-38 96z" />
<glyph unicode="&#x408;" horiz-adv-x="1263" d="M59 451v28q0 14 17 15h227q16 0 16 -15v-33q0 -43 19.5 -78.5t49.5 -61t64.5 -40t65.5 -14.5h8q16 0 17 -16v-228q0 -16 -17 -16h-8q-96 0 -180 40t-145.5 105.5t-97.5 147.5t-36 166zM645 8v228q0 16 17 16h8q31 0 64.5 13.5t63 39t49 61t19.5 80.5v940q0 14 17 15h229 q16 0 16 -15v-935q0 -84 -35.5 -166t-98 -147.5t-146.5 -105.5t-178 -40h-8q-16 0 -17 16z" />
<glyph unicode="&#x409;" horiz-adv-x="1894" d="M39 20l424 1371q4 12 16 12h244q10 0 15 -6t1 -13l-420 -1372q-4 -12 -16 -12h-248q-10 0 -15 6t-1 14zM684 850l123 397q4 12 16.5 12.5t16.5 -12.5l381 -1227q4 -8 -1.5 -14t-15.5 -6h-248q-12 0 -16 12zM1059 854q-4 8 1 14t15 6h332q96 0 177 -31.5t140.5 -88 t92 -136t32.5 -178.5v-6q0 -98 -32.5 -179t-92 -137.5t-140.5 -87t-177 -30.5h-72q-12 0 -16 12l-72 224q-4 8 1 14t14 6h151q43 0 78 15.5t57.5 41t34.5 58t12 69.5q0 68 -47 122t-135 54h-262q-12 0 -16 13z" />
<glyph unicode="&#x40a;" horiz-adv-x="1894" d="M145 16v1370q0 14 17 15h235q14 0 15 -15v-555h282q16 0 17 -16v-237q0 -16 -17 -17h-282v-545q0 -16 -15 -16h-235q-16 0 -17 16zM813 16v1370q0 14 16 15h238q16 0 16 -15v-1370q0 -16 -16 -16h-238q-16 0 -16 16zM1186 16v224q0 16 16 16h189q88 0 135 56.5t47 127.5 q0 68 -46 122t-136 54h-189q-16 0 -16 17v225q0 16 16 16h184q96 0 177.5 -31.5t140.5 -88t92 -136t33 -178.5v-6q0 -98 -33 -179t-92 -137.5t-140 -87t-178 -30.5h-184q-16 0 -16 16z" />
<glyph unicode="&#x40b;" horiz-adv-x="1478" d="M84 1161v225q0 14 16 15h963q16 0 16 -15v-225q0 -16 -16 -16h-963q-16 0 -16 16zM383 16v998q0 16 16 16h234q16 0 16 -16v-998q0 -16 -16 -16h-234q-16 0 -16 16zM758 641v217q0 16 14 16h168q121 0 205 -35.5t137 -95t77.5 -140.5t24.5 -169v-418q0 -16 -16 -16h-223 q-16 0 -17 16v412q0 33 -8 67.5t-29.5 63.5t-59.5 47.5t-97 18.5h-162q-14 0 -14 16z" />
<glyph unicode="&#x40c;" horiz-adv-x="1318" d="M129 16v1370q0 14 14 15h240q16 0 16 -15v-1370q0 -16 -16 -16h-240q-14 0 -14 16zM434 803q-6 10 2 18l520 574q6 6 11 6h301q10 0 15 -8.5t-3 -16.5l-690 -762q-14 -14 -27 0zM502 1540l264 303q4 6 12 2l215 -119q12 -8 2 -16l-377 -266q-6 -6 -12 0l-102 82 q-10 6 -2 14zM643 500q-6 10 2 18l162 176q16 16 27 -2l446 -667q6 -10 1 -17.5t-15 -7.5h-283q-10 0 -14 8z" />
<glyph unicode="&#x40e;" horiz-adv-x="1265" d="M33 1380q-4 8 0 14.5t14 6.5h268q8 0 15 -10l260 -580q6 -6 0 -12l-127 -297q-4 -10 -13.5 -10t-13.5 10zM369 1765q0 10 10 11h184q10 0 10 -11q-2 -66 21.5 -93t60.5 -27t60.5 27.5t21.5 92.5q0 10 11 11h184q10 0 10 -11q0 -66 -18.5 -122t-54 -98t-90 -65.5 t-124.5 -23.5q-72 0 -125 23.5t-88.5 65.5t-54 98.5t-18.5 121.5zM389 23l553 1368q4 10 14 10h250q23 0 15 -21l-551 -1370q-4 -10 -15 -10h-252q-23 0 -14 23z" />
<glyph unicode="&#x40f;" horiz-adv-x="1361" d="M178 16v1370q0 14 15 15h235q16 0 16 -15v-1118h758q16 0 17 -16v-236q0 -16 -17 -16h-360v-279q0 -16 -17 -16h-239q-16 0 -17 16v279h-376q-14 0 -15 16zM930 375v1011q0 14 16 15h246q16 0 16 -15v-1011q0 -16 -16 -17h-246q-16 0 -16 17z" />
<glyph unicode="&#x410;" horiz-adv-x="1267" d="M29 18l379 1229q4 12 16 12.5t16 -12.5l125 -397l-108 -338h196q12 0 17 -12l71 -236q4 -8 -1 -14t-15 -6h-344q-16 -57 -35.5 -116.5t-36.5 -117.5q-4 -12 -16 -12h-248q-10 0 -15 6t-1 14zM510 1384q-4 6 1 12.5t15 6.5h242q12 0 16 -12l426 -1373q4 -20 -16 -20h-250 q-10 0 -14 12z" />
<glyph unicode="&#x411;" horiz-adv-x="1216" d="M125 16v1370q0 14 14 15h240q16 0 16 -15v-1370q0 -16 -16 -16h-240q-14 0 -14 16zM496 16v224q0 16 16 16h190q88 0 135.5 56.5t47.5 127.5q0 68 -46 122t-137 54h-190q-16 0 -16 17v225q0 16 16 16h184q96 0 177 -31.5t140.5 -88t92.5 -136t33 -178.5v-6 q0 -98 -33 -179t-92.5 -137.5t-140 -87t-177.5 -30.5h-184q-16 0 -16 16zM508 1149v237q0 14 16 15h455q16 0 16 -15v-237q0 -16 -16 -16h-455q-16 0 -16 16z" />
<glyph unicode="&#x412;" horiz-adv-x="1273" d="M139 16v1373q0 14 15 14h239q16 0 17 -14v-1373q0 -16 -17 -16h-239q-14 0 -15 16zM512 16v222q0 16 16 16h215q66 0 110 51t44 117v10q0 31 -11.5 61.5t-31.5 55t-49 39t-62 14.5h-215q-16 0 -16 16v228q0 14 16 14h195q72 0 109.5 39t37.5 96v13q0 53 -34.5 92 t-112.5 39h-195q-16 0 -16 16v234q0 14 16 14h177q197 0 310 -102t113 -297q0 -86 -40.5 -155t-88.5 -106q82 -53 119 -135t37 -174q0 -100 -30.5 -180t-86 -136.5t-134.5 -87t-177 -30.5h-199q-16 0 -16 16z" />
<glyph unicode="&#x413;" horiz-adv-x="1079" d="M129 16v1370q0 14 16 15h246q16 0 17 -15v-1370q0 -16 -17 -16h-246q-16 0 -16 16zM514 1149v237q0 14 16 15h531q16 0 16 -15v-237q0 -16 -16 -16h-531q-16 0 -16 16z" />
<glyph unicode="&#x414;" horiz-adv-x="1282" d="M20 16v234q0 16 17 16h104l301 981q4 12 16.5 12.5t16.5 -12.5l127 -397l-178 -584h833q16 0 17 -16v-234q0 -16 -17 -16h-1220q-16 0 -17 16zM545 1384q-4 6 1 12.5t15 6.5h244q12 0 16 -12l316 -1012q4 -8 -1.5 -14.5t-15.5 -6.5h-248q-12 0 -16 13z" />
<glyph unicode="&#x415;" horiz-adv-x="1159" d="M137 16v1370q0 14 17 15h243q16 0 17 -15v-1370q0 -16 -17 -16h-243q-16 0 -17 16zM518 16v236q0 16 17 16h532q16 0 16 -16v-236q0 -16 -16 -16h-532q-16 0 -17 16zM518 580v235q0 16 17 16h399q16 0 16 -16v-235q0 -16 -16 -17h-399q-16 0 -17 17zM518 1149v237 q0 14 17 15h532q16 0 16 -15v-237q0 -16 -16 -16h-532q-16 0 -17 16z" />
<glyph unicode="&#x416;" horiz-adv-x="2019" d="M22 1393.5q5 7.5 15 7.5h291q6 0 12 -6l487 -570q6 -6 2 -18l-116 -201q-4 -8 -12.5 -8t-14.5 6l-661 772q-8 10 -3 17.5zM45 7q-4 7 0 18l401 661q10 18 27 2l166 -192q10 -4 2 -17l-289 -471q-4 -8 -14 -8h-279q-10 0 -14 7zM866 16v1370q0 14 15 15h239q16 0 17 -15 v-1370q0 -16 -17 -16h-239q-14 0 -15 16zM1174 807q-4 12 2 18l493 570q6 6 12 6h287q10 0 14.5 -7.5t-4.5 -17.5l-661 -772q-6 -6 -14.5 -6t-12.5 8zM1362 479q-8 12 2 17l166 192q16 16 26 -2l404 -661q4 -10 0 -17.5t-14 -7.5h-281q-10 0 -14 8z" />
<glyph unicode="&#x417;" d="M131 289q-2 4 0 9t6 9l195 107q8 4 15 2t9 -13q6 -35 25.5 -63.5t44.5 -49t52.5 -31.5t51.5 -11h9q16 0 16 -17v-227q0 -16 -16 -16h-9q-74 0 -139 23.5t-117.5 65.5t-89.5 96t-53 116zM133 1098q23 61 60.5 114.5t89 94.5t114 64.5t133.5 23.5h9q16 0 16 -15v-227 q0 -16 -16 -16h-9q-49 0 -99 -45t-81 -115q-6 -16 -22 -8l-191 108q-8 8 -4 21zM580 600v229q0 16 14 17h72q78 0 129 39t51 119q0 55 -47 95t-115 40h-10q-14 0 -15 16v227q0 14 15 15h10q102 0 183 -35t137.5 -90t86 -127t29.5 -146q0 -84 -42 -160.5t-113 -121.5 q49 -25 81.5 -58.5t52 -74.5t28 -85t8.5 -87q0 -72 -29 -147t-85 -135t-139 -99t-194 -39h-10q-14 0 -14 16v225q0 16 14 17q31 0 63.5 12t59 34.5t43 53.5t16.5 66q0 45 -16.5 76.5t-42 52t-59 30t-70.5 9.5h-78q-14 0 -14 16z" />
<glyph unicode="&#x418;" horiz-adv-x="1355" d="M129 14v144l862 1237q2 4 6 5t9 1h200q16 0 17 -15v-165l-854 -1217q-4 -6 -15 -6h-209q-16 0 -16 16zM129 389v997q0 14 16 15h236q16 0 16 -15v-665l-239 -342q-8 -10 -18.5 -6t-10.5 16zM952 14v645l240 340q8 10 19.5 6t11.5 -16v-975q0 -16 -17 -16h-239 q-14 0 -15 16z" />
<glyph unicode="&#x419;" horiz-adv-x="1355" d="M129 14v144l862 1237q2 4 6 5t9 1h200q16 0 17 -15v-165l-854 -1217q-4 -6 -15 -6h-209q-16 0 -16 16zM129 389v997q0 14 16 15h236q16 0 16 -15v-665l-239 -342q-8 -10 -18.5 -6t-10.5 16zM381 1765q0 10 10 11h184q10 0 11 -11q-2 -66 21.5 -93t60.5 -27t60.5 27.5 t21.5 92.5q0 10 10 11h184q10 0 10 -11q0 -66 -18 -122t-54 -98t-90 -65.5t-124 -23.5q-72 0 -125.5 23.5t-89 65.5t-54 98.5t-18.5 121.5zM952 14v645l240 340q8 10 19.5 6t11.5 -16v-975q0 -16 -17 -16h-239q-14 0 -15 16z" />
<glyph unicode="&#x41a;" horiz-adv-x="1318" d="M129 16v1370q0 14 14 15h240q16 0 16 -15v-1370q0 -16 -16 -16h-240q-14 0 -14 16zM434 803q-6 10 2 18l520 574q6 6 11 6h301q10 0 15 -8.5t-3 -16.5l-690 -762q-14 -14 -27 0zM643 500q-6 10 2 18l162 176q16 16 27 -2l446 -667q6 -10 1 -17.5t-15 -7.5h-283 q-10 0 -14 8z" />
<glyph unicode="&#x41b;" horiz-adv-x="1247" d="M27 20l424 1373q4 12 16 12h244q10 0 15 -6t1 -13l-420 -1374q-4 -12 -16 -12h-248q-10 0 -15 6t-1 14zM672 852l123 397q4 12 16 12.5t16 -12.5l381 -1229q4 -8 -1 -14t-15 -6h-248q-12 0 -16 12z" />
<glyph unicode="&#x41c;" horiz-adv-x="1406" d="M139 16v1039q0 12 10.5 16t18.5 -6l240 -315v-734q0 -16 -17 -16h-235q-16 0 -17 16zM139 1282v104q0 14 17 15h211q6 0 12 -6l479 -635q6 -10 0 -21l-141 -192q-4 -8 -12.5 -8t-12.5 8zM776 1042q-6 10 0 21l248 332q6 6 12 6h215q16 0 17 -15v-1370q0 -16 -17 -16h-235 q-14 0 -15 16v916l-57 -80q-4 -6 -11 -5t-11 5z" />
<glyph unicode="&#x41d;" horiz-adv-x="1306" d="M139 16v1370q0 14 17 15h233q16 0 17 -15v-555h182q16 0 16 -16v-237q0 -16 -16 -17h-182v-545q0 -16 -17 -16h-233q-16 0 -17 16zM707 578v237q0 16 16 16h166v555q0 14 16 15h246q16 0 16 -15v-1370q0 -16 -16 -16h-246q-16 0 -16 16v545h-166q-16 0 -16 17z" />
<glyph unicode="&#x41e;" horiz-adv-x="1327" d="M129 451v489q0 82 34 163t94 145.5t144 105.5t187 41h10q16 0 16 -15v-225q0 -16 -16 -16h-10q-45 0 -82 -16.5t-62.5 -44t-40 -63.5t-14.5 -75v-496q0 -43 17.5 -79.5t45 -63.5t63.5 -42t73 -15h10q16 0 16 -17v-219q0 -16 -16 -16h-10q-104 0 -189.5 40t-144.5 105.5 t-92 147.5t-33 166zM715 8v219q0 16 16 17h8q37 0 72 14t62.5 41t45 63.5t17.5 81.5v496q0 86 -52.5 142.5t-144.5 56.5h-8q-16 0 -16 16v225q0 14 16 15h8q106 0 192.5 -41t145 -105.5t90 -145.5t31.5 -163v-489q0 -84 -30.5 -166t-90 -147.5t-144.5 -105.5t-194 -40h-8 q-16 0 -16 16z" />
<glyph unicode="&#x41f;" horiz-adv-x="1304" d="M141 16v1370q0 14 17 15h233q16 0 17 -15v-1370q0 -16 -17 -16h-233q-16 0 -17 16zM514 1147v239q0 14 14 15h625q16 0 16 -15v-1370q0 -16 -16 -16h-246q-16 0 -16 16v1114h-363q-14 0 -14 17z" />
<glyph unicode="&#x420;" horiz-adv-x="1140" d="M137 16v1370q0 14 17 15h239q14 0 15 -15v-1370q0 -16 -15 -16h-239q-16 0 -17 16zM510 543v231q0 16 16 17h142q90 0 136 52t46 124q0 68 -46 118t-136 50h-142q-16 0 -16 16v235q0 14 16 15h138q96 0 177 -32t140 -88t92 -136t33 -178v-6q0 -98 -33 -179.5t-92 -137.5 t-140 -87t-177 -31h-138q-16 0 -16 17z" />
<glyph unicode="&#x421;" horiz-adv-x="1316" d="M129 451v489q0 82 36 163t98.5 145.5t146.5 105.5t178 41h10q16 0 16 -15v-225q0 -16 -16 -16h-10q-31 0 -66 -17.5t-64.5 -45t-49 -62.5t-19.5 -72v-496q0 -43 19.5 -78.5t49 -61t64.5 -40t66 -14.5h10q16 0 16 -16v-228q0 -16 -16 -16h-10q-96 0 -180 40t-145.5 105.5 t-97.5 147.5t-36 166zM715 8v228q0 16 16 16h8q31 0 66 13.5t63.5 39t48 61t19.5 80.5v21q0 16 16 16h230q16 0 16 -16v-16q0 -84 -36 -166t-97 -147.5t-145 -105.5t-181 -40h-8q-16 0 -16 16zM715 1155v225q0 14 16 15h8q96 0 180.5 -41t145.5 -105.5t97 -145.5t36 -163 v-14q0 -16 -16 -17h-230q-16 0 -16 17v16q0 41 -19.5 77t-48 62.5t-63.5 42t-66 15.5h-8q-16 0 -16 16z" />
<glyph unicode="&#x422;" horiz-adv-x="1007" d="M35 1149v237q0 14 16 15h905q16 0 17 -15v-237q0 -16 -17 -16h-905q-16 0 -16 16zM373 16v998q0 16 16 16h236q14 0 14 -16v-998q0 -16 -14 -16h-236q-16 0 -16 16z" />
<glyph unicode="&#x423;" horiz-adv-x="1265" d="M33 1380q-4 8 0 14.5t14 6.5h268q8 0 15 -10l260 -580q6 -6 0 -12l-127 -297q-4 -10 -13.5 -10t-13.5 10zM389 23l553 1368q4 10 14 10h250q23 0 15 -21l-551 -1370q-4 -10 -15 -10h-252q-23 0 -14 23z" />
<glyph unicode="&#x424;" horiz-adv-x="1636" d="M131 594v266q0 82 29.5 164t84 147.5t131.5 106.5t173 41h10q16 0 16 -16v-228q0 -16 -16 -16h-10q-31 0 -58.5 -15.5t-50 -42t-36 -62.5t-13.5 -75v-276q0 -43 13.5 -78t36 -60.5t50 -39t58.5 -13.5h10q16 0 16 -16v-229q0 -16 -16 -17h-10q-96 0 -173 41t-131.5 105.5 t-84 146.5t-29.5 166zM678 16v1370q0 14 14 15h238q16 0 16 -15v-1370q0 -16 -16 -16h-238q-14 0 -14 16zM1055 152l6 229q0 16 16 16q61 0 108.5 52.5t47.5 138.5v276q0 88 -48 141.5t-114 53.5q-16 0 -16 16l6 228q0 16 16 16q96 0 174 -40t132.5 -105.5t84 -147.5 t29.5 -166v-266q0 -84 -29.5 -166t-85 -146.5t-134.5 -105.5t-177 -41q-16 0 -16 17z" />
<glyph unicode="&#x425;" horiz-adv-x="1265" d="M-9 7q-5 7 1 18l383 569q4 8 14 9t14 -7l144 -213q8 -10 0 -18l-238 -357q-4 -8 -14 -8h-289q-10 0 -15 7zM5 1393.5q5 7.5 15 7.5h287q8 0 12 -8l922 -1368q6 -10 1 -17.5t-15 -7.5h-287q-10 0 -14 8l-920 1370q-6 8 -1 15.5zM684 1040q-4 8 0 17l225 336q4 8 15 8h286 q10 0 14.5 -7.5t-1.5 -15.5l-369 -549q-4 -8 -13.5 -8t-13.5 8z" />
<glyph unicode="&#x426;" horiz-adv-x="1361" d="M127 16v236q0 16 14 16h1145q14 0 14 -16v-236q0 -16 -14 -16h-1145q-14 0 -14 16zM127 375v1011q0 14 14 15h236q16 0 16 -15v-1011q0 -16 -16 -17h-236q-14 0 -14 17zM879 375v1011q0 14 16 15h246q16 0 16 -15v-1011q0 -16 -16 -17h-246q-16 0 -16 17z" />
<glyph unicode="&#x427;" horiz-adv-x="1175" d="M68 967v419q0 14 16 15h223q16 0 17 -15v-413q0 -33 8 -68t29.5 -63.5t59.5 -47t97 -18.5h162q14 0 14 -14v-219q0 -16 -14 -17h-170q-121 0 -205 36t-136 96.5t-76.5 140.5t-24.5 168zM803 16v1373q0 14 16 14h234q16 0 16 -14v-1373q0 -16 -16 -16h-234q-16 0 -16 16z " />
<glyph unicode="&#x428;" horiz-adv-x="1961" d="M127 16v232q0 16 14 16h1641q16 0 16 -16v-232q0 -16 -16 -16h-1641q-14 0 -14 16zM127 375v1011q0 14 14 15h236q16 0 16 -15v-1011q0 -16 -16 -17h-236q-14 0 -14 17zM817 375v1011q0 14 17 15h245q16 0 17 -15v-1011q0 -16 -17 -17h-245q-16 0 -17 17zM1520 375v1011 q0 14 16 15h246q16 0 16 -15v-1011q0 -16 -16 -17h-246q-16 0 -16 17z" />
<glyph unicode="&#x429;" horiz-adv-x="1986" d="M127 16v236q0 16 14 16h1786q14 0 15 -16v-236q0 -16 -15 -16h-1786q-14 0 -14 16zM127 375v1011q0 14 14 15h236q16 0 16 -15v-1011q0 -16 -16 -17h-236q-14 0 -14 17zM817 375v1011q0 14 17 15h245q16 0 17 -15v-1011q0 -16 -17 -17h-245q-16 0 -17 17zM1520 375v1011 q0 14 16 15h246q16 0 16 -15v-1011q0 -16 -16 -17h-246q-16 0 -16 17z" />
<glyph unicode="&#x42a;" horiz-adv-x="1359" d="M8 1171v215q0 14 17 15h528q16 0 16 -15v-1370q0 -16 -16 -16h-240q-14 0 -14 16v1139h-274q-16 0 -17 16zM672 16v224q0 16 14 16h191q88 0 135 56.5t47 127.5q0 68 -46 122t-136 54h-191q-14 0 -14 17v225q0 16 14 16h184q96 0 177 -31.5t140.5 -88t92.5 -136 t33 -178.5v-6q0 -98 -33 -179t-92.5 -137.5t-140 -87t-177.5 -30.5h-184q-14 0 -14 16z" />
<glyph unicode="&#x42b;" horiz-adv-x="1632" d="M125 16v1370q0 14 14 15h240q16 0 16 -15v-1370q0 -16 -16 -16h-240q-14 0 -14 16zM496 16v224q0 16 16 16h190q88 0 135.5 56.5t47.5 127.5q0 68 -46 122t-137 54h-190q-16 0 -16 17v225q0 16 16 16h184q96 0 177 -31.5t140.5 -88t92.5 -136t33 -178.5v-6 q0 -98 -33 -179t-92.5 -137.5t-140 -87t-177.5 -30.5h-184q-16 0 -16 16zM1204 16v1370q0 14 15 15h237q16 0 17 -15v-1370q0 -16 -17 -16h-237q-14 0 -15 16z" />
<glyph unicode="&#x42c;" horiz-adv-x="1200" d="M125 16v1370q0 14 14 15h240q16 0 16 -15v-1370q0 -16 -16 -16h-240q-14 0 -14 16zM496 16v224q0 16 16 16h190q88 0 135.5 56.5t47.5 127.5q0 68 -46 122t-137 54h-190q-16 0 -16 17v225q0 16 16 16h184q96 0 177 -31.5t140.5 -88t92.5 -136t33 -178.5v-6 q0 -98 -33 -179t-92.5 -137.5t-140 -87t-177.5 -30.5h-184q-16 0 -16 16z" />
<glyph unicode="&#x42d;" horiz-adv-x="1275" d="M98 250q-6 14 6 22l193 121q12 10 20 -8q25 -61 80.5 -97t106.5 -36h8q16 0 16 -16v-228q0 -16 -16 -16h-8q-68 0 -129.5 20.5t-113.5 55t-94 82t-69 100.5zM113 1163q59 98 161.5 165t229.5 67h8q16 0 16 -15v-225q0 -16 -16 -16h-8q-45 0 -97.5 -33t-80.5 -88 q-6 -18 -23 -6l-184 129q-12 8 -6 22zM289 608v215q0 16 16 17h424q16 0 16 -17v-215q0 -16 -16 -16h-424q-16 0 -16 16zM631 8v228q0 16 16 16h10q82 0 139.5 53t57.5 141v496q0 86 -56.5 141.5t-140.5 55.5h-10q-16 0 -16 16v225q0 14 16 15h10q106 0 192.5 -37 t145 -100.5t90 -145.5t31.5 -172v-489q0 -84 -31.5 -166t-91 -147.5t-144.5 -105.5t-192 -40h-10q-16 0 -16 16z" />
<glyph unicode="&#x42e;" horiz-adv-x="1857" d="M125 16v1370q0 14 14 15h236q16 0 16 -15v-555h170q16 0 17 -16v-237q0 -16 -17 -17h-170v-545q0 -16 -16 -16h-236q-14 0 -14 16zM676 451v489q0 82 36 163t98 145.5t146 105.5t179 41h10q16 0 16 -15v-227q0 -16 -16 -16h-10q-31 0 -66 -15.5t-63.5 -42t-48 -62.5 t-19.5 -75v-496q0 -43 19.5 -78.5t48 -61t63.5 -40t66 -14.5h10q16 0 16 -16v-228q0 -16 -16 -16h-10q-96 0 -180.5 40t-145.5 105.5t-97 147.5t-36 166zM1264 8v228q0 16 16 16h8q31 0 64.5 13.5t63.5 39t48.5 61t18.5 80.5v496q0 43 -18.5 79t-48.5 61.5t-63.5 40 t-64.5 14.5h-8q-16 0 -16 16v227q0 14 16 15h8q96 0 180 -41t145.5 -105.5t97.5 -145.5t36 -163v-489q0 -84 -36 -166t-97.5 -147.5t-145.5 -105.5t-180 -40h-8q-16 0 -16 16z" />
<glyph unicode="&#x42f;" horiz-adv-x="1234" d="M79 7q-5 7 1 18l326 528q-141 41 -221.5 148.5t-80.5 269.5q0 96 33 176t90.5 136t137 87t176.5 31h188q16 0 16 -15v-233q0 -16 -16 -16h-192q-88 0 -134.5 -50.5t-46.5 -121.5q0 -66 46.5 -117t134.5 -51h192q16 0 16 -17v-229q0 -16 -16 -16h-41l-323 -527 q-4 -8 -13 -8h-258q-10 0 -15 7zM852 16v1370q0 14 16 15h240q16 0 16 -15v-1370q0 -16 -16 -16h-240q-16 0 -16 16z" />
<glyph unicode="&#x430;" horiz-adv-x="1267" d="M29 20l379 1229q4 12 16 12.5t16 -12.5l125 -397l-108 -338h196q12 0 17 -12l71 -236q4 -8 -1 -14t-15 -6h-344q-16 -57 -35.5 -116.5t-36.5 -117.5q-4 -12 -16 -12h-248q-10 0 -15 6t-1 14zM510 1386q-4 6 1 12.5t15 6.5h242q12 0 16 -12l426 -1373q4 -20 -16 -20h-250 q-10 0 -14 12z" />
<glyph unicode="&#x431;" horiz-adv-x="1216" d="M125 16v1370q0 14 14 15h240q16 0 16 -15v-1370q0 -16 -16 -16h-240q-14 0 -14 16zM496 16v224q0 16 16 16h190q88 0 135.5 56.5t47.5 127.5q0 68 -46 122t-137 54h-190q-16 0 -16 17v225q0 16 16 16h184q96 0 177 -31.5t140.5 -88t92.5 -136t33 -178.5v-6 q0 -98 -33 -179t-92.5 -137.5t-140 -87t-177.5 -30.5h-184q-16 0 -16 16zM508 1149v237q0 14 16 15h455q16 0 16 -15v-237q0 -16 -16 -16h-455q-16 0 -16 16z" />
<glyph unicode="&#x432;" horiz-adv-x="1273" d="M139 16v1373q0 14 15 14h239q16 0 17 -14v-1373q0 -16 -17 -16h-239q-14 0 -15 16zM512 16v222q0 16 16 16h215q66 0 110 51t44 117v10q0 31 -11.5 61.5t-31.5 55t-49 39t-62 14.5h-215q-16 0 -16 16v228q0 14 16 14h195q72 0 109.5 39t37.5 96v13q0 53 -34.5 92 t-112.5 39h-195q-16 0 -16 16v234q0 14 16 14h177q197 0 310 -102t113 -297q0 -86 -40.5 -155t-88.5 -106q82 -53 119 -135t37 -174q0 -100 -30.5 -180t-86 -136.5t-134.5 -87t-177 -30.5h-199q-16 0 -16 16z" />
<glyph unicode="&#x433;" horiz-adv-x="1079" d="M129 16v1370q0 14 16 15h246q16 0 17 -15v-1370q0 -16 -17 -16h-246q-16 0 -16 16zM514 1149v237q0 14 16 15h531q16 0 16 -15v-237q0 -16 -16 -16h-531q-16 0 -16 16z" />
<glyph unicode="&#x434;" horiz-adv-x="1427" d="M72 -238v488q0 16 16 16h1253q14 0 15 -16v-488q0 -16 -15 -16h-221q-16 0 -16 16v238h-764v-238q0 -16 -16 -16h-236q-16 0 -16 16zM213 369v577q0 88 29.5 170t89 146.5t148.5 102.5t206 36l156 -2q16 0 16 -15v-231q0 -16 -16 -16h-166q-98 0 -146.5 -58.5 t-48.5 -136.5v-573q0 -16 -16 -17h-238q-14 0 -14 17zM963 369v1017q0 14 14 15h248q16 0 16 -15v-1017q0 -16 -16 -17h-248q-14 0 -14 17z" />
<glyph unicode="&#x435;" horiz-adv-x="1159" d="M137 16v1370q0 14 17 15h243q16 0 17 -15v-1370q0 -16 -17 -16h-243q-16 0 -17 16zM518 16v236q0 16 17 16h532q16 0 16 -16v-236q0 -16 -16 -16h-532q-16 0 -17 16zM518 580v235q0 16 17 16h399q16 0 16 -16v-235q0 -16 -16 -17h-399q-16 0 -17 17zM518 1149v237 q0 14 17 15h532q16 0 16 -15v-237q0 -16 -16 -16h-532q-16 0 -17 16z" />
<glyph unicode="&#x436;" horiz-adv-x="2019" d="M22 1393.5q5 7.5 15 7.5h291q6 0 12 -6l487 -570q6 -6 2 -18l-116 -201q-4 -8 -12.5 -8t-14.5 6l-661 772q-8 10 -3 17.5zM45 7q-4 7 0 18l401 661q10 18 27 2l166 -192q10 -4 2 -17l-289 -471q-4 -8 -14 -8h-279q-10 0 -14 7zM866 16v1370q0 14 15 15h239q16 0 17 -15 v-1370q0 -16 -17 -16h-239q-14 0 -15 16zM1174 807q-4 12 2 18l493 570q6 6 12 6h287q10 0 14.5 -7.5t-4.5 -17.5l-661 -772q-6 -6 -14.5 -6t-12.5 8zM1362 479q-8 12 2 17l166 192q16 16 26 -2l404 -661q4 -10 0 -17.5t-14 -7.5h-281q-10 0 -14 8z" />
<glyph unicode="&#x437;" d="M131 289q-2 4 0 9t6 9l195 107q8 4 15 2t9 -13q6 -35 25.5 -63.5t44.5 -49t52.5 -31.5t51.5 -11h9q16 0 16 -17v-227q0 -16 -16 -16h-9q-74 0 -139 23.5t-117.5 65.5t-89.5 96t-53 116zM133 1098q23 61 60.5 114.5t89 94.5t114 64.5t133.5 23.5h9q16 0 16 -15v-227 q0 -16 -16 -16h-9q-49 0 -99 -45t-81 -115q-6 -16 -22 -8l-191 108q-8 8 -4 21zM580 600v229q0 16 14 17h72q78 0 129 39t51 119q0 55 -47 95t-115 40h-10q-14 0 -15 16v227q0 14 15 15h10q102 0 183 -35t137.5 -90t86 -127t29.5 -146q0 -84 -42 -160.5t-113 -121.5 q49 -25 81.5 -58.5t52 -74.5t28 -85t8.5 -87q0 -72 -29 -147t-85 -135t-139 -99t-194 -39h-10q-14 0 -14 16v225q0 16 14 17q31 0 63.5 12t59 34.5t43 53.5t16.5 66q0 45 -16.5 76.5t-42 52t-59 30t-70.5 9.5h-78q-14 0 -14 16z" />
<glyph unicode="&#x438;" horiz-adv-x="1355" d="M129 14v144l862 1237q2 4 6 5t9 1h200q16 0 17 -15v-165l-854 -1217q-4 -6 -15 -6h-209q-16 0 -16 16zM129 389v997q0 14 16 15h236q16 0 16 -15v-665l-239 -342q-8 -10 -18.5 -6t-10.5 16zM952 14v645l240 340q8 10 19.5 6t11.5 -16v-975q0 -16 -17 -16h-239 q-14 0 -15 16z" />
<glyph unicode="&#x439;" horiz-adv-x="1355" d="M129 14v144l862 1237q2 4 6 5t9 1h200q16 0 17 -15v-165l-854 -1217q-4 -6 -15 -6h-209q-16 0 -16 16zM129 389v997q0 14 16 15h236q16 0 16 -15v-665l-239 -342q-8 -10 -18.5 -6t-10.5 16zM381 1765q0 10 10 11h184q10 0 11 -11q-2 -66 21.5 -93t60.5 -27t60.5 27.5 t21.5 92.5q0 10 10 11h184q10 0 10 -11q0 -66 -18 -122t-54 -98t-90 -65.5t-124 -23.5q-72 0 -125.5 23.5t-89 65.5t-54 98.5t-18.5 121.5zM952 14v645l240 340q8 10 19.5 6t11.5 -16v-975q0 -16 -17 -16h-239q-14 0 -15 16z" />
<glyph unicode="&#x43a;" horiz-adv-x="1318" d="M129 16v1370q0 14 14 15h240q16 0 16 -15v-1370q0 -16 -16 -16h-240q-14 0 -14 16zM434 803q-6 10 2 18l520 574q6 6 11 6h301q10 0 15 -8.5t-3 -16.5l-690 -762q-14 -14 -27 0zM643 500q-6 10 2 18l162 176q16 16 27 -2l446 -667q6 -10 1 -17.5t-15 -7.5h-283 q-10 0 -14 8z" />
<glyph unicode="&#x43b;" horiz-adv-x="1284" d="M41 -2v227q0 16 16 17h9q80 0 134 57t54 174v494q0 98 31.5 178t88 136t136.5 88t176 32h62q16 0 16 -15v-231q0 -16 -16 -16h-62q-45 0 -76.5 -15.5t-52 -40t-30 -56.5t-9.5 -64v-517q0 -217 -119.5 -340.5t-332.5 -123.5h-9q-16 0 -16 16zM868 16v1370q0 14 17 15h243 q16 0 17 -15v-1370q0 -16 -17 -16h-243q-16 0 -17 16z" />
<glyph unicode="&#x43c;" horiz-adv-x="1406" d="M139 16v1039q0 12 10.5 16t18.5 -6l240 -315v-734q0 -16 -17 -16h-235q-16 0 -17 16zM139 1282v104q0 14 17 15h211q6 0 12 -6l479 -635q6 -10 0 -21l-141 -192q-4 -8 -12.5 -8t-12.5 8zM776 1042q-6 10 0 21l248 332q6 6 12 6h215q16 0 17 -15v-1370q0 -16 -17 -16h-235 q-14 0 -15 16v916l-57 -80q-4 -6 -11 -5t-11 5z" />
<glyph unicode="&#x43d;" horiz-adv-x="1306" d="M139 16v1370q0 14 17 15h233q16 0 17 -15v-555h182q16 0 16 -16v-237q0 -16 -16 -17h-182v-545q0 -16 -17 -16h-233q-16 0 -17 16zM707 578v237q0 16 16 16h166v555q0 14 16 15h246q16 0 16 -15v-1370q0 -16 -16 -16h-246q-16 0 -16 16v545h-166q-16 0 -16 17z" />
<glyph unicode="&#x43e;" horiz-adv-x="1327" d="M129 451v489q0 82 34 163t94 145.5t144 105.5t187 41h10q16 0 16 -15v-225q0 -16 -16 -16h-10q-45 0 -82 -16.5t-62.5 -44t-40 -63.5t-14.5 -75v-496q0 -43 17.5 -79.5t45 -63.5t63.5 -42t73 -15h10q16 0 16 -17v-219q0 -16 -16 -16h-10q-104 0 -189.5 40t-144.5 105.5 t-92 147.5t-33 166zM715 8v219q0 16 16 17h8q37 0 72 14t62.5 41t45 63.5t17.5 81.5v496q0 86 -52.5 142.5t-144.5 56.5h-8q-16 0 -16 16v225q0 14 16 15h8q106 0 192.5 -41t145 -105.5t90 -145.5t31.5 -163v-489q0 -84 -30.5 -166t-90 -147.5t-144.5 -105.5t-194 -40h-8 q-16 0 -16 16z" />
<glyph unicode="&#x43f;" horiz-adv-x="1304" d="M141 16v1370q0 14 17 15h233q16 0 17 -15v-1370q0 -16 -17 -16h-233q-16 0 -17 16zM514 1147v239q0 14 14 15h625q16 0 16 -15v-1370q0 -16 -16 -16h-246q-16 0 -16 16v1114h-363q-14 0 -14 17z" />
<glyph unicode="&#x440;" horiz-adv-x="1140" d="M137 16v1370q0 14 17 15h239q14 0 15 -15v-1370q0 -16 -15 -16h-239q-16 0 -17 16zM510 543v231q0 16 16 17h142q90 0 136 52t46 124q0 68 -46 118t-136 50h-142q-16 0 -16 16v235q0 14 16 15h138q96 0 177 -32t140 -88t92 -136t33 -178v-6q0 -98 -33 -179.5t-92 -137.5 t-140 -87t-177 -31h-138q-16 0 -16 17z" />
<glyph unicode="&#x441;" horiz-adv-x="1316" d="M129 451v489q0 82 36 163t98.5 145.5t146.5 105.5t178 41h10q16 0 16 -15v-225q0 -16 -16 -16h-10q-31 0 -66 -17.5t-64.5 -45t-49 -62.5t-19.5 -72v-496q0 -43 19.5 -78.5t49 -61t64.5 -40t66 -14.5h10q16 0 16 -16v-228q0 -16 -16 -16h-10q-96 0 -180 40t-145.5 105.5 t-97.5 147.5t-36 166zM715 8v228q0 16 16 16h8q31 0 66 13.5t63.5 39t48 61t19.5 80.5v21q0 16 16 16h230q16 0 16 -16v-16q0 -84 -36 -166t-97 -147.5t-145 -105.5t-181 -40h-8q-16 0 -16 16zM715 1155v225q0 14 16 15h8q96 0 180.5 -41t145.5 -105.5t97 -145.5t36 -163 v-14q0 -16 -16 -17h-230q-16 0 -16 17v16q0 41 -19.5 77t-48 62.5t-63.5 42t-66 15.5h-8q-16 0 -16 16z" />
<glyph unicode="&#x442;" horiz-adv-x="1007" d="M35 1149v237q0 14 16 15h905q16 0 17 -15v-237q0 -16 -17 -16h-905q-16 0 -16 16zM373 16v998q0 16 16 16h236q14 0 14 -16v-998q0 -16 -14 -16h-236q-16 0 -16 16z" />
<glyph unicode="&#x443;" horiz-adv-x="1265" d="M33 1380q-4 8 0 14.5t14 6.5h268q8 0 15 -10l260 -580q6 -6 0 -12l-127 -297q-4 -10 -13.5 -10t-13.5 10zM389 23l553 1368q4 10 14 10h250q23 0 15 -21l-551 -1370q-4 -10 -15 -10h-252q-23 0 -14 23z" />
<glyph unicode="&#x444;" horiz-adv-x="1636" d="M131 594v266q0 82 29.5 164t84 147.5t131.5 106.5t173 41h10q16 0 16 -16v-228q0 -16 -16 -16h-10q-31 0 -58.5 -15.5t-50 -42t-36 -62.5t-13.5 -75v-276q0 -43 13.5 -78t36 -60.5t50 -39t58.5 -13.5h10q16 0 16 -16v-229q0 -16 -16 -17h-10q-96 0 -173 41t-131.5 105.5 t-84 146.5t-29.5 166zM678 16v1370q0 14 14 15h238q16 0 16 -15v-1370q0 -16 -16 -16h-238q-14 0 -14 16zM1055 152l6 229q0 16 16 16q61 0 108.5 52.5t47.5 138.5v276q0 88 -48 141.5t-114 53.5q-16 0 -16 16l6 228q0 16 16 16q96 0 174 -40t132.5 -105.5t84 -147.5 t29.5 -166v-266q0 -84 -29.5 -166t-85 -146.5t-134.5 -105.5t-177 -41q-16 0 -16 17z" />
<glyph unicode="&#x445;" horiz-adv-x="1265" d="M-9 7q-5 7 1 18l383 569q4 8 14 9t14 -7l144 -213q8 -10 0 -18l-238 -357q-4 -8 -14 -8h-289q-10 0 -15 7zM5 1393.5q5 7.5 15 7.5h287q8 0 12 -8l922 -1368q6 -10 1 -17.5t-15 -7.5h-287q-10 0 -14 8l-920 1370q-6 8 -1 15.5zM684 1040q-4 8 0 17l225 336q4 8 15 8h286 q10 0 14.5 -7.5t-1.5 -15.5l-369 -549q-4 -8 -13.5 -8t-13.5 8z" />
<glyph unicode="&#x446;" horiz-adv-x="1361" d="M127 16v232q0 16 14 16h1145q14 0 14 -16v-527q0 -16 -14 -16h-248q-14 0 -14 16v279h-883q-14 0 -14 16zM127 375v1011q0 14 14 15h236q16 0 16 -15v-1011q0 -16 -16 -17h-236q-14 0 -14 17zM879 375v1011q0 14 16 15h246q16 0 16 -15v-1011q0 -16 -16 -17h-246 q-16 0 -16 17z" />
<glyph unicode="&#x447;" horiz-adv-x="1175" d="M68 967v419q0 14 16 15h223q16 0 17 -15v-413q0 -33 8 -68t29.5 -63.5t59.5 -47t97 -18.5h162q14 0 14 -14v-219q0 -16 -14 -17h-170q-121 0 -205 36t-136 96.5t-76.5 140.5t-24.5 168zM803 16v1373q0 14 16 14h234q16 0 16 -14v-1373q0 -16 -16 -16h-234q-16 0 -16 16z " />
<glyph unicode="&#x448;" horiz-adv-x="1961" d="M168 16v232q0 16 14 16h1641q16 0 16 -16v-232q0 -16 -16 -16h-1641q-14 0 -14 16zM168 375v1011q0 14 14 15h236q16 0 16 -15v-1011q0 -16 -16 -17h-236q-14 0 -14 17zM858 375v1011q0 14 16 15h246q16 0 17 -15v-1011q0 -16 -17 -17h-246q-16 0 -16 17zM1561 375v1011 q0 14 16 15h246q16 0 16 -15v-1011q0 -16 -16 -17h-246q-16 0 -16 17z" />
<glyph unicode="&#x449;" horiz-adv-x="1986" d="M127 16v236q0 16 14 16h1786q14 0 15 -16v-531q0 -16 -15 -16h-248q-16 0 -16 16v279h-1522q-14 0 -14 16zM127 375v1011q0 14 14 15h236q16 0 16 -15v-1011q0 -16 -16 -17h-236q-14 0 -14 17zM817 375v1011q0 14 17 15h245q16 0 17 -15v-1011q0 -16 -17 -17h-245 q-16 0 -17 17zM1520 375v1011q0 14 16 15h246q16 0 16 -15v-1011q0 -16 -16 -17h-246q-16 0 -16 17z" />
<glyph unicode="&#x44a;" horiz-adv-x="1359" d="M8 1171v215q0 14 17 15h528q16 0 16 -15v-1370q0 -16 -16 -16h-240q-14 0 -14 16v1139h-274q-16 0 -17 16zM672 16v224q0 16 14 16h191q88 0 135 56.5t47 127.5q0 68 -46 122t-136 54h-191q-14 0 -14 17v225q0 16 14 16h184q96 0 177 -31.5t140.5 -88t92.5 -136 t33 -178.5v-6q0 -98 -33 -179t-92.5 -137.5t-140 -87t-177.5 -30.5h-184q-14 0 -14 16z" />
<glyph unicode="&#x44b;" horiz-adv-x="1667" d="M139 16v1370q0 14 15 15h239q16 0 17 -15v-1370q0 -16 -17 -16h-239q-14 0 -15 16zM510 16v224q0 16 16 16h191q88 0 135 56.5t47 127.5q0 68 -46 122t-136 54h-191q-16 0 -16 17v225q0 16 16 16h185q96 0 177 -31.5t140 -89t92 -138t33 -181.5q0 -98 -33 -179 t-92 -137.5t-140 -87t-177 -30.5h-185q-16 0 -16 16zM1260 16v1370q0 14 14 15h237q16 0 17 -15v-1370q0 -16 -17 -16h-237q-14 0 -14 16z" />
<glyph unicode="&#x44c;" horiz-adv-x="1200" d="M125 16v1370q0 14 14 15h240q16 0 16 -15v-1370q0 -16 -16 -16h-240q-14 0 -14 16zM496 16v224q0 16 16 16h190q88 0 135.5 56.5t47.5 127.5q0 68 -46 122t-137 54h-190q-16 0 -16 17v225q0 16 16 16h184q96 0 177 -31.5t140.5 -88t92.5 -136t33 -178.5v-6 q0 -98 -33 -179t-92.5 -137.5t-140 -87t-177.5 -30.5h-184q-16 0 -16 16z" />
<glyph unicode="&#x44d;" horiz-adv-x="1275" d="M98 250q-6 14 6 22l193 121q12 10 20 -8q25 -61 80.5 -97t106.5 -36h8q16 0 16 -16v-228q0 -16 -16 -16h-8q-68 0 -129.5 20.5t-113.5 55t-94 82t-69 100.5zM113 1163q59 98 161.5 165t229.5 67h8q16 0 16 -15v-225q0 -16 -16 -16h-8q-45 0 -97.5 -33t-80.5 -88 q-6 -18 -23 -6l-184 129q-12 8 -6 22zM289 608v215q0 16 16 17h424q16 0 16 -17v-215q0 -16 -16 -16h-424q-16 0 -16 16zM631 8v228q0 16 16 16h10q82 0 139.5 53t57.5 141v496q0 86 -56.5 141.5t-140.5 55.5h-10q-16 0 -16 16v225q0 14 16 15h10q106 0 192.5 -37 t145 -100.5t90 -145.5t31.5 -172v-489q0 -84 -31.5 -166t-91 -147.5t-144.5 -105.5t-192 -40h-10q-16 0 -16 16z" />
<glyph unicode="&#x44e;" horiz-adv-x="1857" d="M125 16v1370q0 14 14 15h236q16 0 16 -15v-555h170q16 0 17 -16v-237q0 -16 -17 -17h-170v-545q0 -16 -16 -16h-236q-14 0 -14 16zM676 451v489q0 82 36 163t98 145.5t146 105.5t179 41h10q16 0 16 -15v-227q0 -16 -16 -16h-10q-31 0 -66 -15.5t-63.5 -42t-48 -62.5 t-19.5 -75v-496q0 -43 19.5 -78.5t48 -61t63.5 -40t66 -14.5h10q16 0 16 -16v-228q0 -16 -16 -16h-10q-96 0 -180.5 40t-145.5 105.5t-97 147.5t-36 166zM1264 8v228q0 16 16 16h8q31 0 64.5 13.5t63.5 39t48.5 61t18.5 80.5v496q0 43 -18.5 79t-48.5 61.5t-63.5 40 t-64.5 14.5h-8q-16 0 -16 16v227q0 14 16 15h8q96 0 180 -41t145.5 -105.5t97.5 -145.5t36 -163v-489q0 -84 -36 -166t-97.5 -147.5t-145.5 -105.5t-180 -40h-8q-16 0 -16 16z" />
<glyph unicode="&#x44f;" horiz-adv-x="1234" d="M79 7q-5 7 1 18l326 528q-141 41 -221.5 148.5t-80.5 269.5q0 96 33 176t90.5 136t137 87t176.5 31h188q16 0 16 -15v-233q0 -16 -16 -16h-192q-88 0 -134.5 -50.5t-46.5 -121.5q0 -66 46.5 -117t134.5 -51h192q16 0 16 -17v-229q0 -16 -16 -16h-41l-323 -527 q-4 -8 -13 -8h-258q-10 0 -15 7zM852 16v1370q0 14 16 15h240q16 0 16 -15v-1370q0 -16 -16 -16h-240q-16 0 -16 16z" />
<glyph unicode="&#x451;" horiz-adv-x="1159" d="M137 16v1370q0 14 17 15h243q16 0 17 -15v-1370q0 -16 -17 -16h-243q-16 0 -17 16zM221 1608q0 53 38 93t95 40t95 -40t38 -93q0 -59 -37.5 -96t-95.5 -37q-57 0 -95 37t-38 96zM518 16v236q0 16 17 16h532q16 0 16 -16v-236q0 -16 -16 -16h-532q-16 0 -17 16zM518 580 v235q0 16 17 16h399q16 0 16 -16v-235q0 -16 -16 -17h-399q-16 0 -17 17zM518 1149v237q0 14 17 15h532q16 0 16 -15v-237q0 -16 -16 -16h-532q-16 0 -17 16zM692 1608q0 53 38 93t93 40q57 0 95 -40t38 -93q0 -59 -37.5 -96t-95.5 -37q-55 0 -93 37t-38 96z" />
<glyph unicode="&#x452;" horiz-adv-x="1478" d="M84 1161v225q0 14 16 15h963q16 0 16 -15v-225q0 -16 -16 -16h-963q-16 0 -16 16zM383 16v998q0 16 16 16h234q16 0 16 -16v-998q0 -16 -16 -16h-234q-16 0 -16 16zM754 633v225q0 16 14 16h184q96 0 178 -31.5t140.5 -88t91.5 -136t33 -178.5v-6q0 -98 -33 -179 t-91.5 -137.5t-140 -87t-178.5 -30.5h-96q-14 0 -14 16v224q0 16 14 16h102q88 0 135.5 56.5t47.5 127.5q0 68 -46 122t-137 54h-190q-14 0 -14 17z" />
<glyph unicode="&#x453;" horiz-adv-x="1079" d="M129 16v1370q0 14 16 15h246q16 0 17 -15v-1370q0 -16 -17 -16h-246q-16 0 -16 16zM477 1540l264 303q4 6 13 2l215 -119q12 -8 2 -16l-377 -266q-6 -6 -12 0l-103 82q-10 6 -2 14zM514 1149v237q0 14 16 15h531q16 0 16 -15v-237q0 -16 -16 -16h-531q-16 0 -16 16z" />
<glyph unicode="&#x454;" horiz-adv-x="1275" d="M104 451v489q0 82 36 163t98.5 145.5t146.5 105.5t178 41h10q14 0 15 -15v-225q0 -16 -15 -16h-10q-31 0 -65.5 -17.5t-64.5 -45t-49 -62.5t-19 -72v-496q0 -43 19 -78.5t49 -61t64.5 -40t65.5 -14.5h10q14 0 15 -16v-228q0 -16 -15 -16h-10q-96 0 -180 40t-145.5 105.5 t-97.5 147.5t-36 166zM475 608v215q0 16 17 17h423q16 0 17 -17v-215q0 -16 -17 -16h-423q-16 0 -17 16zM690 8v228q0 16 17 16h8q51 0 106.5 36t79.5 97q8 18 23 8l192 -121q10 -10 4 -22q-29 -53 -69.5 -100.5t-93 -82t-114 -55t-128.5 -20.5h-8q-16 0 -17 16zM690 1155 v225q0 14 17 15h8q127 0 230.5 -66.5t162.5 -165.5q8 -14 -4 -22l-189 -129q-16 -12 -22 6q-29 55 -81 88t-97 33h-8q-16 0 -17 16z" />
<glyph unicode="&#x455;" horiz-adv-x="1200" d="M106 420v14q0 16 17 17h231q16 0 17 -15q2 -27 13 -55.5t30.5 -54t47 -47t62.5 -33.5q12 -4 13 -17v-223q0 -20 -19 -16q-78 12 -152.5 46t-132 87t-92.5 128t-35 169zM150 1047q0 80 32.5 143t84.5 109.5t118 74t133 31.5q18 0 19 -16v-218q0 -12 -11 -16 q-55 -16 -81.5 -47t-26.5 -70q0 -29 25.5 -52t70.5 -45.5t105.5 -45.5t132.5 -47q57 -20 117.5 -53t110.5 -84.5t82 -122t32 -168.5q0 -84 -31 -157t-86 -130t-130 -94t-163 -47q-18 -4 -18 16v223q0 12 10 17q61 23 104 71t43 113q0 43 -24.5 75t-64.5 56.5t-90 44 t-103 37.5q-78 27 -148.5 57.5t-124 74.5t-86 108.5t-32.5 161.5zM666 1176v217q0 16 18 16q131 -12 223 -66.5t152 -168.5q8 -16 -6 -23l-203 -104q-14 -6 -23 6q-25 43 -63.5 69.5t-85.5 36.5q-12 4 -12 17z" />
<glyph unicode="&#x456;" horiz-adv-x="649" d="M190 16v1370q0 14 17 15h237q16 0 17 -15v-1370q0 -16 -17 -16h-237q-16 0 -17 16z" />
<glyph unicode="&#x457;" horiz-adv-x="649" d="M-35 1608q0 53 38 93t95 40t95 -40t38 -93q0 -59 -37.5 -96t-95.5 -37q-57 0 -95 37t-38 96zM190 16v1370q0 14 17 15h237q16 0 17 -15v-1370q0 -16 -17 -16h-237q-16 0 -17 16zM436 1608q0 53 38 93t93 40q57 0 95 -40t38 -93q0 -59 -37.5 -96t-95.5 -37q-55 0 -93 37 t-38 96z" />
<glyph unicode="&#x458;" horiz-adv-x="1263" d="M59 451v28q0 14 17 15h227q16 0 16 -15v-33q0 -43 19.5 -78.5t49.5 -61t64.5 -40t65.5 -14.5h8q16 0 17 -16v-228q0 -16 -17 -16h-8q-96 0 -180 40t-145.5 105.5t-97.5 147.5t-36 166zM645 8v228q0 16 17 16h8q31 0 64.5 13.5t63 39t49 61t19.5 80.5v940q0 14 17 15h229 q16 0 16 -15v-935q0 -84 -35.5 -166t-98 -147.5t-146.5 -105.5t-178 -40h-8q-16 0 -17 16z" />
<glyph unicode="&#x459;" horiz-adv-x="1927" d="M61 -2v227q0 16 17 17h8q72 0 120 60t48 171v494q0 98 31.5 178t88 136t136.5 88t176 32h31q16 0 16 -15v-231q0 -16 -16 -16h-31q-45 0 -76.5 -15.5t-52 -40t-30 -56.5t-9.5 -64v-517q0 -217 -115.5 -340.5t-316.5 -123.5h-8q-16 0 -17 16zM838 16v1370q0 14 16 15h238 q14 0 14 -15v-1370q0 -16 -14 -16h-238q-16 0 -16 16zM1208 16v224q0 16 17 16h190q88 0 135 56.5t47 127.5q0 68 -46 122t-136 54h-190q-16 0 -17 17v225q0 16 17 16h184q96 0 177 -31.5t140.5 -88t92 -136t32.5 -178.5v-6q0 -98 -32.5 -179t-92 -137.5t-140.5 -87 t-177 -30.5h-184q-16 0 -17 16z" />
<glyph unicode="&#x45a;" horiz-adv-x="1894" d="M125 16v1370q0 14 14 15h236q16 0 16 -15v-555h281q16 0 16 -16v-237q0 -16 -16 -17h-281v-545q0 -16 -16 -16h-236q-14 0 -14 16zM791 16v1370q0 14 16 15h237q16 0 17 -15v-1370q0 -16 -17 -16h-237q-16 0 -16 16zM1163 16v224q0 16 17 16h190q43 0 78 15.5t57.5 41 t34.5 58t12 69.5q0 68 -47 122t-135 54h-190q-16 0 -17 17v225q0 16 17 16h184q96 0 177 -31.5t140.5 -88t92 -136t32.5 -178.5v-6q0 -98 -32.5 -179t-92 -137.5t-140.5 -87t-177 -30.5h-184q-16 0 -17 16z" />
<glyph unicode="&#x45b;" horiz-adv-x="1478" d="M84 1161v225q0 14 16 15h963q16 0 16 -15v-225q0 -16 -16 -16h-963q-16 0 -16 16zM383 16v998q0 16 16 16h234q16 0 16 -16v-998q0 -16 -16 -16h-234q-16 0 -16 16zM758 641v217q0 16 14 16h168q121 0 205 -35.5t137 -95t77.5 -140.5t24.5 -169v-418q0 -16 -16 -16h-223 q-16 0 -17 16v412q0 33 -8 67.5t-29.5 63.5t-59.5 47.5t-97 18.5h-162q-14 0 -14 16z" />
<glyph unicode="&#x45c;" horiz-adv-x="1318" d="M129 16v1370q0 14 14 15h240q16 0 16 -15v-1370q0 -16 -16 -16h-240q-14 0 -14 16zM434 803q-6 10 2 18l520 574q6 6 11 6h301q10 0 15 -8.5t-3 -16.5l-690 -762q-14 -14 -27 0zM524 1540l264 303q4 6 13 2l215 -119q12 -8 2 -16l-377 -266q-6 -6 -12 0l-103 82 q-10 6 -2 14zM643 500q-6 10 2 18l162 176q16 16 27 -2l446 -667q6 -10 1 -17.5t-15 -7.5h-283q-10 0 -14 8z" />
<glyph unicode="&#x45e;" horiz-adv-x="1265" d="M33 1380q-4 8 0 14.5t14 6.5h268q8 0 15 -10l260 -580q6 -6 0 -12l-127 -297q-4 -10 -13.5 -10t-13.5 10zM344 1765q0 10 10 11h185q10 0 10 -11q-2 -66 21.5 -93t60.5 -27t60.5 27.5t21.5 92.5q0 10 10 11h184q10 0 11 -11q0 -66 -18.5 -122t-54.5 -98t-90 -65.5 t-124 -23.5q-72 0 -125 23.5t-89 65.5t-54.5 98.5t-18.5 121.5zM389 23l553 1368q4 10 14 10h250q23 0 15 -21l-551 -1370q-4 -10 -15 -10h-252q-23 0 -14 23z" />
<glyph unicode="&#x45f;" horiz-adv-x="1361" d="M178 16v1370q0 14 15 15h235q16 0 16 -15v-1118h758q16 0 17 -16v-236q0 -16 -17 -16h-360v-279q0 -16 -17 -16h-239q-16 0 -17 16v279h-376q-14 0 -15 16zM930 375v1011q0 14 16 15h246q16 0 16 -15v-1011q0 -16 -16 -17h-246q-16 0 -16 17z" />
<glyph unicode="&#x490;" horiz-adv-x="1079" d="M117 16v1370q0 14 16 15h246q16 0 16 -15v-1370q0 -16 -16 -16h-246q-16 0 -16 16zM500 1149v237q0 14 16 15h281v262q0 16 16 16h236q16 0 16 -16v-514q0 -16 -16 -16h-533q-16 0 -16 16z" />
<glyph unicode="&#x491;" horiz-adv-x="1079" d="M117 16v1370q0 14 16 15h246q16 0 16 -15v-1370q0 -16 -16 -16h-246q-16 0 -16 16zM500 1149v237q0 14 16 15h281v262q0 16 16 16h236q16 0 16 -16v-514q0 -16 -16 -16h-533q-16 0 -16 16z" />
<glyph unicode="&#x2000;" horiz-adv-x="929" />
<glyph unicode="&#x2001;" horiz-adv-x="1859" />
<glyph unicode="&#x2002;" horiz-adv-x="929" />
<glyph unicode="&#x2003;" horiz-adv-x="1859" />
<glyph unicode="&#x2004;" horiz-adv-x="619" />
<glyph unicode="&#x2005;" horiz-adv-x="464" />
<glyph unicode="&#x2006;" horiz-adv-x="309" />
<glyph unicode="&#x2007;" horiz-adv-x="309" />
<glyph unicode="&#x2008;" horiz-adv-x="232" />
<glyph unicode="&#x2009;" horiz-adv-x="371" />
<glyph unicode="&#x200a;" horiz-adv-x="103" />
<glyph unicode="&#x2010;" horiz-adv-x="1126" d="M207 502v221q0 10 8 10h696q10 0 11 -10v-221q0 -8 -11 -8h-696q-8 0 -8 8z" />
<glyph unicode="&#x2011;" horiz-adv-x="1126" d="M207 502v221q0 10 8 10h696q10 0 11 -10v-221q0 -8 -11 -8h-696q-8 0 -8 8z" />
<glyph unicode="&#x2012;" horiz-adv-x="1126" d="M207 502v221q0 10 8 10h696q10 0 11 -10v-221q0 -8 -11 -8h-696q-8 0 -8 8z" />
<glyph unicode="&#x2013;" horiz-adv-x="1024" d="M57 610v199q0 10 11 10h888q10 0 11 -10v-199q0 -10 -11 -10h-888q-10 0 -11 10z" />
<glyph unicode="&#x2014;" horiz-adv-x="2048" d="M66 610v199q0 10 10 10h1896q10 0 10 -10v-199q0 -10 -10 -10h-1896q-10 0 -10 10z" />
<glyph unicode="&#x2018;" horiz-adv-x="604" d="M78 952l237 484q6 6 9 6h174q10 0 10 -12l-129 -484q-4 -8 -10 -8h-283q-12 0 -8 14z" />
<glyph unicode="&#x2019;" horiz-adv-x="604" d="M90 950l129 484q4 8 10 8h283q12 0 8 -15l-237 -483q-6 -6 -9 -6h-174q-10 0 -10 12z" />
<glyph unicode="&#x201a;" horiz-adv-x="645" d="M88 -215l129 479q4 8 10 8h283q12 0 8 -14l-237 -479q-6 -6 -9 -6h-174q-10 0 -10 12z" />
<glyph unicode="&#x201c;" horiz-adv-x="958" d="M76 952l235 484q6 6 8 6h175q14 0 10 -12l-127 -484q-4 -8 -10 -8h-283q-16 0 -8 14zM461 952l235 484q6 6 9 6h174q14 0 10 -12l-129 -484q-4 -8 -10 -8h-281q-16 0 -8 14z" />
<glyph unicode="&#x201d;" horiz-adv-x="958" d="M66 950l127 484q4 8 10 8h282q14 0 9 -15l-238 -483q0 -6 -6 -6h-174q-14 0 -10 12zM451 950l127 484q4 8 10 8h282q14 0 9 -15l-238 -483q-6 -6 -8 -6h-172q-14 0 -10 12z" />
<glyph unicode="&#x201e;" horiz-adv-x="1202" d="M92 -215l129 479q4 8 10 8h283q12 0 6 -14l-235 -479q-6 -6 -9 -6h-174q-14 0 -10 12zM664 -215l127 479q4 8 10 8h282q12 0 9 -14l-238 -479q-6 -6 -8 -6h-174q-12 0 -8 12z" />
<glyph unicode="&#x2022;" horiz-adv-x="966" d="M160 721q0 61 21.5 116.5t62.5 97.5t101.5 65.5t137.5 23.5q76 0 136.5 -23.5t102.5 -65.5t64.5 -97.5t22.5 -116.5t-22.5 -116.5t-64.5 -96.5t-102.5 -64.5t-136.5 -23.5q-78 0 -138 23.5t-101 64.5t-62.5 96t-21.5 117z" />
<glyph unicode="&#x2026;" horiz-adv-x="2068" d="M233 154q0 70 47 117.5t119 47.5t120 -47t48 -118q0 -72 -48 -120t-120 -48t-119 48t-47 120zM885 154q0 70 48 117.5t120 47.5t119 -47t47 -118q0 -72 -47.5 -120t-118.5 -48q-72 0 -120 48t-48 120zM1522 154q0 70 47 117.5t119 47.5t118.5 -47t46.5 -118 q0 -72 -47 -120t-118 -48q-72 0 -119 48t-47 120z" />
<glyph unicode="&#x202f;" horiz-adv-x="371" />
<glyph unicode="&#x2039;" horiz-adv-x="684" d="M129 485v13l262 397q6 10 15 2l153 -133q4 -8 0 -14l-158 -252q37 -66 78 -129.5t80 -128.5q0 -10 -2 -15l-154 -133q-8 -8 -14 2z" />
<glyph unicode="&#x203a;" horiz-adv-x="684" d="M127 750q0 10 2 14l154 133q8 8 14 -2l260 -397q6 -6 0 -13l-258 -391q-6 -10 -14 -2l-154 133q-8 4 -2 15l158 258z" />
<glyph unicode="&#x205f;" horiz-adv-x="464" />
<glyph unicode="&#x20ac;" horiz-adv-x="1331" d="M109 508v139q0 14 16 15h680q16 0 16 -15v-139q0 -14 -16 -14h-342v-48q0 -88 58.5 -146t140.5 -58h10q16 0 16 -17v-217q0 -16 -16 -16h-10q-96 0 -180.5 40t-146 105.5t-97 147.5t-35.5 166v43h-78q-16 0 -16 14zM111 752v137q0 16 16 16h76v35q0 82 35.5 163t98 145.5 t146.5 105.5t179 41h10q16 0 16 -15v-217q0 -16 -16 -16h-10q-37 0 -73 -14.5t-63.5 -41t-45 -64.5t-17.5 -85v-37h342q16 0 16 -16v-137q0 -16 -16 -17h-678q-16 0 -16 17zM791 8v217q0 16 14 17h8q47 0 97.5 33.5t76.5 86.5q6 12 21 7l204 -97q16 -8 9 -22 q-29 -53 -71 -100.5t-94 -82t-113.5 -55t-129.5 -20.5h-8q-14 0 -14 16zM791 1163v217q0 14 14 15h8q127 0 230.5 -66.5t162.5 -167.5q8 -14 -4 -22l-188 -127q-16 -12 -23 6q-27 55 -79 92t-99 37h-8q-14 0 -14 16z" />
<glyph unicode="&#x2122;" horiz-adv-x="1800" d="M121 1206v166q0 10 10 10h586q10 0 10 -10v-166q0 -10 -10 -10h-586q-10 0 -10 10zM334 508v579q0 10 10 11h164q10 0 10 -11v-579q0 -8 -10 -8h-164q-10 0 -10 8zM864 508v571q0 8 7.5 10.5t11.5 -4.5l170 -231v-346q0 -8 -11 -8h-168q-10 0 -10 8zM864 1296v80 q0 10 10 10h146q4 0 8 -4l311 -411q2 -6 0 -13l-104 -137q-8 -12 -16 0zM1292 1196q-4 6 0 12l131 174q4 4 9 4h149q10 0 10 -10v-868q0 -8 -10 -8h-168q-10 0 -10 8v549q-6 0 -8 4z" />
<glyph unicode="&#x25fc;" horiz-adv-x="1402" d="M0 0v1403h1403v-1403h-1403z" />
</font>
</defs>
</svg>
