<?xml version="1.0" encoding="UTF-8" standalone="no"?>
<!-- Created with Inkscape (http://www.inkscape.org/) -->
<svg xmlns="http://www.w3.org/2000/svg" width="600" height="600">
  <defs>
  </defs>
  <path
     style="fill:#F00001"
     d="M 587.98811,587.98803 L 11.99445,587.98803 L 11.99445,11.99439 L 587.98811,11.99439 L 587.98811,587.98803 z" />
  <path
     d="M 237.76869,325.2834 C 242.12546,331.05127 240.76728,333.27376 236.35759,336.62512 L 226.90322,324.06633 C 232.05373,320.20344 234.08219,320.34455 237.76869,325.2834 M 471.99376,477.80574 C 476.38581,483.57361 474.97471,485.84901 470.61793,489.12982 L 461.14592,476.58867 C 466.31408,472.72578 468.34253,472.9198 471.99376,477.80574 M 261.14004,197.94921 C 265.51446,203.71708 264.13863,205.99248 259.74658,209.29093 L 250.30985,196.76741 C 255.42509,192.88688 257.45354,193.06327 261.14004,197.94921 M 155.71319,58.020939 C 160.05232,63.788813 158.71178,66.046574 154.33736,69.36266 L 144.88299,56.821503 C 149.98059,52.940976 152.02669,53.117364 155.71319,58.020939 M 85.563847,439.9706 C 89.902982,445.75612 88.562436,447.99624 84.170385,451.32996 L 74.698372,438.77117 C 79.831251,434.90828 81.859708,435.03175 85.563847,439.9706 M 284.52904,70.632651 C 288.86817,76.382886 287.52763,78.675924 283.11794,81.974372 L 273.69884,69.415576 C 278.81408,65.570327 280.84254,65.729076 284.52904,70.632651 M 343.21319,465.17639 C 347.55232,470.94426 346.15886,473.2373 341.78445,476.55339 L 332.33007,463.97695 C 337.44531,460.14934 339.49141,460.29045 343.21319,465.17639 M 366.60218,337.89511 C 370.92367,343.62771 369.60077,345.90311 365.17344,349.21919 L 355.7367,336.67804 C 360.88722,332.81515 362.8804,332.9739 366.60218,337.89511 M 518.80702,223.17263 C 523.14616,228.9405 521.78797,231.2159 517.39592,234.51435 L 507.95919,221.95556 C 513.09206,218.11031 515.10288,218.26906 518.80702,223.17263 M 413.36253,83.244363 C 417.70166,89.012237 416.36111,91.269998 411.96906,94.586084 L 402.53233,82.044927 C 407.64757,78.182039 409.67603,78.340788 413.36253,83.244363 M 389.97353,210.56092 C 394.31267,216.32879 392.97212,218.58655 388.58007,221.90264 L 379.14334,209.36148 C 384.2233,205.49859 386.28703,205.65734 389.97353,210.56092 M 542.19601,95.856075 C 546.53515,101.62395 545.1946,103.88171 540.82019,107.18016 L 531.3129,94.639 C 536.48106,90.776112 538.50951,90.9525 542.19601,95.856075 M 108.95284,312.65405 C 113.29197,318.42192 111.95143,320.66205 107.57702,323.99577 L 98.122643,311.4017 C 103.23788,307.59173 105.26634,307.75047 108.95284,312.65405 M 214.3797,452.59996 C 218.71883,458.33255 217.37829,460.59031 212.98624,463.9064 L 203.5495,451.3476 C 208.66474,447.50235 210.6932,447.67874 214.3797,452.59996 M 495.38275,350.47155 C 499.7748,356.23942 498.39898,358.53246 494.00693,361.84855 L 484.57019,349.28975 C 489.66779,345.40922 491.69625,345.60325 495.38275,350.47155 M 16.049502,44.209791 L 25.503876,56.750948 C 29.895927,53.434862 31.236473,51.177101 26.897338,45.426866 C 23.193199,40.505652 21.182381,40.346903 16.049502,44.209791 M 132.32419,185.33749 C 136.69861,191.10537 135.32278,193.38077 130.93073,196.69685 L 121.47636,184.13806 C 126.5916,180.29281 128.62006,180.41628 132.32419,185.33749 M 583.66473,11.98378 L 567.7193,11.98378 L 573.50481,19.65664 L 583.66473,11.98378 z M 290.75552,13.341965 L 289.73247,11.98378 L 268.33666,11.98378 L 277.06784,23.642999 L 290.75552,13.341965 z M 343.33666,42.816329 C 358.73529,63.224372 366.10829,67.616423 379.6725,57.368305 C 383.72941,54.3168 385.93426,50.841964 386.97494,46.22061 L 390.9613,47.508239 L 397.96389,42.251889 L 376.28586,13.465436 L 359.1939,26.324091 L 366.47871,36.007769 L 369.90063,33.414871 L 373.74588,38.54775 C 376.09183,41.652171 375.56267,43.980487 373.44602,45.567976 C 371.32937,47.155464 368.94813,47.031993 366.60218,43.94521 L 348.82231,20.291635 C 346.47636,17.204853 347.00552,14.858898 349.08689,13.27141 C 351.20354,11.683922 353.62005,11.772115 355.96601,14.894175 L 358.24141,17.928042 L 366.10829,11.98378 L 333.14145,11.98378 C 329.71954,19.79775 333.01798,29.146292 343.33666,42.816329 M 419.58901,25.953677 L 409.04103,11.98378 L 387.62758,11.98378 L 405.90133,36.254711 L 419.58901,25.953677 z M 472.18778,55.44568 C 487.5335,75.836084 494.92414,80.228135 508.48835,69.997655 C 512.5629,66.928512 514.80302,63.436037 515.80843,58.84996 L 519.79479,60.119951 L 526.79738,54.845962 L 505.11935,26.094787 L 488.06267,38.935803 L 495.3122,48.619481 L 498.71648,46.026583 L 502.56173,51.141823 C 504.92532,54.263883 504.39616,56.574561 502.26187,58.179688 C 500.14522,59.767176 497.76398,59.661343 495.43567,56.539283 L 477.60288,32.903347 C 475.27457,29.798926 475.82137,27.47061 477.95566,25.883122 C 480.07231,24.277995 482.45354,24.401466 484.78186,27.488249 L 487.03962,30.522115 L 500.72729,20.238719 C 497.55232,16.075972 495.38275,13.641824 493.07207,12.195445 C 492.93096,12.089613 492.77221,12.089613 492.6311,11.98378 L 475.16873,11.98378 C 473.38722,12.883357 471.57043,13.941683 469.89475,15.229312 C 456.73623,25.124655 457.42414,35.901936 472.18778,55.44568 M 548.38722,38.565389 L 528.36723,11.98378 L 506.97141,11.98378 L 534.73482,48.866423 L 548.38722,38.565389 z M 71.064788,69.203911 L 101.45637,46.273526 L 93.130874,35.214025 L 76.356416,47.825737 L 68.754111,37.718728 L 81.930263,27.788108 L 73.551853,16.67569 L 60.39334,26.62395 L 53.761167,17.839848 L 61.486943,11.98378 L 39.297385,11.98378 L 32.065494,17.451795 L 71.064788,69.203911 z M 199.89828,81.833262 L 230.28986,58.902877 L 221.91145,47.808098 L 205.17227,60.437449 L 197.55232,50.33044 L 210.72847,40.417458 L 202.35006,29.305041 L 189.20919,39.218023 L 182.57702,30.433921 L 198.50481,18.421927 L 193.68943,11.98378 L 184.83478,11.98378 L 160.86371,30.045869 L 199.89828,81.833262 z M 250.83901,44.79187 C 254.91356,41.705088 257.15369,38.247891 258.14146,33.626536 L 262.14545,34.896527 L 269.1304,29.622538 L 255.86606,11.98378 L 232.70637,11.98378 L 230.41333,13.747656 L 237.66286,23.378418 L 241.08478,20.820798 L 244.9653,25.953677 C 247.27598,29.022821 246.72918,31.368775 244.61253,32.973902 C 242.49588,34.561391 240.11464,34.437919 237.76869,31.315859 L 223.23435,11.98378 L 204.04338,11.98378 C 205.70143,17.151936 209.15862,23.096198 214.48553,30.222256 C 229.9018,50.61266 237.2748,55.004711 250.83901,44.79187 M 122.02316,32.16252 C 126.09771,29.093376 128.3202,25.600902 129.32561,21.032463 L 133.31197,22.267176 L 140.29691,17.010826 L 136.53986,11.98378 L 115.14404,11.98378 L 116.13181,13.306687 C 118.44249,16.428747 117.91333,18.757063 115.79668,20.344552 C 113.68003,21.93204 111.2988,21.826207 108.95284,18.721786 L 103.89052,11.98378 L 81.771514,11.98378 C 82.97095,13.800572 84.223302,15.617365 85.704957,17.610544 C 101.08595,38.000948 108.45896,42.392999 122.02316,32.16252 M 539.79714,512.34243 L 578.84935,564.11218 L 587.98623,557.14487 L 587.98623,547.84925 L 553.48482,502.02376 L 539.79714,512.34243 z M 504.11394,569.75659 L 490.93778,579.66957 L 484.32325,570.86783 L 500.23341,558.89111 L 492.20777,548.21966 L 462.60994,570.51505 L 475.80373,587.99506 L 502.98506,587.99506 L 512.49235,580.85136 L 504.11394,569.75659 z M 559.87005,574.07808 L 563.89169,575.33043 L 570.87663,570.09172 L 549.23388,541.32291 L 532.14192,554.1992 L 539.37381,563.82996 L 542.81337,561.2547 L 546.6939,566.38758 C 549.03985,569.47437 548.45777,571.80268 546.34112,573.39017 C 544.24211,574.97766 541.84324,574.87183 539.5502,571.7674 L 521.71742,548.13147 C 519.37146,545.00941 519.90062,542.68109 522.01728,541.11124 C 524.11629,539.52375 526.51516,539.64723 528.86111,542.73401 L 531.13651,545.78551 L 544.78891,535.46684 C 541.64921,531.30409 539.47965,528.85231 537.20425,527.40593 C 529.93708,522.69638 521.29409,524.91886 514.00928,530.45743 C 500.79785,540.37042 501.5034,551.09478 516.2494,570.65616 C 522.82866,579.38735 527.9439,585.01411 532.70636,587.99506 L 548.28139,587.99506 C 549.69249,587.21896 551.10359,586.35466 552.60288,585.20814 C 556.62452,582.15663 558.86464,578.6818 559.87005,574.07808 M 441.72565,586.21355 L 439.32678,587.99506 L 469.31267,587.99506 C 460.65204,577.5 452.3089,578.25847 441.72565,586.21355 M 304.09042,580.28692 L 293.78939,587.99506 L 335.54033,587.99506 C 334.67603,586.47813 334.09395,585.08467 332.82396,583.39135 C 323.74,571.34407 315.16756,571.90851 304.09042,580.28692 M 361.66333,584.80245 L 374.82184,574.87183 L 366.47871,563.77705 L 353.32019,573.69003 L 346.65274,564.90593 L 362.61582,552.91157 L 354.57255,542.22248 L 324.95707,564.55315 L 342.63111,587.99506 L 364.07984,587.99506 L 361.66333,584.80245 z M 204.00811,570.762 C 194.94179,558.71472 186.33407,559.33208 175.27457,567.65757 L 159.91121,579.2286 L 166.49047,587.99506 L 187.14545,587.99506 L 180.14287,578.6818 C 185.25811,574.81891 187.3042,574.97766 190.9907,579.88123 C 193.86582,583.70884 194.05985,585.93133 192.73694,587.99506 L 208.66474,587.99506 C 210.53445,582.98565 209.22918,577.7293 204.00811,570.762 M 257.17132,569.66839 L 240.43214,582.2801 L 232.86512,572.19073 L 245.98835,562.27775 L 237.66286,551.20061 L 224.48671,561.11359 L 217.85453,552.29422 L 233.78233,540.28222 L 225.73906,529.61077 L 196.12358,551.94144 L 223.32255,587.99506 L 255.97189,587.99506 L 265.56737,580.78081 L 257.17132,569.66839 z M 378.43779,587.99506 L 390.34395,587.99506 L 386.00481,582.2801 L 378.43779,587.99506 z M 578.56713,483.13265 L 587.98623,495.60325 L 587.98623,476.02423 L 578.56713,483.13265 z M 554.36676,391.65805 L 587.98623,436.26647 L 587.98623,407.85043 L 568.05443,381.33937 L 554.36676,391.65805 z M 570.08289,306.2159 L 577.35006,315.88194 L 580.77198,313.28904 L 584.63487,318.40428 C 586.98082,321.52634 586.41638,323.83702 584.28209,325.42451 C 582.18308,327.012 579.81949,326.90617 577.47353,323.80174 L 559.67602,300.14817 C 557.33007,297.06139 557.87687,294.73307 559.97588,293.14558 C 562.09253,291.54046 564.4914,291.64629 566.81972,294.75071 L 569.07748,297.80222 L 582.76516,287.48354 C 579.62546,283.32079 577.42061,280.90428 575.14521,279.44027 C 567.91332,274.73072 559.25269,276.93556 551.95025,282.47413 C 538.7741,292.38712 539.49728,303.14676 554.22565,322.6905 C 568.56596,341.74036 576.04479,346.66157 587.98623,338.90052 L 587.98623,294.46849 L 587.13957,293.35725 L 570.08289,306.2159 z M 575.30396,155.1223 C 562.16309,165.07056 562.86864,175.8302 577.61464,195.35631 C 581.49517,200.55974 584.88181,204.66957 587.98623,207.82691 L 587.98623,179.39323 L 583.06502,172.84925 C 580.71906,169.74483 581.26586,167.41652 583.38251,165.82903 C 584.82889,164.73542 586.41638,164.52376 587.98623,165.45861 L 587.98623,149.7954 C 583.68237,150.27164 579.3256,152.12371 575.30396,155.1223 M 569.05984,68.269057 L 584.98764,56.257063 L 576.92673,45.567976 L 547.38181,67.898643 L 586.3811,119.65076 L 587.98623,118.43368 L 587.98623,93.404287 L 584.03515,88.165576 L 587.98623,85.184626 L 587.98623,67.775172 L 575.65674,77.053159 L 569.05984,68.269057 z M 587.98623,277.9057 L 587.98623,256.61572 L 577.77339,264.34149 L 587.98623,277.9057 z M 568.28374,225.5715 L 560.66379,215.48213 L 573.80467,205.55151 L 565.46154,194.45673 L 552.30302,204.36971 L 545.68849,195.58561 L 561.59865,183.59126 L 553.55537,172.91981 L 523.99282,195.2152 L 562.99211,246.98495 L 587.98623,228.12912 L 587.98623,216.92851 L 584.98764,212.94215 L 568.28374,225.5715 z M 51.327018,566.05245 L 60.763753,578.61124 C 65.155804,575.29516 66.531627,573.03739 62.174854,567.3048 C 58.488354,562.38359 56.442258,562.2072 51.327018,566.05245 M 11.992588,197.19074 L 11.992588,223.43721 L 24.6043,213.91228 L 11.992588,197.19074 z M 22.910979,260.44333 L 14.885344,249.77188 L 11.992588,251.94144 L 11.992588,268.66299 L 22.910979,260.44333 z M 16.525748,163.58891 C 15.008815,161.56045 13.509521,160.04352 11.992588,158.70297 L 11.992588,191.72272 C 24.216247,182.40946 25.468599,175.45979 16.525748,163.58891 M 22.946256,417.12841 L 11.992588,425.38335 L 11.992588,442.79281 L 31.324666,428.22319 L 22.946256,417.12841 z M 54.696021,300.90664 L 46.335249,289.81186 L 29.596068,302.42357 L 21.993763,292.36948 L 35.169916,282.42122 L 26.791506,271.32644 L 13.615353,281.23942 L 11.992588,279.08749 L 11.992588,307.52117 L 24.286802,323.83702 L 54.696021,300.90664 z M 51.873819,414.12982 C 55.930734,411.04304 58.135579,407.56821 59.158626,402.98213 L 63.180263,404.25212 L 70.165211,398.94285 L 48.487178,370.19168 L 31.395221,383.08561 L 38.680028,392.73401 L 42.101948,390.15875 L 45.964836,395.29163 C 48.293152,398.37841 47.74635,400.72437 45.647338,402.32949 C 43.513048,403.91698 41.131816,403.77587 38.821139,400.65381 L 20.988354,377.01788 C 18.660038,373.91346 19.189201,371.5675 21.305852,369.98001 C 23.422503,368.39252 25.803735,368.55127 28.14969,371.63806 L 30.42509,374.63664 L 44.077488,364.37089 C 40.920151,360.15522 38.732945,357.79163 36.492822,356.30998 C 29.225654,351.60043 20.582663,353.82291 13.262578,359.30856 C 12.768693,359.69662 12.451195,360.06703 11.992588,360.43744 L 11.992588,394.51553 C 13.103829,396.15593 14.197432,397.7787 15.537978,399.52493 C 30.918975,419.96825 38.291976,424.3603 51.873819,414.12982 M 78.085014,173.60772 L 69.724243,162.51294 L 52.967422,175.14229 L 45.382756,165.03528 L 58.54127,155.08702 L 50.180499,144.00988 L 37.004346,153.92287 L 30.372173,145.12113 L 46.299972,133.12677 L 38.256698,122.45532 L 11.992588,142.26365 L 11.992588,149.17804 L 47.693434,196.52047 L 78.085014,173.60772 z M 34.834779,96.526347 L 11.992588,66.205322 L 11.992588,32.656405 C 22.646397,24.877713 31.060085,24.542576 39.897103,36.27235 C 48.910508,48.249067 47.658156,55.198738 35.152277,64.635473 L 32.771045,66.416988 L 47.993293,86.595727 L 34.834779,96.526347 z M 20.688495,491.68744 C 17.548796,487.47178 15.36159,485.07291 13.086191,483.60889 C 12.733415,483.36195 12.345363,483.36195 11.992588,483.15028 L 11.992588,498.23142 L 20.688495,491.68744 z M 128.35547,557.05668 L 111.65157,569.66839 L 104.04927,559.57902 L 117.22542,549.6484 L 108.84701,538.53598 L 95.670856,548.48424 L 89.021044,539.71778 L 104.96648,527.68815 L 96.940846,517.0167 L 67.34301,539.31209 L 104.01399,587.99506 L 110.41686,587.99506 L 136.73388,568.13382 L 128.35547,557.05668 z M 70.412154,586.49577 L 68.436613,587.99506 L 47.199549,587.99506 L 31.095363,566.63453 L 46.458721,555.04586 C 57.518222,546.70273 66.108297,546.13829 75.174619,558.15028 C 84.223302,570.10936 82.935672,577.04139 70.412154,586.49577 M 28.484826,541.42874 C 32.559379,538.3596 34.764224,534.86712 35.769633,530.26341 L 39.79127,531.5334 L 46.75858,526.27705 L 25.098185,497.52587 L 11.992588,507.3683 L 11.992588,515.65852 L 15.308674,520.03293 L 18.712954,517.47531 L 22.558204,522.57291 C 24.904158,525.67733 24.357357,528.02328 22.258345,529.61077 C 20.141694,531.18062 17.760461,531.09243 15.414507,527.98801 L 11.992588,523.43721 L 11.992588,545.89135 C 17.107827,547.67286 22.117235,546.22648 28.484826,541.42874 M 578.42602,454.69897 L 585.46389,449.42498 L 563.78585,420.65616 L 546.6939,433.51482 L 553.9787,443.1985 L 557.40062,440.58796 L 561.24587,445.7032 C 563.59183,448.8429 563.06267,451.13594 560.94601,452.74107 C 558.82936,454.32855 556.44813,454.20508 554.10218,451.1183 L 536.26939,427.46473 C 533.92344,424.37794 534.4526,422.03199 536.58689,420.4445 C 538.70354,418.87465 541.06713,418.96284 543.43073,422.04963 L 545.68849,425.11877 L 559.37616,414.78246 C 556.21883,410.61971 554.03162,408.2032 551.75622,406.72155 C 544.48905,402.012 535.84606,404.25212 528.56125,409.77305 C 515.3851,419.72131 516.10829,430.46331 530.83665,450.0247 C 546.18237,470.37982 553.55537,474.77187 567.13722,464.54139 C 571.22941,461.47225 573.43425,458.01505 574.42203,453.41134 L 578.42602,454.69897 z M 546.57043,478.68768 L 538.22729,467.5929 L 521.47047,480.20461 L 513.88581,470.0976 L 527.06196,460.18462 L 518.68355,449.10748 L 505.48976,458.98519 L 498.83995,450.23636 L 514.80302,438.22437 L 506.77739,427.53528 L 477.17955,449.84831 L 516.17885,501.60042 L 546.57043,478.68768 z M 493.07207,518.9746 L 477.90274,498.8135 L 480.2487,497.03199 C 492.77221,487.61289 494.05984,480.64558 485.01116,468.70414 C 475.96248,456.65687 467.33713,457.25659 456.27762,465.58208 L 440.94954,477.13547 L 479.94884,528.90522 L 493.07207,518.9746 z M 454.81361,547.81397 L 415.81431,496.04422 L 402.17955,506.36289 L 441.17885,558.13264 L 454.81361,547.81397 z M 433.20613,564.12982 L 411.56337,535.34337 L 394.47142,548.21966 L 401.75622,557.85042 L 405.17814,555.2928 L 409.02339,560.40804 C 411.36935,563.49483 410.82254,565.84078 408.72353,567.44591 C 406.60688,569.0334 404.22565,568.89229 401.87969,565.82314 L 384.04691,542.16957 C 381.73623,539.04751 382.28303,536.73683 384.39969,535.14934 C 386.48106,533.57949 388.89757,533.66769 391.24352,536.75447 L 393.50128,539.80597 L 407.11841,529.4873 C 403.97871,525.32455 401.80914,522.90804 399.53374,521.42639 C 392.31949,516.71684 383.65886,518.93932 376.32113,524.47789 C 363.16262,534.40851 363.88581,545.15052 378.5789,564.69426 C 393.99517,585.08467 401.38581,589.47672 414.93238,579.24624 C 419.00693,576.17709 421.19413,572.68462 422.23482,568.09854 L 426.22118,569.36853 L 433.20613,564.12982 z M 387.34536,488.98871 L 417.78985,466.09361 L 409.39381,454.96355 L 392.67226,467.61054 L 385.05232,457.48589 L 398.21083,447.57291 L 389.85006,436.49577 L 376.67391,446.40875 L 370.07701,437.58937 L 386.00481,425.57738 L 377.9439,414.90593 L 348.34606,437.2366 L 387.34536,488.98871 z M 364.30914,506.38053 L 349.05161,486.18415 L 351.43285,484.42027 C 363.95636,474.98354 365.22636,468.03387 356.19531,456.09243 C 347.12899,444.04516 338.52128,444.62724 327.46177,452.95273 L 312.08078,464.52376 L 351.13299,516.29351 L 364.30914,506.38053 z M 326.03304,535.23754 L 286.99846,483.46778 L 273.34606,493.73354 L 312.34536,545.50329 L 326.03304,535.23754 z M 304.40792,551.50047 L 282.71225,522.71402 L 265.67321,535.59031 L 272.92273,545.23871 L 276.34465,542.68109 L 280.1899,547.81397 C 282.53586,550.88311 281.98906,553.26435 279.89004,554.8342 C 277.77339,556.42168 275.39216,556.28057 273.04621,553.19379 L 255.23106,529.54022 C 252.90274,526.45343 253.44955,524.14276 255.54856,522.55527 C 257.68285,520.9325 260.06408,521.05598 262.3924,524.17804 L 264.6678,527.17662 L 278.35547,516.91087 C 275.16286,512.71284 272.97565,510.31397 270.75317,508.81468 C 263.486,504.14041 254.82537,506.36289 247.48765,511.84854 C 234.36441,521.81444 235.05232,532.55645 249.76305,552.08255 C 265.1264,572.47295 272.55232,576.88264 286.09889,566.6698 C 290.19108,563.56538 292.37828,560.07291 293.36606,555.50447 L 297.40533,556.75682 L 304.40792,551.50047 z M 258.56479,476.35936 L 288.95637,453.44662 L 280.59559,442.35184 L 263.82114,454.96355 L 256.25411,444.90946 L 269.39498,434.94356 L 261.06949,423.83114 L 247.89334,433.7794 L 241.24353,425.01294 L 257.17132,412.9833 L 249.11041,402.32949 L 219.53021,424.60725 L 258.56479,476.35936 z M 235.47565,493.75118 L 220.2534,473.59008 L 222.59936,471.79092 C 235.12288,462.37183 236.39287,455.40452 227.41474,443.46308 C 218.2955,431.43345 209.7407,432.01552 198.6812,440.34102 L 183.30021,451.94732 L 222.2995,503.71708 L 235.47565,493.75118 z M 197.21719,522.60819 L 158.21789,470.82079 L 144.53022,481.13947 L 183.52951,532.89158 L 197.21719,522.60819 z M 175.60971,538.87112 L 153.91403,510.13758 L 136.83972,522.99624 L 144.10689,532.627 L 147.5288,530.05174 L 151.40933,535.18462 C 153.72001,538.28904 153.19085,540.61736 151.07419,542.22248 C 148.95754,543.80997 146.57631,543.66886 144.23036,540.58208 L 126.43285,516.92851 C 124.10453,513.84172 124.6337,511.51341 126.75035,509.92592 C 128.84936,508.33843 131.24823,508.44426 133.57655,511.53105 L 135.85195,514.56491 L 149.52198,504.28152 C 146.36465,500.10113 144.19508,497.68462 141.91968,496.2206 C 134.65251,491.49342 126.02716,493.73354 118.6718,499.25447 C 105.54856,509.16745 106.27175,519.92709 120.98247,539.4532 C 136.34583,559.86124 143.71883,564.25329 157.28304,554.02281 C 161.35759,550.95367 163.58007,547.49647 164.58548,542.89276 L 168.58948,544.14511 L 175.60971,538.87112 z M 129.74894,463.78293 L 160.14052,440.85254 L 151.76211,429.7754 L 135.00529,442.35184 L 127.40298,432.28011 L 140.57913,422.33185 L 132.20072,411.25471 L 119.05985,421.18533 L 112.41004,412.38359 L 128.35547,400.37159 L 120.32984,389.71778 L 90.714365,411.99553 L 129.74894,463.78293 z M 106.6598,481.13947 L 91.437554,460.97837 L 93.783508,459.17921 C 106.30703,449.74248 107.57702,442.82808 98.545973,430.85137 C 89.479651,418.82173 80.889576,419.38617 69.830075,427.74695 L 54.466717,439.30033 L 93.48365,491.08773 L 106.6598,481.13947 z M 68.401336,510.01411 L 29.384403,458.24436 L 15.714366,468.51011 L 54.713659,520.29751 L 68.401336,510.01411 z M 78.102653,392.96331 L 91.790329,382.69756 L 52.755757,330.9278 L 39.103359,341.22884 L 78.102653,392.96331 z M 75.245174,286.77799 C 79.319727,283.74412 81.54221,280.25165 82.529981,275.64793 L 86.569256,276.91793 L 93.554205,271.64394 L 71.876171,242.87512 L 54.784215,255.75142 L 62.069022,265.41746 L 65.473302,262.8422 L 69.353829,267.97508 C 71.682145,271.06186 71.135343,273.37254 69.036331,274.96002 C 66.91968,276.56515 64.538448,276.44168 62.192493,273.3549 L 44.394986,249.70132 C 42.049031,246.5969 42.578194,244.26858 44.694845,242.66346 C 46.793857,241.09361 49.192728,241.1818 51.521044,244.33914 L 53.814083,247.33773 L 67.466482,237.03669 C 64.326783,232.87395 62.104299,230.45744 59.864177,228.99342 C 52.632286,224.28387 43.954017,226.48872 36.633933,232.00965 C 23.493058,241.92263 24.198608,252.69991 38.909332,272.22602 C 54.290329,292.63406 61.66333,297.02611 75.245174,286.77799 M 62.509991,213.89464 L 101.50928,265.6644 L 115.14404,255.381 L 76.14475,203.59361 L 62.509991,213.89464 z M 98.669444,159.47907 C 102.69108,156.40993 104.9312,152.91746 105.91897,148.33138 L 109.95825,149.58373 L 116.9432,144.32738 L 95.247525,115.55857 L 78.190846,128.43486 L 85.440376,138.08326 L 88.862295,135.52564 L 92.742822,140.64088 C 95.088777,143.72766 94.541975,146.07362 92.425324,147.66111 C 90.291034,149.2486 87.909802,149.10749 85.563847,146.0207 L 67.76634,122.36713 C 65.420386,119.28035 65.984826,116.96967 68.083838,115.36454 C 70.200489,113.77705 72.581721,113.88289 74.910037,116.98731 L 77.185437,120.02117 L 90.855475,109.72014 C 87.715776,105.53975 85.510931,103.14088 83.270809,101.67686 C 76.00364,96.949678 67.360649,99.172161 60.040564,104.69309 C 46.882051,114.62371 47.587601,125.38336 62.315964,144.90946 C 77.679322,165.29986 85.069962,169.69192 98.669444,159.47907 M 85.863706,86.578088 L 124.863,138.34784 L 138.53304,128.04681 L 99.551382,76.277053 L 85.863706,86.578088 z M 124.6337,57.368305 L 163.63299,109.13806 L 176.80914,99.1898 L 161.58689,79.0287 L 163.93285,77.264824 C 176.45637,67.828088 177.72636,60.860779 168.74823,48.901701 C 159.62899,36.854429 151.07419,37.436508 139.99705,45.779641 L 124.6337,57.368305 z M 178.99635,156.58632 L 165.8202,166.53458 L 159.20566,157.73284 L 175.11582,145.72084 L 167.09019,135.04939 L 137.50999,157.34479 L 176.50928,209.11454 L 206.9185,186.21943 L 198.55773,175.12465 L 181.80091,187.754 L 174.19861,177.66463 L 187.37476,167.71637 L 178.99635,156.58632 z M 191.13181,157.52117 C 206.49517,177.94685 213.88581,182.32127 227.48529,172.09079 C 231.50693,169.02164 233.72941,165.51153 234.75246,160.92545 L 238.7741,162.19544 L 245.77669,156.92145 L 224.06338,128.17028 L 206.98906,141.02893 L 214.25623,150.69497 L 217.67814,148.11971 L 221.57631,153.25259 C 223.92226,156.33938 223.32255,158.66769 221.25881,160.25518 C 219.10688,161.84267 216.72565,161.73684 214.3797,158.61478 L 196.58219,134.97884 C 194.23624,131.89206 194.78304,129.56374 196.89969,127.95861 C 199.01634,126.37113 201.39757,126.4946 203.74353,129.59902 L 206.01893,132.61525 L 219.67132,122.33185 C 216.53163,118.15146 214.34442,115.73495 212.08666,114.27094 C 204.81949,109.56139 196.15886,111.80151 188.87405,117.28717 C 175.6979,127.21779 176.42109,137.99507 191.13181,157.52117 M 214.67956,99.172161 L 253.67885,150.94192 L 267.36653,140.67616 L 228.36723,88.888765 L 214.67956,99.172161 z M 253.44955,69.962378 L 292.44884,121.74977 L 305.62499,111.81915 L 290.40274,91.622773 L 292.7487,89.858897 C 305.28986,80.422161 306.55985,73.49013 297.5288,61.513413 C 288.44484,49.466141 279.89004,50.065859 268.8129,58.391353 L 253.44955,69.962378 z M 289.67955,42.675219 L 328.73177,94.427335 L 359.10571,71.532227 L 350.7273,60.402171 L 334.02339,73.031522 L 326.38581,62.942152 L 339.56196,53.011532 L 331.18355,41.916753 L 318.04268,51.829735 L 311.39287,43.027994 L 327.3383,31.033639 L 319.31267,20.344552 L 289.67955,42.675219 z M 357.16544,101.50048 L 343.51304,111.80151 L 382.51234,163.55363 L 396.18238,153.27023 L 357.16544,101.50048 z M 382.28303,82.591729 L 421.28233,134.36148 L 434.45848,124.41322 L 419.23623,104.25212 L 421.58219,102.47061 C 434.10571,93.033873 435.41097,86.101842 426.39757,74.125125 C 417.31361,62.077853 408.72353,62.677571 397.66403,71.020703 L 382.28303,82.591729 z M 418.51304,55.269293 L 457.4947,107.03905 L 487.93919,84.143939 L 479.54315,73.031522 L 462.8216,85.643234 L 455.23694,75.571503 L 468.36017,65.640882 L 460.05232,54.528465 L 446.87617,64.441447 L 440.22635,55.657345 L 456.15415,43.627712 L 448.14616,32.973902 L 418.51304,55.269293 z M 486.01657,114.09455 L 472.32889,124.39559 L 511.3811,176.18298 L 525.01586,165.86431 L 486.01657,114.09455 z M 511.11652,95.203441 L 550.11582,146.9732 L 563.29197,137.04257 L 548.06972,116.8462 L 550.41568,115.06468 C 562.93919,105.62795 564.20918,98.695915 555.17814,86.719198 C 546.11182,74.671926 537.5041,75.271644 526.49752,83.614777 L 511.11652,95.203441 z M 503.07325,210.93133 L 487.70989,222.53763 L 526.70918,274.28975 L 539.90298,264.35913 L 524.68073,244.16275 L 527.06196,242.39888 C 539.5502,232.97978 540.82019,226.01247 531.80679,214.07103 C 522.72283,202.02376 514.13275,202.62348 503.07325,210.93133 M 503.32019,401.58867 L 516.47871,391.67569 L 501.2741,371.49695 L 503.62005,369.75071 C 516.17885,360.2787 517.44884,353.3643 508.41779,341.38759 C 499.35147,329.34031 490.74376,329.92239 479.66662,338.26553 L 464.3209,349.81891 L 503.32019,401.58867 z M 464.5502,430.79845 L 478.22024,420.53269 L 439.22095,368.76294 L 425.55091,379.0287 L 464.5502,430.79845 z M 401.98553,437.37771 C 417.36652,457.80339 424.7748,462.1778 438.32137,451.96496 C 442.37828,448.89582 444.60077,445.3857 445.64145,440.79963 L 449.61017,442.05198 L 456.6304,436.83091 L 434.91709,408.04445 L 417.86041,420.88547 L 425.12758,430.56915 L 428.5495,427.99389 L 432.41238,433.12677 C 434.75834,436.19591 434.1939,438.5595 432.11253,440.12935 C 429.99587,441.71684 427.57936,441.61101 425.26869,438.50659 L 407.45354,414.85301 C 405.10759,411.76623 405.65439,409.45555 407.7534,407.85043 C 409.87005,406.26294 412.25128,406.36877 414.5796,409.47319 L 416.90792,412.47178 L 430.54268,402.20602 C 427.40298,398.02564 425.19813,395.62677 422.92273,394.14511 C 415.70848,389.43556 407.03021,391.65805 399.72777,397.1437 C 386.55161,407.1096 387.2748,417.86924 401.98553,437.37771 M 410.75199,361.65452 L 441.17885,338.75941 L 432.7828,327.68227 L 416.06126,340.25871 L 408.44131,330.20461 L 421.6351,320.25635 L 413.23905,309.16158 L 400.0629,319.0922 L 393.46601,310.29046 L 409.37617,298.27846 L 401.33289,287.60701 L 371.7527,309.9024 L 410.75199,361.65452 z M 374.52198,389.01223 L 387.69813,379.06397 L 372.49352,358.88523 L 374.82184,357.08608 C 387.34536,347.68462 388.61535,340.73495 379.5843,328.75824 C 370.51798,316.71096 361.91027,317.32832 350.85077,325.63618 L 335.52269,337.24248 L 374.52198,389.01223 z M 335.75199,418.18674 L 349.40439,407.90334 L 310.38746,356.13359 L 296.7527,366.43462 L 335.75199,418.18674 z M 273.15204,424.78363 C 288.53304,445.17404 295.92368,449.54845 309.50552,439.35325 C 313.58007,436.2841 315.82019,432.79163 316.77269,428.18791 L 320.81196,429.4579 L 327.79691,424.16628 L 306.13652,395.43274 L 289.07984,408.2914 L 296.32937,417.95743 L 299.75129,415.3469 L 303.59653,420.51505 C 305.94249,423.60184 305.39569,425.94779 303.27904,427.53528 C 301.16239,429.14041 298.79879,428.96402 296.45284,425.87724 L 278.62005,402.22366 C 276.2741,399.13688 276.85618,396.80856 278.97283,395.22108 C 281.07184,393.63359 283.47071,393.7747 285.76375,396.86148 L 288.05679,399.86007 L 301.74447,389.57667 C 298.56949,385.39629 296.36464,383.01505 294.10688,381.5334 C 286.87499,376.80621 278.24964,379.0287 270.89428,384.54963 C 257.7534,394.46261 258.44131,405.22225 273.15204,424.78363 M 281.9185,349.07808 L 312.34536,326.1477 L 303.98459,315.03528 L 287.22777,327.68227 L 279.60782,317.5929 L 292.80161,307.64464 L 284.4232,296.53222 L 271.22941,306.46285 L 264.63252,297.64347 L 280.54268,285.66675 L 272.4994,274.9953 L 242.91921,297.29069 L 281.9185,349.07808 z M 245.68849,376.40052 L 258.86464,366.43462 L 243.6424,346.29116 L 245.98835,344.47437 C 258.52951,335.03763 259.7995,328.12324 250.76845,316.12888 C 241.70213,304.09925 233.1297,304.68133 222.0702,313.02446 L 206.6892,324.63077 L 245.68849,376.40052 z M 206.9185,405.6103 L 220.60618,395.30927 L 181.57161,343.53951 L 167.91921,353.82291 L 206.9185,405.6103 z M 144.35383,412.17192 C 159.75246,432.57996 167.12546,436.95438 180.68967,426.7239 C 184.74658,423.65475 186.95143,420.17992 187.99211,415.55856 L 191.97847,416.82855 L 198.98106,411.5722 L 177.30303,382.82103 L 160.21107,395.69732 L 167.49588,405.32808 L 170.9178,402.77046 L 174.76305,407.8857 C 177.109,410.97249 176.57984,413.31844 174.46319,414.90593 C 172.34654,416.47578 169.9653,416.38759 167.61935,413.28316 L 149.8042,389.64723 C 147.49353,386.54281 148.04033,384.19685 150.10406,382.60936 C 152.25599,381.02188 154.63722,381.12771 156.98318,384.23213 L 159.25858,387.28363 L 172.89334,376.9826 C 169.736,372.78458 167.54879,370.3857 165.29103,368.90405 C 158.05914,364.21214 149.41615,366.43462 142.07843,371.95555 C 128.90228,381.86854 129.62546,392.62818 144.35383,412.17192 M 188.68003,241.60513 C 181.4305,236.89558 172.80514,239.11807 165.46742,244.639 C 152.29127,254.56962 153.0321,265.31162 167.74282,284.83773 C 183.10618,305.26341 190.51446,309.62018 204.0963,299.42498 C 208.17085,296.35584 210.34042,292.84572 211.36347,288.25965 L 215.38511,289.52964 L 222.37005,284.25565 L 200.70966,255.50447 L 183.60006,268.34549 L 190.90251,278.02917 L 194.32443,275.43627 L 198.15204,280.56915 C 200.49799,283.67357 199.96883,286.00189 197.85218,287.60701 C 195.75317,289.1945 193.37194,289.05339 191.02598,285.96661 L 173.1932,262.33067 C 170.84724,259.24389 171.39404,256.89794 173.54597,255.29281 C 175.60971,253.68768 178.00858,253.82879 180.35453,256.93321 L 182.64757,259.9318 L 196.28233,249.66604 C 193.14263,245.45038 190.93779,243.06915 188.68003,241.60513 M 204.97824,216.20532 L 191.32584,226.48872 L 230.32513,278.29375 L 243.95989,267.99271 L 204.97824,216.20532 z M 245.42391,185.72555 L 230.06055,197.27893 L 269.09512,249.06633 L 282.236,239.13571 L 267.04903,218.95697 L 269.39498,217.19309 C 281.9185,207.73872 283.18849,200.80668 274.17509,188.82997 C 265.09113,176.7827 256.50105,177.38241 245.42391,185.72555 M 359.15862,290.88782 L 372.79338,280.58679 L 333.79409,228.83467 L 320.14169,239.11807 L 359.15862,290.88782 z M 302.36182,267.90452 C 304.4432,266.29939 306.85971,266.4405 309.15274,269.52729 L 311.46342,272.56115 L 325.11582,262.27776 C 321.95848,258.07973 319.77128,255.64558 317.49588,254.21684 C 310.28162,249.48966 301.63863,251.71214 294.30091,257.23307 C 281.12476,267.14605 281.84795,277.92333 296.55867,297.4318 C 311.92203,317.85748 319.31267,322.24953 332.87687,312.00142 C 336.95143,308.94991 339.17391,305.47507 340.16168,300.87136 L 344.21859,302.15899 L 351.20354,296.86736 L 329.52551,268.11619 L 312.43355,280.97484 L 319.736,290.62324 L 323.15792,288.04798 L 326.98553,293.18086 C 329.33148,296.26764 328.80232,298.59596 326.68567,300.18345 C 324.58666,301.78857 322.18779,301.6651 319.84183,298.57832 L 302.02669,274.92475 C 299.66309,271.83796 300.20989,269.49201 302.36182,267.90452 M 374.23976,198.33726 L 358.89404,209.90828 L 397.91097,261.67804 L 411.06949,251.72978 L 395.8296,231.56868 L 398.19319,229.78716 C 410.71671,220.35043 412.02198,213.4184 402.9733,201.44168 C 393.92461,189.39441 385.33454,189.99413 374.23976,198.33726 M 487.95683,303.4819 L 501.62687,293.21614 L 462.60994,241.44638 L 448.9399,251.71214 L 487.95683,303.4819 z M 431.14239,280.53387 C 433.25904,278.92874 435.65792,279.05222 437.98623,282.139 L 440.26163,285.15523 L 453.93167,274.88947 C 450.79197,270.69144 448.58713,268.29257 446.32936,266.81092 C 439.0622,262.11901 430.4192,264.34149 423.1344,269.82714 C 409.94061,279.7754 410.6638,290.53505 425.39216,310.07879 C 440.75552,330.46919 448.14616,334.86125 461.728,324.6484 C 465.76728,321.56162 467.98976,318.06915 468.99517,313.46543 L 473.03444,314.73542 L 479.96648,309.47907 L 458.359,280.71026 L 441.2494,293.56891 L 448.56949,303.23495 L 451.93849,300.65969 L 455.80138,305.79257 C 458.16497,308.87936 457.61817,311.22531 455.48388,312.8128 C 453.36723,314.40029 451.00364,314.29445 448.67532,311.17239 L 430.84254,287.51882 C 428.49658,284.43204 429.04338,282.12136 431.14239,280.53387 M 454.53139,153.18204 C 456.64804,151.59455 459.04691,151.71802 461.37523,154.82244 L 463.65062,157.85631 L 477.3383,147.53764 C 474.18096,143.37489 471.99376,140.97602 469.71836,139.49436 C 462.46883,134.76717 453.8082,137.0073 446.52339,142.49295 C 433.3296,152.44121 434.03515,163.20085 448.78115,182.7446 C 464.14451,203.15264 471.53515,207.52705 485.09935,197.31421 C 489.15627,194.24507 491.37875,190.78787 492.38416,186.16652 L 496.4058,187.43651 L 503.39075,182.16252 L 481.71271,153.37606 L 464.67367,166.23472 L 471.90556,175.93604 L 475.32748,173.36078 L 479.22565,178.49366 C 481.5716,181.58044 480.97189,183.92639 478.87287,185.51388 C 476.75622,187.08373 474.37499,186.9779 472.06431,183.87348 L 454.21389,160.20226 C 451.88557,157.09784 452.43237,154.78717 454.53139,153.18204 M 416.81972,182.9739 L 432.76516,170.96191 L 424.72189,160.27282 L 395.14169,182.58585 L 434.14098,234.37324 L 464.5502,211.46049 L 456.20707,200.34808 L 439.39733,212.95979 L 431.83031,202.88806 L 445.0241,192.95744 L 436.62805,181.84502 L 423.46953,191.758 L 416.81972,182.9739 z M 325.73318,140.58796 C 327.83219,139.00048 330.23106,139.10631 332.57701,142.19309 L 334.81714,145.22696 L 348.50481,134.94356 C 345.36511,130.78082 343.16027,128.34667 340.88487,126.90029 C 333.65298,122.19074 325.00999,124.39559 317.67226,129.91652 C 304.51375,139.8295 305.23694,150.60678 319.9653,170.16816 C 335.32866,190.54093 342.7193,194.95062 356.26587,184.72014 C 360.34042,181.63335 362.5629,178.15852 363.58595,173.57244 L 367.57231,174.82479 L 374.59254,169.56844 L 352.89686,140.78199 L 335.82255,153.64065 L 343.08971,163.30669 L 346.51163,160.73143 L 350.35688,165.84667 C 352.70284,168.96873 352.17367,171.31468 350.05702,172.90217 C 347.97565,174.48966 345.55914,174.34855 343.21319,171.2794 L 325.41568,147.59055 C 323.08736,144.50377 323.61653,142.15781 325.73318,140.58796 M 287.98623,170.36219 L 303.93167,158.33256 L 295.92368,147.66111 L 266.32584,169.99177 L 305.30749,221.74389 L 335.71671,198.84878 L 327.3383,187.754 L 310.58148,200.36572 L 303.01446,190.25871 L 316.17297,180.34573 L 307.82984,169.23331 L 294.63605,179.16393 L 287.98623,170.36219 z M 138.1979,206.34525 L 140.57913,204.5461 C 153.10265,195.127 154.37264,188.17733 145.3416,176.21826 C 136.27528,164.15335 127.66756,164.73542 116.60806,173.11383 L 101.22706,184.68486 L 140.26164,236.47225 L 153.42015,226.54163 L 138.1979,206.34525 z M 153.10265,336.46637 L 183.52951,313.51835 L 175.1511,302.42357 L 158.41192,315.03528 L 150.79197,304.98119 L 163.96813,295.03293 L 155.58972,283.93815 L 142.41356,293.86877 L 135.81667,285.04939 L 151.76211,273.0374 L 143.68355,262.38359 L 114.10336,284.67898 L 153.10265,336.46637 z M 114.84419,333.67945 L 117.19014,331.89793 C 129.69602,322.44356 130.96601,315.49389 121.93497,303.51717 C 112.86864,291.50518 104.26093,292.06962 93.254346,300.41275 L 77.873349,312.00142 L 116.87264,363.78881 L 130.04879,353.85819 L 114.84419,333.67945 z M 542.07254,321.77329 L 528.91403,331.70391 L 522.24658,322.88453 L 538.20966,310.89017 L 530.16638,300.20109 L 500.55091,322.53175 L 539.56784,374.31915 L 569.95942,351.38876 L 561.59865,340.25871 L 544.84183,352.92333 L 537.2748,342.79869 L 550.41568,332.8857 L 542.07254,321.77329 z"
     style="fill:#F66041" />
  <path
     d="M 211.21531,514.79774 L 117.60642,514.79774 L 117.60642,189.57432 L 56.41757,189.57432 L 56.41757,134.38265 C 98.415453,134.98236 126.02011,117.57291 141.01305,76.774463 L 211.21531,76.774463 L 211.21531,514.79774 z"
     style="fill:#FFFFFF" />
  <path
     d="M 418.20084,155.97601 C 398.39251,155.97601 393.61241,165.57149 393.61241,206.9873 C 393.61241,248.38546 398.39251,257.98095 418.20084,257.98095 C 438.00917,257.98095 442.80691,248.38546 442.80691,206.9873 C 442.80691,165.57149 438.00917,155.97601 418.20084,155.97601 M 418.20084,328.78292 C 396.611,328.78292 391.1959,343.77587 391.1959,384.59195 C 391.1959,425.99012 396.611,440.40098 418.20084,440.40098 C 439.79068,440.40098 445.20578,425.99012 445.20578,384.59195 C 445.20578,343.77587 439.79068,328.78292 418.20084,328.78292 M 297.58701,389.98941 C 297.58701,346.79209 307.20014,316.18885 342.60112,289.18391 C 313.19731,259.7801 302.40239,233.9746 302.40239,194.37559 C 302.40239,125.37276 346.19943,76.760348 418.20084,76.760348 C 490.20225,76.760348 533.99929,125.37276 533.99929,194.37559 C 533.99929,233.9746 523.20437,259.7801 493.8182,289.18391 C 529.21918,316.18885 538.81467,346.79209 538.81467,389.98941 C 538.81467,468.58772 514.2086,521.99788 418.20084,521.99788 C 322.19308,521.99788 297.58701,468.58772 297.58701,389.98941"
     style="fill:#FFFFFF" />
  <path
     style="fill:#000000"
     d="M 587.988,587.988 L 11.99435,587.988 L 11.99435,11.99436 L 587.988,11.99436 L 587.988,587.988 z M 0,600 L 600,600 L 600,0 L 0,0 L 0,600 z" />
  <path
     d="M 575.99188,58.53069 L 570.41803,58.53069 L 570.41803,31.349364 L 570.24164,31.349364 L 560.68144,58.53069 L 556.14828,58.53069 L 547.04668,31.349364 L 546.88793,31.349364 L 546.88793,58.53069 L 541.31408,58.53069 L 541.31408,24.011641 L 550.16874,24.011641 L 558.75881,49.676033 L 558.9352,49.676033 L 567.31361,24.011641 L 575.99188,24.011641 L 575.99188,58.53069 z M 537.32772,24.011641 L 537.32772,28.474246 L 527.82043,28.474246 L 527.82043,58.53069 L 522.24658,58.53069 L 522.24658,28.474246 L 512.75693,28.474246 L 512.75693,24.011641 L 537.32772,24.011641 z"
     style="fill:#000000" />
</svg>
