<?xml version="1.0" encoding="UTF-8" standalone="no"?>
<!-- Created with Inkscape (http://www.inkscape.org/) -->
<svg xmlns:svg="http://www.w3.org/2000/svg" xmlns="http://www.w3.org/2000/svg" xmlns:xlink="http://www.w3.org/1999/xlink" version="1.0" width="800" height="1042.05" viewBox="0 0 800 975.442" id="Layer_1" xml:space="preserve"><defs id="defs314"/>


































































<g transform="matrix(1.15125, 0, 0, 1.15125, -65.9517, -114.231)" id="g2180"><g id="g3">
	<g id="g5">
		<g id="g7">
			<rect width="680.76801" height="680.76703" x="64.350998" y="77.359001" id="rect9"/>
		</g>
	</g>
</g><g id="g11">
	<defs id="defs13">
		<rect width="680.76801" height="680.76703" x="64.350998" y="77.359001" id="XMLID_1_"/>
	</defs>
	<clipPath id="XMLID_17_">
		<use id="use17" x="0" y="0" width="800" height="975.44202" xlink:href="#XMLID_1_"/>
	</clipPath>
	<polyline id="polyline19" points="635.17,815.963 650.65,804.319 632.204,779.843 650.691,765.921 641.53,753.781 623.057,767.688 615.399,757.534 635.115,742.674 625.596,730.022 590.386,756.553 635.17,815.963" clip-path="url(#XMLID_17_)" style="fill: rgb(51, 51, 51);"/>
	<polyline id="polyline21" points="676.092,785.141 712.033,758.043 702.513,745.392 682.038,760.831 673.14,749.006 691.6,735.085 682.452,722.93 663.965,736.852 656.321,726.711 676.051,711.838 666.517,699.2 631.321,725.717 676.092,785.141" clip-path="url(#XMLID_17_)" style="fill: rgb(51, 51, 51);"/>
	<polyline id="polyline23" points="740.523,736.576 756.004,724.917 711.232,665.508 695.739,677.167 740.523,736.576" clip-path="url(#XMLID_17_)" style="fill: rgb(51, 51, 51);"/>
	<path d="M 769.346,648.579 C 759.757,635.845 749.809,634.59 736.329,644.744 C 723.264,654.595 721.815,666.005 730.851,677.98 C 746.718,699.048 766.626,674.904 775.47,686.645 C 777.912,689.874 777.953,693.764 774.808,696.137 C 771.815,698.4 768.351,698.137 764.516,693.06 L 763.44,691.639 L 748.47,702.925 L 750.042,705.008 C 759.314,717.328 769.8,716.349 782.617,706.692 C 796.262,696.399 799.393,685.169 789.874,672.517 C 773.497,650.8 752.54,675.607 743.696,663.866 C 741.681,661.204 741.24,657.492 744.565,654.995 C 747.558,652.732 751.173,654.581 753.808,658.072 L 754.871,659.479 L 769.346,648.579" style="fill: rgb(51, 51, 51);" clip-path="url(#XMLID_17_)" id="path25"/>
	<polyline id="polyline27" points="465.786,812.859 481.266,801.201 462.833,776.739 481.293,762.818 472.146,750.663 453.672,764.583 446.015,754.443 465.744,739.583 456.197,726.932 421.015,753.45 465.786,812.859" clip-path="url(#XMLID_17_)" style="fill: rgb(51, 51, 51);"/>
	<polyline id="polyline29" points="506.693,782.037 542.648,754.939 533.114,742.288 512.64,757.712 503.741,745.903 522.229,731.981 513.067,719.827 494.594,733.761 486.937,723.593 506.652,708.734 497.132,696.095 461.923,722.614 506.693,782.037" clip-path="url(#XMLID_17_)" style="fill: rgb(51, 51, 51);"/>
</g><polyline id="polyline31" points="571.139,733.471 586.619,721.813 541.834,662.39 526.368,674.062 571.139,733.471" style="fill: rgb(51, 51, 51);"/><path d="M 599.975,645.489 C 590.372,632.74 580.424,631.499 566.958,641.653 C 553.879,651.505 552.431,662.9 561.453,674.89 C 577.32,695.93 597.228,671.799 606.072,683.527 C 608.514,686.783 608.57,690.646 605.41,693.033 C 602.417,695.296 598.953,695.034 595.118,689.956 L 594.069,688.549 L 579.086,699.821 L 580.659,701.918 C 589.944,714.226 600.402,713.246 613.233,703.574 C 626.864,693.309 630.024,682.064 620.49,669.413 C 604.127,647.696 583.142,672.503 574.312,660.776 C 572.311,658.099 571.856,654.401 575.181,651.89 C 578.189,649.627 581.789,651.476 584.41,654.981 L 585.486,656.388 L 599.975,645.489" style="fill: rgb(51, 51, 51);" id="path33"/><polyline id="polyline35" points="639.792,681.733 655.286,670.075 636.84,645.613 655.313,631.692 646.152,619.55 627.692,633.458 620.035,623.303 639.751,608.458 630.217,595.792 595.021,622.324 639.792,681.733" style="fill: rgb(51, 51, 51);"/><g id="g37">
	<defs id="defs39">
		<rect width="680.76801" height="680.76703" x="64.350998" y="77.359001" id="XMLID_3_"/>
	</defs>
	<clipPath id="XMLID_18_">
		<use id="use43" x="0" y="0" width="800" height="975.44202" xlink:href="#XMLID_3_"/>
	</clipPath>
	<polyline id="polyline45" points="680.728,650.911 716.669,623.814 707.148,611.162 686.674,626.6 677.762,614.777 696.235,600.856 687.088,588.701 668.601,602.622 660.957,592.481 680.687,577.608 671.152,564.97 635.943,591.488 680.728,650.911" clip-path="url(#XMLID_18_)" style="fill: rgb(51, 51, 51);"/>
	<polyline id="polyline47" points="745.146,602.345 760.64,590.687 715.854,531.278 700.374,542.95 745.146,602.345" clip-path="url(#XMLID_18_)" style="fill: rgb(51, 51, 51);"/>
	<path d="M 773.981,514.349 C 764.392,501.615 754.444,500.372 740.964,510.527 C 727.899,520.365 726.449,531.775 735.486,543.764 C 751.353,564.818 771.261,540.673 780.091,552.414 C 782.547,555.656 782.589,559.533 779.429,561.92 C 776.421,564.169 772.972,563.907 769.151,558.844 L 768.075,557.408 L 753.105,568.694 L 754.664,570.777 C 763.949,583.098 774.435,582.119 787.253,572.461 C 800.898,562.169 804.029,550.938 794.496,538.286 C 778.133,516.569 757.176,541.377 748.332,529.636 C 746.317,526.973 745.876,523.262 749.201,520.764 C 752.194,518.501 755.796,520.35 758.444,523.841 L 759.507,525.262 L 773.981,514.349" style="fill: rgb(51, 51, 51);" clip-path="url(#XMLID_18_)" id="path49"/>
	<path d="M 295.628,744.053 C 286.025,731.332 276.091,730.077 262.612,740.245 C 249.547,750.082 248.098,761.492 257.121,773.468 C 272.988,794.523 292.896,770.392 301.74,782.119 C 304.182,785.361 304.238,789.238 301.078,791.625 C 298.084,793.888 294.621,793.611 290.786,788.548 L 289.738,787.127 L 274.74,798.413 L 276.313,800.496 C 285.599,812.817 296.07,811.823 308.888,802.166 C 322.533,791.887 325.693,780.643 316.159,768.005 C 299.782,746.275 278.811,771.081 269.967,759.354 C 267.967,756.692 267.511,752.98 270.85,750.469 C 273.844,748.206 277.459,750.055 280.08,753.56 L 281.156,754.981 L 295.628,744.053" style="fill: rgb(51, 51, 51);" clip-path="url(#XMLID_18_)" id="path51"/>
	<polyline id="polyline53" points="335.46,780.326 350.954,768.667 332.494,744.192 350.981,730.285 341.82,718.129 323.346,732.05 315.703,721.896 335.419,707.023 325.885,694.385 290.689,720.917 335.46,780.326" clip-path="url(#XMLID_18_)" style="fill: rgb(51, 51, 51);"/>
</g><polyline id="polyline55" points="376.396,749.476 412.337,722.392 402.803,709.754 382.328,725.179 373.429,713.356 391.903,699.434 382.742,687.293 364.268,701.201 356.61,691.06 376.34,676.201 366.82,663.548 331.61,690.066 376.396,749.476" style="fill: rgb(51, 51, 51);"/><polyline id="polyline57" points="440.813,700.938 456.308,689.266 411.522,629.857 396.042,641.515 440.813,700.938" style="fill: rgb(51, 51, 51);"/><path d="M 469.648,612.928 C 460.059,600.207 450.112,598.965 436.619,609.119 C 423.567,618.957 422.118,630.352 431.141,642.328 C 447.007,663.396 466.916,639.252 475.76,650.993 C 478.202,654.249 478.257,658.112 475.098,660.499 C 472.09,662.748 468.641,662.5 464.805,657.408 L 463.743,656.001 L 448.773,667.287 L 450.332,669.37 C 459.617,681.678 470.089,680.712 482.921,671.04 C 496.552,660.762 499.697,649.53 490.164,636.865 C 473.801,615.148 452.829,639.955 443.999,628.214 C 441.972,625.566 441.544,621.854 444.854,619.343 C 447.862,617.094 451.463,618.943 454.098,622.434 L 455.174,623.841 L 469.648,612.928" style="fill: rgb(51, 51, 51);" id="path59"/><polyline id="polyline61" points="509.48,649.2 524.961,637.528 506.528,613.066 524.988,599.145 515.841,586.99 497.367,600.924 489.71,590.77 509.439,575.911 499.905,563.259 464.71,589.777 509.48,649.2" style="fill: rgb(51, 51, 51);"/><polyline id="polyline63" points="550.402,618.364 586.356,591.281 576.823,578.615 556.362,594.04 547.436,582.23 565.924,568.323 556.763,556.167 538.288,570.088 530.645,559.934 550.36,545.075 540.827,532.423 505.617,558.955 550.402,618.364" style="fill: rgb(51, 51, 51);"/><polyline id="polyline65" points="614.834,569.813 630.313,558.14 585.543,498.731 570.063,510.389 614.834,569.813" style="fill: rgb(51, 51, 51);"/><path d="M 643.669,481.816 C 634.08,469.082 624.133,467.826 610.653,477.98 C 597.588,487.832 596.125,499.227 605.148,511.217 C 621.028,532.257 640.937,508.126 649.767,519.867 C 652.223,523.109 652.278,526.986 649.105,529.359 C 646.111,531.622 642.662,531.36 638.84,526.283 L 637.764,524.875 L 622.78,536.161 L 624.353,538.245 C 633.638,550.552 644.124,549.572 656.927,539.914 C 670.586,529.636 673.718,518.391 664.185,505.739 C 647.822,484.022 626.85,508.843 618.006,497.102 C 616.006,494.425 615.55,490.728 618.889,488.23 C 621.883,485.967 625.485,487.802 628.119,491.307 L 629.182,492.714 L 643.669,481.816" style="fill: rgb(51, 51, 51);" id="path67"/><g id="g69">
	<defs id="defs71">
		<rect width="680.76801" height="680.76703" x="64.350998" y="77.359001" id="XMLID_5_"/>
	</defs>
	<clipPath id="XMLID_19_">
		<use id="use75" x="0" y="0" width="800" height="975.44202" xlink:href="#XMLID_5_"/>
	</clipPath>
	<polyline id="polyline77" points="683.515,518.06 698.981,506.402 680.534,481.94 699.022,468.019 689.861,455.877 671.388,469.785 663.729,459.644 683.445,444.785 673.926,432.133 638.716,458.651 683.515,518.06" clip-path="url(#XMLID_19_)" style="fill: rgb(51, 51, 51);"/>
	<polyline id="polyline79" points="724.423,487.238 760.377,460.155 750.844,447.489 730.369,462.928 721.47,451.118 739.931,437.183 730.783,425.028 712.295,438.962 704.651,428.808 724.381,413.935 714.848,401.297 679.651,427.815 724.423,487.238" clip-path="url(#XMLID_19_)" style="fill: rgb(51, 51, 51);"/>
	<polyline id="polyline81" points="97.422,828.959 112.888,817.301 68.117,757.892 52.637,769.537 97.422,828.959" clip-path="url(#XMLID_19_)" style="fill: rgb(51, 51, 51);"/>
	<path d="M 126.244,740.963 C 116.655,728.229 106.708,726.973 93.228,737.127 C 80.163,746.979 78.7,758.374 87.723,770.364 C 103.59,791.418 123.512,767.287 132.342,779.028 C 134.798,782.257 134.84,786.147 131.68,788.52 C 128.686,790.783 125.223,790.507 121.415,785.429 L 120.339,784.022 L 105.355,795.308 L 106.928,797.391 C 116.213,809.712 126.699,808.719 139.502,799.075 C 153.161,788.783 156.293,777.538 146.759,764.9 C 130.396,743.183 109.425,767.976 100.581,756.25 C 98.581,753.587 98.125,749.876 101.464,747.378 C 104.458,745.115 108.059,746.964 110.694,750.455 L 111.756,751.862 L 126.244,740.963" style="fill: rgb(51, 51, 51);" clip-path="url(#XMLID_19_)" id="path83"/>
	<polyline id="polyline85" points="166.089,777.221 181.556,765.563 163.123,741.087 181.597,727.167 172.436,715.025 153.962,728.932 146.318,718.792 166.02,703.932 156.5,691.294 121.291,717.812 166.089,777.221" clip-path="url(#XMLID_19_)" style="fill: rgb(51, 51, 51);"/>
</g><polyline id="polyline87" points="206.997,746.385 242.938,719.302 233.418,706.65 212.943,722.076 204.044,710.265 222.505,696.331 213.357,684.175 194.883,698.11 187.24,687.956 206.956,673.096 197.422,660.445 162.226,686.962 206.997,746.385" style="fill: rgb(51, 51, 51);"/><polyline id="polyline89" points="271.442,697.834 286.909,686.175 242.138,626.752 226.644,638.424 271.442,697.834" style="fill: rgb(51, 51, 51);"/><path d="M 300.264,609.824 C 290.661,597.103 280.714,595.847 267.234,606.015 C 254.168,615.853 252.734,627.263 261.756,639.239 C 277.623,660.293 297.531,636.162 306.375,647.889 C 308.817,651.131 308.873,655.008 305.713,657.395 C 302.719,659.658 299.256,659.382 295.421,654.319 L 294.358,652.898 L 279.375,664.197 L 280.948,666.267 C 290.22,678.587 300.705,677.594 313.523,667.936 C 327.168,657.658 330.314,646.413 320.78,633.775 C 304.417,612.059 283.446,636.852 274.602,625.125 C 272.587,622.462 272.146,618.751 275.471,616.239 C 278.465,613.976 282.08,615.826 284.715,619.33 L 285.778,620.751 L 300.264,609.824" style="fill: rgb(51, 51, 51);" id="path91"/><polyline id="polyline93" points="340.096,646.095 355.563,634.437 337.13,609.961 355.617,596.054 346.456,583.899 327.982,597.82 320.339,587.652 340.055,572.806 330.521,560.155 295.325,586.686 340.096,646.095" style="fill: rgb(51, 51, 51);"/><polyline id="polyline95" points="381.018,615.246 416.973,588.163 407.438,575.525 386.964,590.95 378.065,579.125 396.525,565.205 387.378,553.063 368.903,566.97 361.246,556.83 380.976,541.97 371.429,529.319 336.246,555.836 381.018,615.246" style="fill: rgb(51, 51, 51);"/><polyline id="polyline97" points="445.449,566.708 460.929,555.036 416.145,495.626 400.678,507.285 445.449,566.708" style="fill: rgb(51, 51, 51);"/><path d="M 474.271,478.698 C 464.682,465.977 454.749,464.735 441.255,474.89 C 428.203,484.727 426.74,496.123 435.777,508.099 C 451.643,529.166 471.539,505.022 480.396,516.763 C 482.838,520.019 482.893,523.882 479.72,526.269 C 476.726,528.518 473.263,528.27 469.441,523.179 L 468.379,521.772 L 453.409,533.057 L 454.968,535.141 C 464.253,547.448 474.725,546.482 487.542,536.81 C 501.188,526.532 504.333,515.301 494.8,502.649 C 478.423,480.92 457.465,505.726 448.621,493.985 C 446.607,491.336 446.165,487.625 449.49,485.114 C 452.484,482.85 456.099,484.714 458.734,488.204 L 459.81,489.611 L 474.271,478.698" style="fill: rgb(51, 51, 51);" id="path99"/><polyline id="polyline101" points="514.116,514.97 529.597,503.297 511.164,478.835 529.624,464.915 520.477,452.759 502.003,466.695 494.346,456.54 514.075,441.68 504.541,429.029 469.346,455.546 514.116,514.97" style="fill: rgb(51, 51, 51);"/><polyline id="polyline103" points="555.038,484.133 590.979,457.05 581.445,444.399 560.971,459.81 552.071,448 570.56,434.092 561.398,421.937 542.924,435.858 535.28,425.69 554.982,410.844 545.463,398.193 510.253,424.724 555.038,484.133" style="fill: rgb(51, 51, 51);"/><polyline id="polyline105" points="619.47,435.583 634.949,423.911 590.165,364.5 574.698,376.159 619.47,435.583" style="fill: rgb(51, 51, 51);"/><path d="M 648.305,347.585 C 638.702,334.851 628.769,333.595 615.289,343.75 C 602.21,353.601 600.761,364.998 609.784,376.987 C 625.65,398.027 645.559,373.896 654.403,385.637 C 656.859,388.879 656.9,392.756 653.741,395.129 C 650.747,397.392 647.284,397.13 643.448,392.053 L 642.399,390.646 L 627.417,401.932 L 628.989,404.015 C 638.274,416.322 648.746,415.342 661.563,405.684 C 675.209,395.406 678.354,384.162 668.821,371.509 C 652.458,349.793 631.486,374.613 622.642,362.872 C 620.627,360.209 620.186,356.498 623.525,354.001 C 626.519,351.738 630.121,353.587 632.755,357.077 L 633.818,358.484 L 648.305,347.585" style="fill: rgb(51, 51, 51);" id="path107"/><g id="g109">
	<defs id="defs111">
		<rect width="680.76801" height="680.76703" x="64.350998" y="77.359001" id="XMLID_7_"/>
	</defs>
	<clipPath id="XMLID_20_">
		<use id="use115" x="0" y="0" width="800" height="975.44202" xlink:href="#XMLID_7_"/>
	</clipPath>
	<polyline id="polyline117" points="688.123,383.831 703.617,372.171 685.17,347.71 703.645,333.789 694.483,321.647 676.023,335.555 668.366,325.414 688.081,310.555 678.562,297.903 643.352,324.421 688.123,383.831" clip-path="url(#XMLID_20_)" style="fill: rgb(51, 51, 51);"/>
	<polyline id="polyline119" points="729.059,353.008 764.999,325.924 755.479,313.259 735.005,328.698 726.092,316.874 744.566,302.953 735.419,290.797 716.931,304.732 709.287,294.578 729.017,279.705 719.483,267.067 684.287,293.584 729.059,353.008" clip-path="url(#XMLID_20_)" style="fill: rgb(51, 51, 51);"/>
	<polyline id="polyline121" points="76.685,713.838 112.626,686.755 103.106,674.103 82.632,689.542 73.719,677.705 92.193,663.797 83.045,651.642 64.558,665.563 56.914,655.422 76.644,640.549 67.096,627.912 31.914,654.429 76.685,713.838" clip-path="url(#XMLID_20_)" style="fill: rgb(51, 51, 51);"/>
</g><polyline id="polyline123" points="141.117,665.288 156.583,653.628 111.812,594.219 96.332,605.864 141.117,665.288" style="fill: rgb(51, 51, 51);"/><path d="M 169.938,577.291 C 160.349,564.557 150.402,563.301 136.922,573.469 C 123.857,583.307 122.394,594.702 131.445,606.706 C 147.311,627.76 167.206,603.615 176.064,615.356 C 178.506,618.598 178.547,622.475 175.388,624.862 C 172.38,627.111 168.931,626.849 165.109,621.758 L 164.047,620.35 L 149.064,631.636 L 150.623,633.734 C 159.908,646.041 170.394,645.061 183.211,635.403 C 196.857,625.111 199.988,613.88 190.468,601.242 C 174.091,579.513 153.134,604.319 144.29,592.578 C 142.276,589.915 141.82,586.204 145.159,583.706 C 148.153,581.443 151.754,583.293 154.403,586.783 L 155.466,588.19 L 169.938,577.291" style="fill: rgb(51, 51, 51);" id="path125"/><polyline id="polyline127" points="209.784,613.563 225.25,601.89 206.818,577.428 225.292,563.494 216.145,551.352 197.657,565.273 190.013,555.119 209.743,540.259 200.209,527.608 164.999,554.139 209.784,613.563" style="fill: rgb(51, 51, 51);"/><polyline id="polyline129" points="250.692,582.712 286.646,555.629 277.113,542.977 256.638,558.403 247.739,546.592 266.213,532.671 257.052,520.516 238.592,534.437 230.935,524.283 250.65,509.437 241.117,496.772 205.921,523.303 250.692,582.712" style="fill: rgb(51, 51, 51);"/><polyline id="polyline131" points="315.137,534.162 330.604,522.502 285.833,463.093 270.366,474.751 315.137,534.162" style="fill: rgb(51, 51, 51);"/><path d="M 343.973,446.165 C 334.357,433.431 324.423,432.175 310.943,442.344 C 297.878,452.181 296.429,463.591 305.452,475.567 C 321.319,496.621 341.228,472.49 350.072,484.231 C 352.513,487.46 352.569,491.336 349.41,493.723 C 346.416,495.986 342.953,495.71 339.131,490.647 L 338.068,489.226 L 323.085,500.511 L 324.644,502.595 C 333.943,514.915 344.415,513.922 357.219,504.278 C 370.865,493.986 374.024,482.756 364.49,470.103 C 348.113,448.387 327.141,473.194 318.298,461.453 C 316.298,458.804 315.856,455.079 319.181,452.582 C 322.175,450.319 325.79,452.154 328.411,455.658 L 329.487,457.079 L 343.973,446.165" style="fill: rgb(51, 51, 51);" id="path133"/><polyline id="polyline135" points="383.791,482.423 399.284,470.764 380.838,446.289 399.313,432.381 390.151,420.226 371.69,434.148 364.033,423.993 383.749,409.133 374.216,396.482 339.02,423.013 383.791,482.423" style="fill: rgb(51, 51, 51);"/><polyline id="polyline137" points="424.726,451.586 460.667,424.49 451.134,411.852 430.659,427.277 421.76,415.466 440.233,401.532 431.087,389.39 412.599,403.311 404.955,393.157 424.671,378.297 415.151,365.646 379.941,392.164 424.726,451.586" style="fill: rgb(51, 51, 51);"/><polyline id="polyline139" points="489.144,403.036 504.638,391.377 459.853,331.954 444.373,343.626 489.144,403.036" style="fill: rgb(51, 51, 51);"/><path d="M 517.979,315.025 C 508.39,302.304 498.443,301.063 484.963,311.217 C 471.897,321.068 470.448,332.464 479.472,344.44 C 495.338,365.494 515.247,341.363 524.091,353.091 C 526.532,356.347 526.588,360.21 523.428,362.597 C 520.435,364.86 516.972,364.597 513.15,359.52 L 512.074,358.113 L 497.104,369.385 L 498.677,371.468 C 507.948,383.788 518.434,382.795 531.251,373.137 C 544.897,362.872 548.028,351.628 538.494,338.976 C 522.131,317.26 501.16,342.053 492.33,330.325 C 490.315,327.662 489.874,323.965 493.199,321.44 C 496.193,319.177 499.794,321.04 502.429,324.544 L 503.505,325.951 L 517.979,315.025" style="fill: rgb(51, 51, 51);" id="path141"/><polyline id="polyline143" points="557.812,351.297 573.291,339.625 554.858,315.177 573.333,301.242 564.172,289.101 545.697,303.021 538.04,292.867 557.77,278.021 548.25,265.356 513.04,291.888 557.812,351.297" style="fill: rgb(51, 51, 51);"/><polyline id="polyline145" points="598.746,320.461 634.688,293.377 625.153,280.726 604.693,296.151 595.767,284.327 614.254,270.419 605.093,258.265 586.619,272.186 578.976,262.031 598.691,247.172 589.157,234.534 553.962,261.051 598.746,320.461" style="fill: rgb(51, 51, 51);"/><polyline id="polyline147" points="663.164,271.91 678.645,260.237 633.873,200.828 618.394,212.5 663.164,271.91" style="fill: rgb(51, 51, 51);"/><g id="g149">
	<defs id="defs151">
		<rect width="680.76801" height="680.76703" x="64.350998" y="77.359001" id="XMLID_9_"/>
	</defs>
	<clipPath id="XMLID_21_">
		<use id="use155" x="0" y="0" width="800" height="975.44202" xlink:href="#XMLID_9_"/>
	</clipPath>
	<path d="M 692,183.913 C 682.411,171.178 672.464,169.936 658.983,180.078 C 645.918,189.929 644.456,201.325 653.506,213.328 C 669.372,234.368 689.267,210.224 698.111,221.965 C 700.566,225.221 700.608,229.084 697.448,231.457 C 694.441,233.72 690.977,233.471 687.17,228.394 L 686.094,226.973 L 671.124,238.259 L 672.684,240.329 C 681.969,252.649 692.455,251.683 705.258,242.012 C 718.917,231.733 722.049,220.503 712.529,207.837 C 696.152,186.121 675.181,210.941 666.338,199.2 C 664.337,196.537 663.882,192.826 667.221,190.329 C 670.215,188.066 673.816,189.915 676.465,193.406 L 677.513,194.813 L 692,183.913" style="fill: rgb(51, 51, 51);" clip-path="url(#XMLID_21_)" id="path157"/>
	<polyline id="polyline159" points="731.846,220.171 747.312,208.499 728.879,184.051 747.353,170.116 738.192,157.975 719.718,171.896 712.061,161.741 731.804,146.882 722.257,134.23 687.061,160.748 731.846,220.171" clip-path="url(#XMLID_21_)" style="fill: rgb(51, 51, 51);"/>
	<polyline id="polyline161" points="81.321,579.608 117.262,552.525 107.729,539.874 87.268,555.312 78.354,543.474 96.829,529.567 87.667,517.412 69.193,531.333 61.55,521.192 81.28,506.319 71.732,493.681 36.522,520.199 81.321,579.608" clip-path="url(#XMLID_21_)" style="fill: rgb(51, 51, 51);"/>
</g><polyline id="polyline163" points="145.739,531.057 161.219,519.399 116.448,459.989 100.968,471.648 145.739,531.057" style="fill: rgb(51, 51, 51);"/><path d="M 174.574,443.06 C 164.985,430.326 155.038,429.084 141.558,439.239 C 128.493,449.076 127.03,460.472 136.081,472.475 C 151.947,493.53 171.842,469.385 180.686,481.112 C 183.142,484.369 183.183,488.246 180.01,490.633 C 177.016,492.867 173.567,492.619 169.745,487.529 L 168.669,486.122 L 153.699,497.408 L 155.258,499.505 C 164.543,511.812 175.029,510.832 187.846,501.175 C 201.491,490.882 204.623,479.652 195.089,467.014 C 178.726,445.284 157.755,470.09 148.911,458.349 C 146.911,455.686 146.455,451.989 149.794,449.478 C 152.788,447.215 156.389,449.064 159.038,452.554 L 160.086,453.961 L 174.574,443.06" style="fill: rgb(51, 51, 51);" id="path165"/><polyline id="polyline167" points="214.42,479.319 229.886,467.661 211.454,443.199 229.928,429.263 220.767,417.123 202.292,431.043 194.649,420.889 214.365,406.03 204.831,393.377 169.635,419.909 214.42,479.319" style="fill: rgb(51, 51, 51);"/><polyline id="polyline169" points="255.328,448.483 291.282,421.399 281.749,408.761 261.274,424.172 252.375,412.362 270.849,398.441 261.688,386.286 243.228,400.208 235.57,390.052 255.286,375.208 245.752,362.542 210.557,389.073 255.328,448.483" style="fill: rgb(51, 51, 51);"/><polyline id="polyline171" points="319.773,399.945 335.239,388.273 290.468,328.863 274.988,340.521 319.773,399.945" style="fill: rgb(51, 51, 51);"/><path d="M 348.595,311.935 C 338.992,299.214 329.045,297.945 315.579,308.113 C 302.499,317.95 301.065,329.36 310.088,341.336 C 325.955,362.391 345.864,338.259 354.708,350.001 C 357.149,353.23 357.205,357.121 354.046,359.494 C 351.052,361.757 347.589,361.48 343.753,356.417 L 342.704,354.996 L 327.707,366.282 L 329.294,368.365 C 338.565,380.685 349.037,379.692 361.855,370.049 C 375.501,359.756 378.646,348.526 369.112,335.874 C 352.75,314.158 331.778,338.964 322.934,327.223 C 320.934,324.574 320.478,320.849 323.803,318.352 C 326.811,316.089 330.425,317.938 333.047,321.429 L 334.11,322.85 L 348.595,311.935" style="fill: rgb(51, 51, 51);" id="path173"/><polyline id="polyline175" points="388.427,348.193 403.906,336.534 385.474,312.059 403.948,298.151 394.787,285.996 376.313,299.917 368.669,289.763 388.385,274.904 378.852,262.252 343.655,288.783 388.427,348.193" style="fill: rgb(51, 51, 51);"/><polyline id="polyline177" points="429.348,317.356 465.303,290.273 455.77,277.622 435.295,293.046 426.396,281.236 444.869,267.315 435.708,255.16 417.234,269.081 409.577,258.927 429.307,244.067 419.787,231.416 384.577,257.933 429.348,317.356" style="fill: rgb(51, 51, 51);"/><polyline id="polyline179" points="493.779,268.805 509.273,257.147 464.475,197.724 449.009,209.396 493.779,268.805" style="fill: rgb(51, 51, 51);"/><path d="M 522.615,180.795 C 513.026,168.074 503.079,166.833 489.599,176.987 C 476.533,186.838 475.071,198.234 484.108,210.21 C 499.974,231.264 519.883,207.133 528.727,218.86 C 531.168,222.116 531.224,225.98 528.05,228.366 C 525.057,230.629 521.593,230.366 517.772,225.289 L 516.709,223.881 L 501.739,235.153 L 503.299,237.236 C 512.584,249.557 523.07,248.564 535.887,238.905 C 549.519,228.64 552.664,217.396 543.13,204.744 C 526.767,183.028 505.796,207.821 496.952,196.094 C 494.937,193.431 494.496,189.719 497.821,187.209 C 500.815,184.946 504.429,186.809 507.065,190.299 L 508.141,191.72 L 522.615,180.795" style="fill: rgb(51, 51, 51);" id="path181"/><polyline id="polyline183" points="562.447,217.067 577.927,205.395 559.494,180.947 577.954,167.025 568.808,154.871 550.333,168.792 542.676,158.637 562.405,143.778 552.872,131.126 517.676,157.657 562.447,217.067" style="fill: rgb(51, 51, 51);"/><g id="g185">
	<defs id="defs187">
		<rect width="680.76801" height="680.76703" x="64.350998" y="77.359001" id="XMLID_11_"/>
	</defs>
	<clipPath id="XMLID_22_">
		<use id="use191" x="0" y="0" width="800" height="975.44202" xlink:href="#XMLID_11_"/>
	</clipPath>
	<polyline id="polyline193" points="603.368,186.231 639.31,159.147 629.79,146.496 609.329,161.92 600.402,150.097 618.89,136.189 609.729,124.034 591.255,137.956 583.611,127.801 603.327,112.942 593.793,100.304 558.584,126.821 603.368,186.231" clip-path="url(#XMLID_22_)" style="fill: rgb(51, 51, 51);"/>
	<polyline id="polyline195" points="667.8,137.68 683.28,126.007 638.509,66.598 623.029,78.27 667.8,137.68" clip-path="url(#XMLID_22_)" style="fill: rgb(51, 51, 51);"/>
	<path d="M 696.636,49.683 C 687.047,36.949 677.099,35.707 663.619,45.848 C 650.554,55.699 649.092,67.095 658.114,79.098 C 673.981,100.139 693.903,75.994 702.733,87.735 C 705.189,90.991 705.231,94.854 702.071,97.241 C 699.077,99.49 695.614,99.241 691.806,94.164 L 690.73,92.743 L 675.747,104.029 L 677.32,106.098 C 686.605,118.419 697.091,117.453 709.894,107.782 C 723.553,97.503 726.685,86.272 717.151,73.607 C 700.788,51.891 679.803,76.698 670.973,64.97 C 668.972,62.307 668.517,58.596 671.856,56.085 C 674.85,53.836 678.451,55.685 681.086,59.176 L 682.148,60.583 L 696.636,49.683" style="fill: rgb(51, 51, 51);" clip-path="url(#XMLID_22_)" id="path197"/>
	<polyline id="polyline199" points="736.481,85.941 751.947,74.269 733.515,49.821 751.989,35.886 742.813,23.745 724.354,37.666 716.696,27.511 736.412,12.652 726.893,0 691.683,26.518 736.481,85.941" clip-path="url(#XMLID_22_)" style="fill: rgb(51, 51, 51);"/>
	<path d="M 44.263,410.527 C 34.66,397.793 24.713,396.538 11.247,406.692 C -1.833,416.543 -3.281,427.939 5.742,439.928 C 21.622,460.968 41.531,436.838 50.361,448.578 C 52.817,451.821 52.858,455.698 49.698,458.071 C 46.704,460.334 43.241,460.071 39.42,454.994 L 38.357,453.587 L 23.374,464.873 L 24.947,466.942 C 34.232,479.262 44.704,478.283 57.522,468.625 C 71.167,458.347 74.313,447.103 64.765,434.45 C 48.416,412.734 27.444,437.527 18.6,425.813 C 16.6,423.15 16.144,419.439 19.483,416.915 C 22.477,414.68 26.078,416.528 28.713,420.019 L 29.776,421.426 L 44.263,410.527" style="fill: rgb(51, 51, 51);" clip-path="url(#XMLID_22_)" id="path201"/>
	<polyline id="polyline203" points="84.094,446.772 99.574,435.114 81.128,410.651 99.616,396.73 90.455,384.589 71.98,398.497 64.337,388.356 84.039,373.497 74.519,360.844 39.31,387.362 84.094,446.772" clip-path="url(#XMLID_22_)" style="fill: rgb(51, 51, 51);"/>
</g><polyline id="polyline205" points="125.016,415.95 160.971,388.852 151.437,376.201 130.962,391.625 122.063,379.815 140.523,365.894 131.376,353.739 112.902,367.674 105.245,357.519 124.975,342.646 115.441,330.008 80.245,356.526 125.016,415.95" style="fill: rgb(51, 51, 51);"/><polyline id="polyline207" points="189.447,367.384 204.928,355.726 160.143,296.316 144.663,307.975 189.447,367.384" style="fill: rgb(51, 51, 51);"/><path d="M 218.269,279.388 C 208.68,266.653 198.733,265.411 185.253,275.566 C 172.201,285.417 170.739,296.813 179.776,308.803 C 195.642,329.857 215.551,305.726 224.395,317.44 C 226.837,320.696 226.878,324.573 223.719,326.96 C 220.725,329.209 217.276,328.947 213.441,323.869 L 212.378,322.462 L 197.395,333.748 L 198.954,335.831 C 208.239,348.152 218.725,347.159 231.542,337.515 C 245.187,327.222 248.319,315.978 238.799,303.326 C 222.422,281.623 201.465,306.416 192.621,294.689 C 190.607,292.012 190.151,288.314 193.49,285.804 C 196.484,283.555 200.099,285.39 202.734,288.894 L 203.797,290.301 L 218.269,279.388" style="fill: rgb(51, 51, 51);" id="path209"/><polyline id="polyline211" points="258.115,315.646 273.595,304.001 255.148,279.525 273.622,265.604 264.475,253.463 245.987,267.371 238.344,257.216 258.073,242.356 248.54,229.705 213.344,256.25 258.115,315.646" style="fill: rgb(51, 51, 51);"/><polyline id="polyline213" points="299.022,284.81 334.978,257.727 325.443,245.088 304.983,260.513 296.07,248.689 314.544,234.769 305.383,222.613 286.922,236.534 279.265,226.394 298.981,211.534 289.447,198.882 254.251,225.4 299.022,284.81" style="fill: rgb(51, 51, 51);"/><polyline id="polyline215" points="363.468,236.272 378.948,224.6 334.163,165.19 318.697,176.849 363.468,236.272" style="fill: rgb(51, 51, 51);"/><path d="M 392.29,148.262 C 382.7,135.528 372.767,134.286 359.273,144.454 C 346.221,154.278 344.758,165.687 353.782,177.663 C 369.648,198.731 389.557,174.586 398.401,186.328 C 400.843,189.57 400.898,193.447 397.739,195.834 C 394.745,198.083 391.282,197.821 387.461,192.744 L 386.398,191.323 L 371.415,202.609 L 372.987,204.692 C 382.273,217.013 392.745,216.033 405.549,206.376 C 419.207,196.084 422.353,184.853 412.82,172.215 C 396.443,150.485 375.471,175.292 366.628,163.55 C 364.628,160.901 364.187,157.175 367.512,154.678 C 370.505,152.415 374.12,154.264 376.741,157.755 L 377.817,159.176 L 392.29,148.262" style="fill: rgb(51, 51, 51);" id="path217"/><polyline id="polyline219" points="432.135,184.534 447.615,172.862 429.183,148.4 447.643,134.479 438.481,122.324 420.021,136.258 412.364,126.09 432.08,111.231 422.546,98.593 387.351,125.11 432.135,184.534" style="fill: rgb(51, 51, 51);"/><g id="g221">
	<defs id="defs223">
		<rect width="680.76801" height="680.76703" x="64.350998" y="77.359001" id="XMLID_13_"/>
	</defs>
	<clipPath id="XMLID_23_">
		<use id="use227" x="0" y="0" width="800" height="975.44202" xlink:href="#XMLID_13_"/>
	</clipPath>
	<polyline id="polyline229" points="473.057,153.684 508.998,126.601 499.464,113.962 479.003,129.374 470.09,117.563 488.564,103.643 479.417,91.501 460.929,105.409 453.286,95.254 473.001,80.395 463.481,67.743 428.271,94.274 473.057,153.684" clip-path="url(#XMLID_23_)" style="fill: rgb(51, 51, 51);"/>
	<polyline id="polyline231" points="537.488,105.146 552.969,93.474 508.184,34.065 492.703,45.723 537.488,105.146" clip-path="url(#XMLID_23_)" style="fill: rgb(51, 51, 51);"/>
	<path d="M 566.31,17.136 C 556.721,4.415 546.774,3.16 533.294,13.314 C 520.229,23.165 518.779,34.562 527.803,46.537 C 543.669,67.591 563.592,43.46 572.422,55.202 C 574.878,58.431 574.919,62.321 571.76,64.694 C 568.766,66.957 565.303,66.681 561.467,61.617 L 560.405,60.196 L 545.435,71.496 L 547.007,73.566 C 556.278,85.886 566.765,84.893 579.582,75.249 C 593.227,64.97 596.372,53.712 586.825,41.074 C 570.475,19.357 549.504,44.151 540.646,32.423 C 538.646,29.774 538.205,26.049 541.529,23.551 C 544.523,21.288 548.138,23.137 550.773,26.628 L 551.836,28.049 L 566.31,17.136" style="fill: rgb(51, 51, 51);" clip-path="url(#XMLID_23_)" id="path233"/>
	<path d="M 48.884,276.297 C 39.295,263.563 29.348,262.307 15.868,272.462 C 2.802,282.313 1.353,293.709 10.377,305.699 C 26.243,326.74 46.166,302.609 54.996,314.35 C 57.452,317.592 57.493,321.469 54.334,323.842 C 51.34,326.105 47.877,325.842 44.055,320.765 L 42.979,319.358 L 28.009,330.644 L 29.582,332.713 C 38.853,345.034 49.339,344.054 62.157,334.397 C 75.802,324.118 78.948,312.874 69.4,300.222 C 53.051,278.506 32.079,303.299 23.235,291.585 C 21.207,288.922 20.779,285.211 24.09,282.686 C 27.111,280.451 30.713,282.3 33.334,285.79 L 34.41,287.197 L 48.884,276.297" style="fill: rgb(51, 51, 51);" clip-path="url(#XMLID_23_)" id="path235"/>
	<polyline id="polyline237" points="88.73,312.542 104.196,300.883 85.764,276.421 104.238,262.5 95.077,250.345 76.616,264.266 68.959,254.125 88.675,239.266 79.141,226.614 43.945,253.132 88.73,312.542" clip-path="url(#XMLID_23_)" style="fill: rgb(51, 51, 51);"/>
</g><polyline id="polyline239" points="129.651,281.719 165.592,254.622 156.073,241.97 135.598,257.395 126.699,245.585 145.159,231.664 135.998,219.509 117.524,233.444 109.88,223.275 129.61,208.417 120.063,195.778 84.88,222.31 129.651,281.719" style="fill: rgb(51, 51, 51);"/><polyline id="polyline241" points="194.083,233.154 209.549,221.509 164.778,162.086 149.298,173.745 194.083,233.154" style="fill: rgb(51, 51, 51);"/><path d="M 222.905,145.171 C 213.316,132.422 203.369,131.181 189.889,141.335 C 176.824,151.186 175.361,162.583 184.412,174.572 C 200.278,195.626 220.173,171.495 229.017,183.209 C 231.473,186.465 231.514,190.342 228.354,192.729 C 225.36,194.978 221.897,194.716 218.076,189.639 L 217,188.231 L 202.03,199.517 L 203.589,201.6 C 212.874,213.921 223.36,212.927 236.177,203.283 C 249.822,192.991 252.954,181.746 243.434,169.095 C 227.057,147.392 206.1,172.185 197.256,160.458 C 195.242,157.782 194.786,154.084 198.125,151.573 C 201.119,149.324 204.72,151.159 207.369,154.664 L 208.432,156.071 L 222.905,145.171" style="fill: rgb(51, 51, 51);" id="path243"/><polyline id="polyline245" points="262.75,181.416 278.217,169.771 259.784,145.295 278.258,131.375 269.111,119.233 250.623,133.14 242.979,122.986 262.695,108.14 253.162,95.475 217.966,122.006 262.75,181.416" style="fill: rgb(51, 51, 51);"/><g id="g247">
	<defs id="defs249">
		<rect width="680.76801" height="680.76703" x="64.350998" y="77.359001" id="XMLID_15_"/>
	</defs>
	<clipPath id="XMLID_24_">
		<use id="use253" x="0" y="0" width="800" height="975.44202" xlink:href="#XMLID_15_"/>
	</clipPath>
	<polyline id="polyline255" points="303.658,150.593 339.613,123.496 330.079,110.858 309.604,126.283 300.706,114.459 319.18,100.538 310.019,88.383 291.558,102.304 283.901,92.164 303.617,77.304 294.083,64.652 258.887,91.17 303.658,150.593" clip-path="url(#XMLID_24_)" style="fill: rgb(51, 51, 51);"/>
	<polyline id="polyline257" points="368.104,102.042 383.57,90.37 338.799,30.96 323.333,42.632 368.104,102.042" clip-path="url(#XMLID_24_)" style="fill: rgb(51, 51, 51);"/>
	<path d="M 396.925,14.032 C 387.322,1.297 377.389,0.055 363.909,10.224 C 350.844,20.047 349.394,31.457 358.418,43.433 C 374.284,64.501 394.193,40.356 403.037,52.098 C 405.479,55.34 405.534,59.217 402.375,61.604 C 399.381,63.853 395.918,63.591 392.097,58.527 L 391.034,57.092 L 376.037,68.378 L 377.609,70.475 C 386.894,82.782 397.367,81.803 410.184,72.144 C 423.829,61.852 426.989,50.621 417.455,37.983 C 401.078,16.253 380.106,41.06 371.263,29.318 C 369.263,26.669 368.808,22.944 372.147,20.447 C 375.14,18.184 378.755,20.033 381.376,23.524 L 382.452,24.945 L 396.925,14.032" style="fill: rgb(51, 51, 51);" clip-path="url(#XMLID_24_)" id="path259"/>
	<polyline id="polyline261" points="63.771,200.621 79.238,188.949 34.467,129.54 18.986,141.211 63.771,200.621" clip-path="url(#XMLID_24_)" style="fill: rgb(51, 51, 51);"/>
	<path d="M 92.593,112.625 C 82.99,99.89 73.056,98.648 59.577,108.789 C 46.497,118.64 45.049,130.037 54.086,142.04 C 69.952,163.08 89.861,138.936 98.705,150.677 C 101.147,153.933 101.188,157.796 98.029,160.183 C 95.035,162.432 91.586,162.183 87.764,157.106 L 86.688,155.685 L 71.705,166.97 L 73.278,169.04 C 82.563,181.36 93.035,180.394 105.853,170.723 C 119.498,160.444 122.644,149.214 113.124,136.562 C 96.747,114.832 75.775,139.639 66.932,127.911 C 64.932,125.248 64.476,121.537 67.815,119.026 C 70.809,116.777 74.41,118.626 77.045,122.117 L 78.108,123.524 L 92.593,112.625" style="fill: rgb(51, 51, 51);" clip-path="url(#XMLID_24_)" id="path263"/>
	<polyline id="polyline265" points="132.425,148.882 147.905,137.21 129.458,112.762 147.946,98.828 138.785,86.672 120.311,100.607 112.667,90.453 132.383,75.593 122.85,62.942 87.64,89.459 132.425,148.882" clip-path="url(#XMLID_24_)" style="fill: rgb(51, 51, 51);"/>
	<polyline id="polyline267" points="173.346,118.046 209.301,90.963 199.768,78.312 179.293,93.723 170.394,81.913 188.854,68.005 179.707,55.85 161.233,69.771 153.575,59.603 173.305,44.757 163.771,32.105 128.575,58.637 173.346,118.046" clip-path="url(#XMLID_24_)" style="fill: rgb(51, 51, 51);"/>
</g><g id="g269">
	<g id="g271">
		<g id="g273">
			
				<rect width="680.76801" height="680.76703" x="64.350998" y="77.359001" style="fill: none; stroke: black; stroke-width: 14.128; stroke-miterlimit: 3.864;" id="rect275"/>
			<path d="M 100.65,313.245 L 100.65,246.096 L 108.28,246.096 C 133.528,246.096 153.575,240.908 168.448,230.506 C 183.294,220.117 191.875,207.92 194.207,193.916 L 284.604,193.916 L 284.604,657.906 L 177.665,657.906 L 177.665,313.245 L 100.65,313.245" style="fill: white;" id="path277"/>
			<path d="M 411.329,562.749 C 411.329,574.849 413.661,583.334 418.338,588.204 C 423.001,592.882 430.534,595.199 440.924,595.199 C 449.615,595.199 456.308,592.771 460.985,587.886 C 465.634,582.795 467.966,575.152 467.98,564.984 L 467.98,494.964 C 467.98,485.637 465.538,478.436 460.667,473.317 C 455.99,468.24 449.851,465.687 442.207,465.687 C 432.438,465.687 424.795,468.875 419.29,475.235 C 413.978,481.595 411.329,493.474 411.329,510.873 L 411.329,562.749 M 575.871,358.444 L 469.566,358.444 L 469.566,292.881 C 469.566,280.147 466.806,270.917 461.301,265.205 C 455.989,259.465 448.567,256.596 439.019,256.596 C 430.313,256.596 423.428,259.686 418.337,265.84 C 413.233,271.98 410.693,283.017 410.693,298.925 L 410.693,411.273 C 433.182,390.688 458.016,380.41 485.169,380.396 C 501.712,380.396 516.033,383.168 528.133,388.674 C 540.44,394.193 550.181,401.505 557.397,410.638 C 564.82,419.551 570.131,429.719 573.318,441.185 C 576.506,452.429 578.106,466.861 578.106,484.465 L 578.106,537.929 C 578.106,558.514 576.395,574.752 573.001,586.617 C 568.131,603.601 559.329,618.751 546.594,632.134 C 534.067,645.282 518.683,655.036 500.444,661.411 C 482.205,667.771 462.462,670.958 441.256,670.958 C 399.658,670.958 365.925,660.238 340.042,638.812 C 314.159,617.385 301.217,583.762 301.217,537.929 L 301.217,310.072 C 301.217,291.198 303.659,274.848 308.543,261.066 C 313.634,247.062 321.264,234.755 331.446,224.145 C 341.641,213.329 353.825,204.636 368.063,198.055 C 376.975,193.805 388.11,190.426 401.465,187.859 C 415.055,185.32 429.266,184.051 444.111,184.051 C 473.402,184.051 495.657,187.335 510.944,193.916 C 526.216,200.497 538.951,209.079 549.133,219.675 C 556.984,227.553 563.344,238.149 568.228,251.505 C 573.319,264.668 575.872,280.479 575.872,298.925 L 575.872,358.444 L 575.871,358.444 z " style="fill: white; fill-rule: evenodd;" id="path279"/>
			<polyline id="polyline281" points="629.707,480.891 629.707,420.088 568.903,420.088 568.903,390.246 629.707,390.246 629.707,329.429 659.55,329.429 659.55,390.246 720.366,390.246 720.366,420.088 659.55,420.088 659.55,480.891 629.707,480.891" style="fill: white;"/>
			<rect width="680.76801" height="170.198" x="64.350998" y="798.17902" id="rect283"/>
			
				<rect width="680.76801" height="170.198" x="64.350998" y="798.17902" style="fill: none; stroke: black; stroke-width: 14.128; stroke-miterlimit: 3.864;" id="rect285"/>
			<polyline id="polyline287" points="106.169,918.309 117.717,918.309 128.327,867.123 128.575,867.123 139.654,918.309 150.499,918.309 165.482,855.684 155.107,855.684 145.311,906.871 145.077,906.871 134.591,855.684 122.905,855.684 112.171,906.871 111.95,906.871 101.795,855.684 91.434,855.684 106.169,918.309" style="fill: white;"/>
			<polyline id="polyline289" points="182.604,918.309 194.152,918.309 204.762,867.123 205.01,867.123 216.075,918.309 226.934,918.309 241.903,855.684 231.542,855.684 221.746,906.871 221.511,906.871 211.012,855.684 199.34,855.684 188.62,906.871 188.371,906.871 178.23,855.684 167.869,855.684 182.604,918.309" style="fill: white;"/>
			<polyline id="polyline291" points="259.025,918.309 270.587,918.309 281.197,867.123 281.445,867.123 292.51,918.309 303.369,918.309 318.338,855.684 307.977,855.684 298.181,906.871 297.946,906.871 287.46,855.684 275.774,855.684 265.055,906.871 264.806,906.871 254.666,855.684 244.276,855.684 259.025,918.309" style="fill: white;"/>
			<rect width="10.845" height="12.39" x="323.91199" y="905.91901" style="fill: white;" id="rect293"/>
			<path d="M 349.975,938.879 L 359.881,938.879 L 359.881,911.175 L 360.102,911.175 C 362.351,916.556 367.663,919.95 373.319,919.95 C 389.711,919.95 393.96,900.082 393.96,885.83 C 393.96,867.246 388.289,854.042 373.319,854.042 C 366.476,854.042 360.944,858.72 359.632,863.396 L 359.398,863.396 L 359.398,855.683 L 349.975,855.683 L 349.975,938.879 M 359.287,887.003 C 359.287,872.737 361.054,862.458 372.021,862.458 C 381.224,862.458 383.584,872.047 383.584,885.83 C 383.584,901.945 381.225,911.534 372.021,911.534 C 361.398,911.535 359.287,899.159 359.287,887.003 z " style="fill: white; fill-rule: evenodd;" id="path295"/>
			<path d="M 446.098,888.163 L 446.098,884.189 C 446.098,870.751 444.331,854.043 424.989,854.043 C 405.521,854.043 402.459,872.158 402.459,887.804 C 402.459,909.314 408.943,919.951 424.396,919.951 C 441.615,919.951 445.616,904.416 445.616,897.738 L 435.724,897.738 C 435.724,902.415 434.412,912.238 424.99,912.238 C 412.848,912.238 412.848,897.738 412.848,888.163 L 446.098,888.163 M 413.191,880.45 L 413.191,878.119 C 413.191,874.38 414.364,861.756 424.754,861.756 C 433.487,861.756 435.723,870.048 435.723,877.057 L 435.723,880.451 L 413.191,880.451 L 413.191,880.45 z " style="fill: white; fill-rule: evenodd;" id="path297"/>
			<path d="M 498.554,855.684 L 489.13,855.684 L 489.13,863.618 L 488.896,863.618 C 487.599,858.721 482.052,854.043 475.223,854.043 C 459.177,854.043 454.583,870.048 454.583,887.004 C 454.583,895.296 455.755,918.31 474.16,918.31 C 480.41,918.31 486.302,915.164 488.427,909.908 L 488.661,909.908 L 488.661,918.075 C 488.661,922.393 489.13,932.107 476.395,932.107 C 471.207,932.107 466.723,929.885 466.241,924.16 L 456.348,924.16 C 457.99,939.819 473.207,939.819 477.099,939.819 C 489.847,939.819 498.553,933.031 498.553,914.337 L 498.553,855.684 M 476.52,862.458 C 487.13,862.458 489.254,874.834 489.254,887.003 C 489.254,899.848 487.13,909.906 476.396,909.906 C 466.49,909.906 464.958,897.157 464.958,887.003 C 464.958,872.047 467.304,862.458 476.52,862.458 z " style="fill: white; fill-rule: evenodd;" id="path299"/>
			<path d="M 512.144,846.11 L 522.05,846.11 L 522.05,834.879 L 512.144,834.879 L 512.144,846.11 z M 512.144,918.309 L 522.05,918.309 L 522.05,855.684 L 512.144,855.684 L 512.144,918.309 z " style="fill: white; fill-rule: evenodd;" id="path301"/>
			<rect width="10.858" height="12.39" x="537.83301" y="905.91901" style="fill: white;" id="rect303"/>
			<path d="M 564.489,846.11 L 574.394,846.11 L 574.394,834.879 L 564.489,834.879 L 564.489,846.11 z M 564.489,918.309 L 574.394,918.309 L 574.394,855.684 L 564.489,855.684 L 564.489,918.309 z " style="fill: white; fill-rule: evenodd;" id="path305"/>
			<path d="M 587.943,918.309 L 597.849,918.309 L 597.849,875.082 C 597.849,865.963 605.037,862.458 610.349,862.458 C 619.303,862.458 619.662,870.295 619.662,875.082 L 619.662,918.309 L 629.567,918.309 L 629.567,873.911 C 629.567,866.543 629.567,854.043 612.942,854.043 C 606.802,854.043 600.208,857.327 597.614,863.039 L 597.38,863.039 L 597.38,855.685 L 587.942,855.685 L 587.942,918.309" style="fill: white;" id="path307"/>
			<path d="M 645.504,918.309 L 655.41,918.309 L 655.41,863.397 L 666.268,863.397 L 666.268,855.684 L 655.41,855.684 L 655.41,848.317 C 655.41,843.999 657.535,842.357 661.784,842.357 L 666.379,842.357 L 666.379,833.955 L 659.191,833.955 C 649.63,833.955 645.504,838.852 645.504,848.317 L 645.504,855.684 L 636.302,855.684 L 636.302,863.397 L 645.504,863.397 L 645.504,918.309" style="fill: white;" id="path309"/>
			<path d="M 692.552,912.238 C 682.411,912.238 680.397,900.552 680.397,887.004 C 680.397,873.441 682.536,861.756 692.552,861.756 C 703.161,861.756 705.162,873.442 705.162,887.004 C 705.162,900.552 703.051,912.238 692.552,912.238 M 670.035,887.003 C 670.035,904.636 674.505,919.95 692.786,919.95 C 710.943,919.95 715.551,904.636 715.551,887.003 C 715.551,869.357 711.054,854.042 692.786,854.042 C 674.616,854.042 670.035,869.357 670.035,887.003 z " style="fill: white; fill-rule: evenodd;" id="path311"/>
		</g>
	</g>
</g></g>
</svg>