<?xml version="1.0" encoding="utf-8"?>
<!-- Generator: Adobe Illustrator 17.1.0, SVG Export Plug-In . SVG Version: 6.00 Build 0)  -->
<!DOCTYPE svg PUBLIC "-//W3C//DTD SVG 1.1//EN" "http://www.w3.org/Graphics/SVG/1.1/DTD/svg11.dtd">
<svg version="1.1" id="Слой_4" xmlns="http://www.w3.org/2000/svg" xmlns:xlink="http://www.w3.org/1999/xlink" x="0px" y="0px"
	 viewBox="0 0 866.1 1083.4" enable-background="new 0 0 866.1 1083.4" xml:space="preserve">
<g>
	<g>
		<path d="M449.7,797.3c6.9,0.2,13.9,0.4,20.8,0.6c13.9,0.4,27.7,0.9,41.6,1.4c6.2,0.2,12.5,0.5,18.7,0.7c1.2,0,2.4,0.1,3.5,0.5
			c1.1,0.4,2,1.1,3,1.7c8.5,5.8,19.7,7.4,29.5,4.3c4.6-1.5,9-4,11.8-8c3.4-4.9,4.4-11.5,4.4-17.2c0-5.9-2.1-12.1-6.2-16.5
			c-4.8-5-11.9-7.4-18.9-7.9c-3.9-0.3-8.3,0.6-12,2c-4.1,1.6-6.4,4.7-9.5,7.6c-0.4,0.3-0.8,0.7-1.2,0.7c-0.4,0-0.7-0.2-1-0.4
			c-3.2-1.8-7.4-1.7-10.4,0.4c-0.4,0.3-0.9,0.6-1.4,0.7c-0.7,0-1.2-0.5-1.7-0.9c-3-2.5-7.6-2.9-11-1c-0.7,0.4-1.3,0.8-2.1,0.9
			c-0.7,0-1.4-0.3-2-0.6c-4.4-1.8-9.6-1.4-13.7,1c-2-2.1-5.2-2.7-8-2.3s-5.6,1.5-8.4,2.4c-0.5,0.2-1,0.3-1.6,0.3
			c-0.7,0-1.3-0.3-1.9-0.6c-3.6-1.4-6.1-0.4-9.5,0.6c-2.1-1.8-4.9-2.3-7.6-2.9c-1.6-0.3-3.2-0.6-4.8-0.3c-1,0.2-2,0.6-3,0.6
			c-0.9,0-1.8-0.3-2.6-0.6c-4.4-1.5-9.3-1.7-13.8-0.5c-0.5,0.1-1.1,0.3-1.6,0.2c-0.4,0-0.8-0.2-1.1-0.4c-1.8-0.8-4.1-1.6-5.7-0.4
			c-0.5,0.4-0.9,0.9-1.5,1.2c-1.5,0.7-3.1-0.6-4.6-1.4c-1.8-0.9-3.9-1-6-1.1c-3.4-0.1-7.2,0.7-10.4,1.9c-1.6-1.7-4.1-2.6-6.4-2.1
			c-0.7,0.1-1.5,0.4-2.2,0.4c-0.6,0-1.1-0.2-1.7-0.4c-1.7-0.4-3.6-0.4-5.3,0.3c0.3-2.7,0.6-5.4,0-8s-2.3-5.1-4.9-6
			c1.2-3.4-0.7-7.6-4-9c-0.5-0.2-1.1-0.4-1.5-0.7c-0.5-0.5-0.7-1.1-1-1.7c-1.1-2.1-4.2-3-6.3-1.7c-4.8-3.9-11.4,0.2-13.8,4.8
			c-0.8,1.5-1.3,3.3-2.6,4.5c-0.2,0.2-1.7-4.4-1.8-4.6c-0.5-2.1-0.9-4.2-1.2-6.4c-0.2-1.5-0.4-3.1,0.1-4.6c0.4-1.3,1.2-2.5,1.7-3.7
			c1.6-3.7,0.5-7.3,0-11.1c2.3-0.1,3.8-2.4,4.5-4.6c0.9-2.4,1.4-5,1.4-7.6c2.9,0.4,5.5-1.9,6.6-4.5c1-2.4,1.7-5.7,1.2-8.3
			c2.5,0.3,5-0.8,6.7-2.7c1.6-1.9,2.4-4.5,2.3-6.9c0-0.3,0-0.7,0.2-1c0.2-0.3,0.7-0.3,1-0.3c2.5-0.2,4.6-2.1,5.7-4.4
			c1.3-2.7,0.8-5.8,1.2-8.6c3.2,0,6.5,0.1,9.7,0.1c9.3,0.1,18.5,0.2,27.8,0.3c9.4,0.1,18.8,0.2,28.2,0.3c27.7,0.3,55.3,0.5,83,0.8
			c3.9,0,6.8,0.5,11.2,0.8c1.7,3.2,4.3,5.3,6.4,6.4c6.3,3.4,12.5,4.7,18.7,2.9c6.3-1.9,10.1-4,13.2-7.9c3.8-4.7,4.2-6.4,4.8-10.4
			c0.8-5.5,0.5-9.8-2.4-17c-2.1-5.2-5.9-8.8-10.8-11.3c-4.2-2.2-9.1-2.7-13.8-2.1c-2.6,0.3-5.2,0.9-7.7,1.9c-2.3,1-4.4,2.7-4.4,2.7
			s-3.4-1.2-4.4-1.4c-3.5-0.7-7.1-0.1-9.6,2.2c-1.2-2.7-4.7-3.4-7.6-3.7c-1.9-0.2-3.8-0.3-5.6,0.2c-1.8,0.5-3.5,1.8-4,3.6
			c-4.7-3.9-9.3-3-14.8-1.8c-1.1-1.8-3.5-2.4-5.5-2c-2.1,0.4-3.9,1.5-5.7,2.5c-0.2,0.1-0.5,0.3-0.8,0.3c-0.3,0-0.6-0.2-0.9-0.4
			c-2.8-2-6.8-2.1-9.7-0.2c-0.2,0.1-0.4,0.3-0.6,0.3c-0.4,0.1-0.7-0.1-1.1-0.2c-4.4-2-8.8-1.3-13.1,0.5c-1.4-3.1-6.7-4.6-9.9-5
			c-3.9-0.5-7.9,0.2-11.3,2.2c-4-1.9-9-1.5-12.5,1.1c-0.2,0.2-0.4,0.3-0.7,0.4c-0.6,0.1-1.1-0.3-1.6-0.7c-2-1.6-4.6-2.1-7.1-2
			s-4.9,0.9-7.3,1.7c-0.5,0.2-1,0.3-1.5,0.3c-0.4-0.1-0.8-0.3-1.1-0.4c-3.1-1.6-7-1.2-9.8,0.8c-0.1,0.1-4.5-1.6-5-1.7
			c-1.8-0.4-3.5-0.6-5.4-0.3c-0.9-3.8-1.9-7.6-3.4-11.3c-0.8-1.9-1.7-3.7-2.8-5.4c-2.6-4.1-6.1-7.7-10.6-9.4
			c-2.2-0.9-4.7-1.2-7.1-0.9c-2.7,0.4-4.3,1.8-6.5,3.3c-0.5-2.7-2.6-5-5.3-5.7c1.5-2.3,2-5.2,1.3-7.9c-0.7-2.6-2.5-5-5-6.2
			c0.5,0.3,1.1-5.1,1.1-5.5c-0.2-1.9-0.7-3.8-1.2-5.6c1.3,0,2.5-0.9,3.2-1.9c0.7-1.1,1.1-2.3,1.3-3.6c0.6-3.1,0.9-6.3,0.7-9.4
			c2.5-0.1,4.6-2.1,5.6-4.4c1.2-2.8,0.8-5.8,1.3-8.7c5.6-2.2,8.6-8.6,8.8-14.7c0-0.5,0-0.9,0.2-1.4c0.3-0.5,0.8-0.9,1.3-1.2
			c1.9-1.2,3.6-2.8,4.7-4.8c1-1.9,0.7-4,1.5-6.1c1.6-4.2,5.1-7.7,9.3-9.2c1.1-0.4,2.3-0.7,3.5-0.9c12.7-2.5,26.1-1.6,39.1-1.7
			c13.9,0,27.7,0,41.6,0.2c12,0.1,24,0.3,36,0.6c11.8,0.3,23.9-0.1,35.6,1.5c1.2,1.6,2.4,2.9,4.8,4.5c3,2,8.9,3.6,12.9,3.4
			c5.3-0.3,10.4-2.3,14-4.9c2.8-2,5.7-5.3,7.4-8.3c1.5-2.7,3-6.9,3.2-9.5c0.6-6.2-1.5-14.4-6.4-19.8c-4.6-5-11.8-7.1-18.4-7.5
			c-5.8-0.4-10.6,1-14.4,4.6c-3.3,3.1-6.1,9.1-6.1,9.1s-1.5-1.3-2.7-1.9c-1.5-0.7-3.5-1.2-5.7-1.2c-3,0-5.3,0.8-8.3,1.1
			c-1-1.5-2.8-2.3-4.6-2.2s-3.5,0.7-5.1,1.6c-1.4-2.3-4.2-3.7-6.9-3.8c-2.7-0.1-5.4,0.9-7.7,2.3c-0.3,0.2-0.6,0.3-0.9,0.3
			c-0.2,0-0.3-0.1-0.5-0.2c-2.5-1.6-5.8-2.6-8.8-2.7c-2.6,0-5.5,1.7-7.6,3.2c-2.9-2.9-7.5-4-11.4-2.8c-0.3,0.1-0.7,0.2-1,0.2
			c-0.5,0-1-0.3-1.4-0.6c-3.6-2.2-8.3-2.5-12.1-0.8c-0.8,0.4-1.5,0.8-2.4,0.8c-0.9,0.1-1.8-0.3-2.7-0.7c-3.4-1.3-7.3-1.4-10.8-0.3
			c-0.9,0.3-1.9,0.7-2.9,0.6c-0.8,0-1.6-0.4-2.4-0.6c-2-0.7-4.6-1.2-6.7-0.8c-1.9,0.4-3.9,1.8-5.8,2.7c-0.2,0.1-0.4,0.2-0.6,0.2
			c-0.5,0.1-1-0.1-1.4-0.2c-1.9-0.7-3.8-1.5-5.8-1.9s-4.2-0.3-5.9,0.7c-0.9,0.5-1.7,1.2-2.7,1.1c-0.4-0.1-0.8-0.3-1.2-0.5
			c-2.8-1.5-6.8-1.2-9.2,1c-0.2-5.6-0.6-11.2-2.4-16.5c-1.9-5.3-5.4-10.1-10.6-12.3c-3.6-1.6-7.7-1.7-11.5-1.1
			c-4.3,0.7-7.4,2.8-11.1,4.9c-1-4.3-0.3-8.6,0.5-12.9c0.4-2,1-4,1.3-6c0.3-1.7-0.6-3.8,0.4-5.3c0.4-0.5,0.9-0.9,1.4-1.3
			c3.7-3.2,4.2-8.7,4.1-13.6c0-0.7,0-1.4,0.2-2c0.2-0.6,0.6-1.1,0.9-1.6c4.2-6.1,7.3-13.1,10.7-19.7c1.3-2.6,2.1-5.5,3.1-8.3
			c45.7,0.6,91.3,1.2,137,1.8c7.3,0.1,13.4,0.2,20.6,0.1c2.9,3.4,5.3,5.1,8.2,6.5s6.2,1.9,9.4,2.1c2.9,0.1,5.9,0,8.7-0.8
			c2-0.6,8-2,15.2-10.8c2.7-3.2,4.4-8.6,4.6-12.8c0.1-4.1-0.4-8.4-2.2-12.7c-1.6-3.8-4.8-7.8-8-10.4c-5-4-10.5-5.1-16.9-5
			c-3.4,0.1-7.3,1.8-10.4,3.3c-1.6,0.7-6.5,4.4-7.8,5.9c-2.6-1.8-6.5-1.4-8.8,0.8c-0.3,0.3-0.6,0.6-0.9,0.6
			c-0.6,0.1-1.1-0.6-1.5-1.1c-1.3-1.6-3.7-2.1-5.7-1.6s-3.8,1.7-5.5,3c-2.1-2.4-5.3-3.9-8.6-4c-3.8-0.1-7.1,1.5-9.9,4
			c-4.4-3.9-11.2-4.7-16.4-1.9c-0.2,0.1-0.4,0.2-0.7,0.2c-0.4,0-0.7-0.3-1-0.5c-3.7-3.2-9.5-3.6-13.6-1c-1.1,0.7-2.3,1.7-3.6,1.4
			c-0.5-0.1-1-0.4-1.4-0.6c-2.2-1.1-4.7-1.5-7.1-1.1c-2.7,0.4-4.3,2-6.4,3.7c-2.2-2.5-5.1-4.4-8.3-4.9c-3.2-0.5-6.8,0.6-8.8,3.2
			c-4-3.7-10.7-3.9-14.9-0.5c-3-3-8.1-3.8-11.9-1.7c-3.7-1.8-8.3-1.5-11.8,0.7c-0.1,0.1-1-2.4-1-2.7c0-1.1,0.6-2.4,0.7-3.5
			c0.2-2.4-0.1-4.9-1-7.2c-0.3-0.6-0.6-1.3-0.7-2c-0.1-0.9,0.1-1.8,0.2-2.7c1.4-7.7-1.3-16.2-7.4-21.3s-15.2-6.3-22.1-2.6
			c-1.1,0.6-2.1,1.3-2.9,2.3c-2.8,3.4-1.3,8.1-1.1,12.1c-4-1.6-4.9-6.9-8.1-9.7c-0.3-0.2-0.6-0.5-0.8-0.8c-0.2-0.4-0.1-0.9-0.1-1.4
			c0.5-5-1.3-10.2-4.8-13.8c1.1,1.1,4.3-7.2,4.5-7.8c1.2-3.4,1-6.9,1.2-10.5c0-0.5,0.1-1.1,0.3-1.6c0.3-0.7,0.9-1.1,1.5-1.6
			c3.6-3.2,3.8-8.7,3.7-13.5c5.3-1.4,3.8-7.4,3.6-11.3c0.9,0.2,1.7-0.3,2.4-0.8c5.4-4.2,6.6-9.7,6.6-16.2c3,0.1,5.9-2.4,6.3-5.5
			c27.7,0,55.4,0.4,83.1,1.1c27.2,0.6,54.4,2,81.5,2.4c1.4,0,2.9,0.1,3.9,1c1.2,1.2,4.8,3.5,7.3,4.5c4.2,1.8,10.2,2.8,16.1,1.3
			c6.3-1.6,9.1-3.2,12.9-7.8c3.7-4.4,5.7-9.7,6-16.8c0.6-11.2-3.9-18-9.2-21.5c-2.7-1.8-5.7-3.1-8-3.8c-4.9-1.4-10.1-1.7-15.1-0.6
			c-5,1.2-7.9,3.6-11.2,6.6c-1.2,1.1-2.7,3.7-2.7,3.7s-5.4,0-7.6,1.2c-1.5-1.1-2.5-2.5-4.7-2.1c-1.5,0.2-2.7,1.6-3.8,2.5
			c-2.4-1.9-4.2-2.4-7.3-1.8c-2.8,0.5-4.7,1.6-6.9,3.3c-5.2-4.8-13.9-5.1-19.5-0.8c-1.8-1-3.6-2.1-5.6-2.6c-2-0.5-4.3-0.5-6,0.6
			c-1.1,0.6-1.9,1.6-2.8,2.6c-1.5-1.9-3.9-3.2-6.4-3.3c-2.8-0.1-5.5,1.3-7.6,3.1c-3.2-3.8-9.5-4.5-13.5-1.5c-0.5-1.4-2.3-1.9-3.8-2
			c-1.9-0.1-4.3-0.4-6.1,0.3c-1.7,0.7-3.3,2.3-4.8,3.4c-3.2-3.7-9-4.8-13.3-2.5c-0.3,0.2-0.6,0.3-1,0.3c-0.5,0-0.9-0.4-1.3-0.7
			c-3.6-3.1-9.5-3.3-13.3-0.4c-0.6-1.4-2-2.4-3.5-2.8c-1.5-0.4-3.1-0.3-4.6-0.2c3.7-5.7,7.6-12.1,6.6-18.8c-0.4-2.6-1.5-5-2.8-7.2
			c-3.9-6.6-12.1-12-19.7-7.7c-2.8,1.6-3.3,3.4-4.7,5.9c-1.6,2.9-3.7,5.7-6,8.1c0.4-2.7-0.4-5.6-2.1-7.7s-4.5-3.4-7.2-3.4
			c0.4-3.4,0.8-6.9,0.4-10.3s-1.8-6.9-4.3-9.2c1-2.2,2.1-4.4,2.3-6.7c0.3-2.4-0.3-5-2-6.6c-0.3-0.3-0.6-0.5-0.8-0.9
			c-0.2-0.4-0.2-1-0.1-1.4c0.8-4.2,1.8-8.6,3-13.5c-5.3,0-12,0-17.2,0c-5,4.6-8.7,7.9-13.3,12.5c-1,1-3.6,2-5,2
			c-1.8-4.7-0.3-10.3,2.5-14.5c-3.3,0-6.4,0.1-6.4,0.1s-0.1,3.7-0.1,5.6c-0.1,3.3-0.1,4.8,0.4,9.4c0.2,1.9,0.5,2.9,0.7,4.6
			c0.2,1.5,0.3,3,0.4,4.5c0.2,4.9,1.6,12.5,5.1,16.2c1.4,1.5,2.9,3,4.3,4.5c0.5,0.5,0.9,1,1.1,1.6c0.1,0.5,0,1.1,0,1.7
			c-0.4,2.8,0.1,5.6,1.2,8.1c1.1,2.5,3.3,3.6,4.6,5.9c1.4,2.4,0.2,5.6,1.1,8.2c0.7,2,2.5,3.5,3.5,5.4c1.5,2.9,1.1,6.4,2.2,9.5
			c1,2.8,3.1,4.9,4.8,7.3c0.3,0.4,0.5,0.8,0.6,1.3c0.1,0.5-0.1,1-0.3,1.4c-4.5,10.6-10.8,20.3-16.5,30.3
			c-5.2,9.2-11.2,21.1-9.9,32.1c0.1,1,0.3,2,0.2,3.1c-0.1,1-0.5,1.9-0.9,2.8c-2,5.2-2.4,11-1,16.4c0.3,1,0.6,2.1,0.6,3.2
			c0,1.1-0.3,2.2-0.5,3.2c-1.4,5.5-2.5,11.8,0.7,16.4c0.4,0.6,0.9,1.1,1.1,1.8c0.3,0.8,0.2,1.7,0.2,2.6c-0.6,9.5,3,19.1,9.7,25.8
			c0,0-0.7,3.2-0.7,3.6c0,1.5,0.4,3.2,1.1,4.5c1.3,2.4,3.8,4.8,6,6.5c0.8,0.6,1.6,1.1,2.2,1.8c1.3,1.5,1.6,3.6,2.2,5.5
			c1.3,3.9,4.2,7.2,7.8,9c-4.3,5.3-5.6,10.8-6.9,17.2c-0.1,0.5-0.2,1.1-0.5,1.5c-0.5,0.9-1.5,1.5-2.3,2.1c-2.6,2-4,5.1-4.8,8.2
			c-0.8,3.1-1,6.3-1.8,9.5c-0.2,0.8-0.4,1.5-0.8,2.2c-0.5,0.8-1.1,1.5-1.8,2.2c-3.4,3.9-4.9,9.1-5.4,14.2c-0.4,3.7-0.2,7.4,0.3,11.1
			c-1.7,3.8-2.4,8-2,12.1c0.4,4.3,2.4,6.8,4.3,10.5c1.6,3.3,0.6,6.2,1.6,9.7c0.9,3.3,3,6.4,6,8.2c0.5,0.3,1.1,0.6,1.5,1.1
			c0.5,0.6,0.7,1.4,1,2.1c2.5,7.6,9.8,13.3,17.8,13.8c-1.2-0.1-5.8,7.8-6.6,8.9c-2.4,3.3-4.6,6.7-6.8,10.1
			c-4,6.3-7.7,12.7-11.3,19.2c-7.4,13.3-12.1,28.3-12.6,43.5c-0.6,15.9,3.4,32.1,12.2,45.5c5.5,8.4,12.7,15.4,19.7,22.5
			c-3.8,3.3-5.7,8.7-4.6,13.6c-3.1,0.9-5.6,3.4-6.9,6.4c-1.3,2.9-1.6,6.3-1.3,9.5c-7.5,0.4-11.8,10.4-12.7,16.7
			c-2.6,1.7-4.6,4.2-5.8,7c-1.1,2.6-1.4,5.5-1.7,8.3c-0.1,1.3-0.3,2.5-0.4,3.8c-0.4,3.4-0.7,6.8-0.4,10.2c0.1,1.3,0.3,2.6,0.3,3.8
			c0,1-0.2,2-0.3,3c-0.6,4.9,0.5,10,3.1,14.3c0.4,0.7,0.9,1.4,1.1,2.2c0.2,0.7,0.2,1.5,0.2,2.2c0.1,5.2,2.4,10.4,6.2,14
			c0.7,0.6,1.4,1.3,1.9,2.1c0.4,0.9,0.5,1.9,0.6,2.9c0.6,3.8,3.7,7.1,7.5,7.9c-0.2-0.1,1.8,5.5,2.3,6.1c1.5,1.8,3.7,3,6,3.5
			c-0.1,1.2-0.2,2.4-0.3,3.6c-2.6-0.2-4.9,1.8-6,4.2c-1.1,2.3-1.3,5-1.9,7.5c-0.1,0.5-0.2,1.1-0.6,1.5c-0.5,0.5-1.2,0.5-1.8,0.7
			c-2.2,0.6-3.8,2.5-4.7,4.6s-1,4.4-1.2,6.7c0,0.2-2.6,1.9-3.7,2.8c-1.7,1.4-2.7,2.3-4.6,6c-1.8,3.4-2.5,6.4-2.9,14.5
			c2.3,0.1,3.9,0,6.4,0c1.9-2.3,3-3.6,4.6-5.1c2.2-2,4.9-3.5,7.6-4.7c2.3-1,5.1-1.9,7.4-2.7c1.2-0.4,2.4-0.9,3.6-1.1
			c1.2-0.2,2.6-0.1,3.6,0.6s1.6,2.2,1,3.3c-0.2,0.4-0.5,0.8-0.9,1.1c-5.2,3.9-7.5,5.2-11.4,8.7c2.6,0,15,0.1,17.3,0.1
			c1.6-5.3,3.6-9,6-13.5c2.2-3.9,4.3-7.8,6.6-11.7c2.4-4.1,4.9-8.2,7.5-12.2c2-3.2,4.7-5.7,8.4-6.9c3-1,6.2-0.9,9.3-0.9
			 M545.9,637.6c0.4-1.5,2.4-2.1,4-2c3.2,0.2,6.1,2.1,7.9,4.8s2.6,5.9,2.6,9c0,5.4-2.8,11.1-7.8,13.1c1.7-7.2-0.1-15.1-4.8-20.8
			C546.6,640.6,545.4,639.1,545.9,637.6z M533.8,638.2c0.4-1.1,1.7-1.7,2.9-1.5c1.2,0.1,2.2,0.8,3.1,1.6c1.4,1.1,2.6,2.4,3.6,3.8
			c1,1.4,1.8,2.9,2.5,4.5c1,2.2,1.9,4.4,2.2,6.7c0.3,2.4,0,4.8-1.2,6.9c-0.2,0.3-0.4,0.6-0.7,0.5c-0.3-0.1-0.4-0.4-0.5-0.7
			c-1.7-6.6-5.2-12.7-10-17.5C534.6,641.4,533.2,639.8,533.8,638.2z M517,636.6c0.5-1.2,1.8-1.8,3-1.8c2.9,0,6.3,2.8,8.3,4.7
			c2.3,2.2,4.1,4.9,5.5,7.8c2.2,4.3,3.7,9.3,2.5,14c-1.6-0.4-2.7-1.9-3.5-3.3c-2.4-3.8-4.7-7.9-8-11
			C522.1,644.3,515,641.3,517,636.6z M515.9,642.8c2.5,2.9,4.5,6.2,5.6,9.8c1.1,3.6,1.3,7.6,0,11.2c-5.2-4.3-8.6-10.3-11.9-16.2
			c-2-3.7-4.1-7.3-6.1-11C508.3,635.8,512.8,639.1,515.9,642.8z M491.1,635.7c0.1-0.7,0.4-1.3,0.9-1.8c0.4-0.4,0.9-0.7,1.4-0.8
			c1-0.3,2.1,0.1,3.1,0.6c3.6,1.8,5.1,5.1,7,8.4c1.5,2.8,2.8,5.8,3.4,8.9c0.5,3.1,0.3,6.5-1.2,9.3c-0.8,0-1.3-1-1.5-1.8
			c-1.5-4.6-3.9-9-7.1-12.5c-1.4-1.5-2.9-2.9-4-4.5C492,640,490.8,637.6,491.1,635.7z M478.1,636.7c0.5-1.1,2.1-1.2,3.2-0.8
			c2,0.6,3.8,1.9,5.3,3.4c4,3.8,6.9,8.8,8.1,14.2c0.6,2.8,0.7,6-1.1,8.2c-1.9-4.9-4.8-9.4-8.6-13.2c-1.6-1.6-3.3-3-4.7-4.8
			c-1.4-1.8-2.4-3.9-2.3-6.2C477.9,637.3,478,637,478.1,636.7z M466.1,634.6c2.3-0.8,4.7,0.6,6.4,2.4c2.8,2.9,4.5,6.8,5.3,10.7
			s0.6,8.1,0.1,12.1c-1.7-5.3-4.3-10.4-7.7-14.8c-1.2-1.6-2.5-3.1-3.7-4.8c-0.5-0.7-1-1.5-1.5-2.2c-0.3-0.5-0.6-1.1-0.6-1.7
			C464.6,635.4,465.3,634.8,466.1,634.6z M451.7,632.2c1.9,0.4,3.4,1.8,4.8,3.2c2.9,2.9,5.7,6,7.6,9.6c2,3.6,3,7.9,2.2,11.9
			c-3.8-5.9-9.7-10-14.6-15c-1.3-1.4-2.6-2.8-3.6-4.4c-0.5-0.8-0.9-1.7-0.8-2.6C447.4,633,449.7,631.8,451.7,632.2z M444.4,641.9
			c3.6,4.6,5.3,10.7,5.1,16.5c-3.8-9.9-14.8-15-20.4-24C434.9,634.2,440.7,637.3,444.4,641.9z M428.2,641.3c4.3,4.2,7,10,7.4,16
			c-5.4-7.2-12.9-12.5-19.8-18.3c-1.6-1.3-3.2-2.8-3.7-4.8C418.1,634.5,423.9,637.1,428.2,641.3z M406.2,635.6c1.8,1,3.2,2.5,4.6,4
			c1.9,2.1,3.8,4.2,5.1,6.7c1.2,2.5,1.8,5.5,0.7,8.2c-0.1,0.3-0.4,0.7-0.8,0.6c-0.1-0.1-0.2-0.2-0.3-0.3c-0.4-0.7-0.7-1.3-1.1-2
			c-4-6.4-10.8-10.9-14-17.7C402.2,634.2,404.4,634.6,406.2,635.6z M394.6,636.2c1.2,1,2.2,2.3,3,3.6c2.9,4.4,5.2,9.6,4.4,14.8
			c-1.5-0.3-2.7-1.2-3.8-2.1c-5-4.4-8-11.1-8-17.8C391.9,634.6,393.4,635.3,394.6,636.2z M384.3,643.6c0.6-2.2,1.1-4,1.8-5.6
			c1.3,5.8,4.9,13.1,7.5,17.9c-0.8-0.9-4.6-2.9-5.8-3.8c-0.8-0.6-2-1.9-2.7-2.8c-0.5-0.7-1-1.7-1.1-2.6
			C383.9,646,384.1,644.3,384.3,643.6z M542.7,481.6c0.5-0.9,1.7-1.2,2.7-1.1c2.3,0,4.4,1.1,6,2.7c1.6,1.6,2.7,3.6,3.4,5.8
			c1.4,4.5,0.1,9.3-1.8,13.7c-0.4,1-3.7,3.7-4.6,4.1c0.4-3.6,1.2-7.4,0.5-11.3c-0.6-3.6-2.7-6.9-5-9.8
			C542.9,484.5,541.9,482.9,542.7,481.6z M528.4,481.5c0.5-0.3,1.2-0.2,1.8,0c2.9,0.8,5.9,1.8,7.8,4c1.1,1.3,1.8,2.8,2.4,4.4
			c1.8,5,2.4,10.5,0.9,15.5c-1.9-2.1-2.6-5-3.9-7.5c-2.4-5-6.8-8.8-9.2-13.7C527.8,483.3,527.5,482,528.4,481.5z M515.8,480.4
			c0.1-0.3,0.3-0.5,0.5-0.6c0.2-0.1,0.5-0.1,0.7-0.1c4,0.2,7.1,3.6,9.2,7c1.8,2.9,3.3,6,4,9.3s0.3,6.9-1.4,9.9
			c-1.2-0.1-1.9-1.3-2.4-2.3c-2.7-5.4-4.6-11.2-8.1-16.1c-0.8-1.1-1.6-2.1-2.1-3.3S515.3,481.6,515.8,480.4z M501.5,477.4
			c0.8-0.8,2.1-0.5,3,0c2.9,1.4,5.1,4.1,6.5,6.9c1.5,2.9,2.3,6,3,9.2c0.8,3,1.5,6.3,0.6,9.3c-0.2,0.8-1.1,1.8-1.8,1.3
			c-0.2-0.2-0.3-0.4-0.4-0.7c-2.5-5.9-5.4-11.7-8.8-17.2c-1.3-2.2-2.8-4.5-2.8-7.1C500.9,478.5,501,477.8,501.5,477.4z M491.8,477
			c5,2.9,8.7,7.8,10.2,13.3c1.1,4.2,0.8,9.1-2,12.4c-0.3,0.4-0.7,0.7-1.2,0.6c-0.6-0.1-0.8-0.8-0.9-1.4c-1.1-6.1-5.6-11.1-8.2-16.8
			c-1.5-3.3-2.5-7.1-5.5-9.2C486.5,474.7,489.5,475.6,491.8,477z M471.4,474.7c1.9-0.5,3.8,0.3,5.5,1.4c8.6,5.4,13.2,16.6,10.8,26.5
			c-1.7-1.6-3-3.6-4.2-5.6c-3.2-5-6.4-10-9.5-15.1C472.5,479.7,471,477.3,471.4,474.7z M457.1,472.8c0.8-0.1,1.7,0.1,2.4,0.4
			c4,1.3,7.5,4.3,9.5,8c2.2,4.1,4.3,8.4,5.2,13c0.6,3,0.6,6.4-1.4,8.6c-2.9-3.9-5.7-7.7-8.6-11.6c-2.6-3.5-5.1-7.1-7-11
			c-0.3-0.5-0.7-1.3-1.2-2.1C454.7,475.9,453.5,473.1,457.1,472.8z M448,475.9c7.6,4.8,12.4,13.9,12,22.9c-0.1,1.8-0.3,3.6-1.2,5.1
			c-0.3-0.1-0.6-0.1-0.9-0.2c-0.4-5.8-2.6-11.4-6.1-16.1c-3.5-4.7-8.3-8.3-11-13.5C443.3,473.5,445.8,474.6,448,475.9z M427.7,475.2
			c0.3-0.6,1-0.7,1.7-0.8c4.4-0.1,8.4,2.7,11.7,5.7c2.9,2.6,5.5,5.6,7,9.3s1.5,8-0.7,11.2c-0.3,0.4-0.7,0.9-1.3,0.9
			c-0.6,0-1-0.7-1.2-1.3c-1.6-4-2.6-8.4-5.1-11.9c-3.2-4.4-8.4-6.9-11.7-11.3C427.8,476.5,427.4,475.8,427.7,475.2z M424.8,477.3
			c4.1,2.8,8.1,6,10.6,10.4s2.9,10.1,0.1,14.2c-3.3-2.7-4-7.4-5.8-11.2c-2.3-5-6.6-9-8.8-14.1C422,475.7,423.6,476.5,424.8,477.3z
			 M410,475.9c1-0.9,2.6-0.2,3.6,0.6c6.5,4.9,10.4,12.9,10.2,21c0,1.4-0.2,2.9-1.1,3.9s-2.6,1.6-3.7,0.6c-0.5-0.5-0.8-1.2-0.9-1.9
			c-0.8-3.3-0.5-6.9-1.4-10.2c-1.1-3.8-3.8-7-6.1-10.2C409.7,478.6,409,476.9,410,475.9z M398.4,476.8c0.2-0.2,0.4-0.2,0.6-0.3
			c3.1-0.6,5.9,1.7,8,4c2.6,2.9,5,6.1,5.9,9.8c0.8,3.2,0.4,6.6-1,9.6c-0.6,1.3-2,2.7-3.3,2.2c-1-8.4-5-16.3-9.9-23.2
			C398.2,478.2,397.8,477.3,398.4,476.8z M401.6,498.5c0,1.1-0.1,2.3-0.6,3.3c-0.5,1-1.5,1.9-2.6,1.9c-1.1,0-2.1-0.7-2.8-1.5
			c-2-2.5-1.7-6-1.6-9.1c0.2-4.9-0.1-9.9-0.9-14.7C398.6,483.5,401.7,491,401.6,498.5z M547.8,348.1c1.5-0.1,3,0.4,4.4,1
			c5.8,2.9,9.2,9.4,9.7,15.8c0.2,2.7-0.1,5.7-1.7,7.9c-0.6,0.8-1.5,1.6-2.5,1.4c1.1-3.9,0-8.1-1.8-11.6c-1.8-3.6-4.4-6.7-6.6-10.1
			C548.4,351.2,547.6,349.7,547.8,348.1z M539.3,349.4c1.2,0.5,2.2,1,2.5,1.2c3,1.8,5.9,4,7.9,7c1.7,2.6,2.4,5.9,2.3,9
			c0,4.1-2,7.5-2,7.5s-1.1-3.3-2.1-5.3c-2.4-5.2-6.1-9.7-10.4-13.5c-2.1-1.9-4.8-3.8-4.7-6.6C533,347.1,536.7,348.3,539.3,349.4z
			 M520.7,350.3c0.5-1.1,1.9-1.5,3.1-1.4c1.9,0.2,3.5,1.6,4.9,3c1.5,1.4,2.8,3,4.1,4.5c1.1,1.4,2.1,2.8,2.9,4.4
			c1.8,3.9,1.5,8.5,1.1,12.7c-2.7-5.2-6.8-9.4-10.9-13.5c-2.3-2.2-4.6-4.7-5.3-7.8C520.4,351.6,520.4,350.9,520.7,350.3z
			 M504.6,347.6c1.7-1,3.8,0.2,5.4,1.4c2.7,2.1,5.5,4.1,7.6,6.8c4.3,5.4,5.8,12.8,4.3,19.5c-1.5-2.8-3.3-5.4-5.4-7.8
			c-2.6-3-5.7-5.6-8.1-8.8C505.9,355.5,504.1,351.6,504.6,347.6z M486.9,348.1c0.5-0.6,1.4-0.5,2.1-0.3c1.5,0.5,2.9,1.2,4.3,2.1
			c4.4,2.8,8.4,6.7,10.5,11.5s2.2,10.7-0.6,15.1c-0.1-4.6-2.8-8.6-5.7-12.2c-2-2.6-4.1-5.1-6.3-7.5c-1.9-2.1-3.9-4.3-4.6-7.1
			C486.5,349.2,486.5,348.6,486.9,348.1z M467.3,348c0.3-0.9,1.5-1.2,2.5-1.1c5.5,0.2,10.1,4.1,13.8,8.2c4.7,5.2,9,11.8,8.3,18.8
			c-3.5-4.6-8.4-7.8-13-11.4c-4.6-3.5-9.1-7.5-11.4-12.8C467.4,349.2,467.2,348.6,467.3,348z M452,349.6c0.2-0.3,0.5-0.6,0.9-0.8
			c1.6-0.9,3.7-0.7,5.4,0.1s3.1,2.1,4.4,3.5c3.2,3.1,6.3,6.5,8.2,10.5c1.3,3,1.9,6.3,2.3,9.5c-5.8-4.2-11.4-8.9-16.5-13.9
			c-2-2-4.1-4.2-4.7-6.9C451.8,350.9,451.7,350.2,452,349.6z M433.6,347.7c0.2-0.4,0.6-0.7,1-0.8c1.3-0.5,2.8-0.2,4.1,0.3
			c9,3.5,17.4,15.1,12.2,24.6c-0.1,0.2-0.4,0.5-0.6,0.4c-0.1-0.1-0.2-0.2-0.2-0.3c-2.1-4.3-5-8.1-8.1-11.7c-1.7-2-3.4-4-4.9-6.1
			C436.2,353,432.9,349.1,433.6,347.7z M419.4,349c0.3-1.6,2.4-2,4-1.7c2,0.5,3.7,1.8,5.2,3.3c4.9,4.9,7.8,11.8,7.1,18.7
			c-2.6-4.1-5.7-7.8-9.3-11.1c-2.4-2.2-5.1-4.3-6.5-7.2C419.5,350.4,419.2,349.7,419.4,349z M408.5,346.1c1.5-0.5,3.2,0.1,4.4,1.1
			c1.2,1,2.1,2.3,2.9,3.7c3.5,5.7,6.8,12,6.7,18.7c-5.1-6.1-8.8-13.2-14.4-18.8c-0.7-0.8-1.6-1.6-1.5-2.7
			C406.8,347.1,407.6,346.3,408.5,346.1z M397,347.2c1.3-1.3,3.5-0.8,4.9,0.3c1.4,1.1,2.2,2.8,3.2,4.3c1.1,1.6,2.4,2.9,3.5,4.5
			c3.3,4.6,4.2,10.8,2.3,16.2c-1-4.2-3-8.1-5.8-11.3c-2.6-2.9-5.8-5.3-7.8-8.7C396.2,350.8,395.7,348.5,397,347.2z M391.7,354.4
			c0.3-0.2,0.7-0.3,1.2-0.3c0.9,0,1.8,0.5,2.5,1.2c0.6,0.7,1,1.5,1.3,2.4c1.4,4,0.6,8.6-1.9,12c-0.3,0.4-0.6,0.7-1,1
			c-0.5-3-1.3-6-2-9c-0.3-1-0.5-2.1-0.8-3.1c-0.2-0.7-0.3-1.4-0.3-2.2C390.7,355.6,391.1,354.8,391.7,354.4z M546.9,196.1
			c0.3-0.4,0.8-0.6,1.2-0.7c2.6-0.7,5.5,0.4,7.5,2.3c2,1.9,3.2,4.4,4,7c0.8,2.7,1.3,5.6,0.9,8.4c-0.4,2.8-1.7,5.5-3.9,7.3
			c0.9-5.9-0.6-12.1-4.1-16.9c-1.1-1.5-2.3-2.8-3.8-3.9c-0.6-0.4-1.2-0.8-1.7-1.4C546.7,197.5,546.5,196.7,546.9,196.1z
			 M535.7,197.4c1.3-0.6,2.9-0.4,4.3,0.2c4,1.5,7.1,5,8.7,9c1.6,4,1.7,8.5,0.9,12.7c-1.5-3.5-3.3-6.9-5.2-10.2
			c-1.2-2.1-2.6-4.2-4.4-5.8c-1.6-1.5-3.6-2.6-4.7-4.5c-0.1-0.2-0.3-0.4-0.2-0.7C535.1,197.8,535.4,197.6,535.7,197.4z M524.3,198.2
			c0.7-0.9,2-1.1,3.1-0.8s2,1.1,2.8,1.8c1.2,1.1,2.4,2.1,3.6,3.3c1.1,1.1,2.1,2.3,2.9,3.7c2.4,4.1,2.2,9.5-0.4,13.4
			c0.3-3.3-0.9-6.5-2.7-9.2c-1.9-2.7-4.4-4.9-6.9-6.9c-0.8-0.7-1.7-1.3-2.3-2.3C523.8,200.4,523.7,199.1,524.3,198.2z M511.9,197.4
			c1.1-1.2,3-0.4,4.3,0.5c6.5,4.8,9.8,13.4,8.4,21.4c-3.8-4.9-7.5-9.9-11-14.9c-1-1.5-2.1-3.1-2.2-4.9
			C511.3,198.7,511.4,197.9,511.9,197.4z M495.6,198.7c0.5-1,1.9-1,3-0.8c4.2,1,8,4.1,9.8,8c1.9,3.9,1.9,8.7,0,12.7
			c-0.8-3.6-3.2-6.6-5.7-9.3s-5.2-5.3-6.8-8.5C495.5,200.2,495.2,199.4,495.6,198.7z M479.3,198.2c0.5-0.8,1.7-0.7,2.6-0.5
			c8.8,2,15.9,10.1,16.7,19.1c-7.1-4.3-14.3-8.9-18.8-15.9C479.3,200,478.8,198.9,479.3,198.2z M464.7,198.7c1.8-1.2,4.2-1,6.1,0
			c1.9,1,3.4,2.6,4.8,4.2c3.3,3.8,6.5,8,7.3,13c-5.8-4-11.3-8.5-16.4-13.3C465.3,201.5,464.2,200.1,464.7,198.7z M454.9,197.5
			c0.8-0.2,1.6,0,2.4,0.4c2.7,1.2,4.7,3.5,6.3,5.9c2.2,3.1,4.1,6.7,4.3,10.5c-5.4-3.9-10.1-8.6-13.9-14c-0.2-0.3-0.4-0.6-0.5-1
			C453.4,198.5,454.1,197.7,454.9,197.5z M438.4,198.3c0.2-0.1,0.4-0.1,0.6-0.1c6.4,0.6,11.7,5.1,15.9,10c1.9,2.2,3.8,5,2.9,7.8
			c-5-2.1-9.7-5-14-8.5c-2.7-2.2-5.4-5.1-5.6-8.6C438.3,198.7,438.3,198.5,438.4,198.3z M421.8,198c0.2-0.2,0.5-0.4,0.8-0.5
			c2.7-0.9,5.7,0.3,7.9,2.1c4.7,3.7,7.7,9.5,7.9,15.5c-1.6-1.6-3.9-2.1-5.9-3.2c-2.1-1.1-3.7-2.9-5.3-4.6c-2-2.1-4.1-4.3-5.3-7
			C421.5,199.6,421.3,198.6,421.8,198z M407.7,194.1c0.4-0.1,0.9,0,1.3,0.2c4.2,1.3,7.9,4.4,10.2,8.1c2.4,3.8,3.6,8.2,3.9,12.6
			c-1.8-0.7-3.6-1.6-5.4-2.6c-1.2-0.7-2.3-1.4-3.3-2.3c-0.8-0.8-1.5-1.8-2.2-2.7c-1-1.5-2.1-3-3.1-4.5c-1.2-1.7-2.4-3.6-2.8-5.6
			C406.1,196.1,406.5,194.4,407.7,194.1z M392.7,192.9c0.3-0.3,3.4-0.2,3.8-0.2c2.2,0.4,4.4,2.1,5.8,3.7c0.6,0.6,0.9,1.4,1.3,2.2
			c2.3,4.9,3.8,10.6,2.1,15.9c-0.9-1.8-2.1-3.5-3.6-4.9c-0.9-0.9-1.9-1.6-2.8-2.5c-2.2-2.1-4.4-4.7-5.8-7.7
			C392.9,198.3,391.7,193.9,392.7,192.9z M374.7,743.9c1.2,0.6,2,2.1,1.6,3.4c-0.3,0.8-1,1.4-1.6,2c-0.4,0.4-0.9,0.7-1.3,1.1
			c-3.7,3.2-7.6,6.5-9.3,11.1c-0.2-1-0.3-2-0.5-3c-0.5-3.2-1-6.7,0.7-9.4c0.8-1.2,1.9-2.1,3-3c1.1-0.9,2.2-1.7,3.4-2.2
			C372,743.4,373.5,743.3,374.7,743.9z M365.9,739.6c1.2-0.7,2.7-1.2,4-0.8c1.3,0.4,2.3,2.2,1.4,3.3c-0.3,0.3-0.6,0.6-1,0.8
			c-1.7,1.1-3.4,2.1-5.1,3.2c-1.3,0.8-2.6,1.6-3.6,2.8c-1,1.2-1.7,2.6-2.2,4.1c-0.1,0.5-0.4,1.1-0.9,1
			C357.9,748.4,360.9,742.5,365.9,739.6z M354.2,745.7c0.1-0.8,0.3-1.6,0.5-2.3c0.4-1.4,1-2.8,1.9-3.9c0.9-1.1,2.2-2,3.7-2.2
			c0.5,0,1,0,1.3,0.3c0.5,0.5,0.4,1.3,0.1,2c-0.5,1.3-1.2,2.4-2,3.5c-1.7,2.4-3.4,4.9-5.1,7.3C354.4,748.9,354.1,747.3,354.2,745.7z
			 M360.8,687.2c-0.5,2.8-1.6,5.4-2.8,7.9c-1.5-5-2.4-10.1-2.9-15.3c-0.2-1.8-0.3-3.7-0.8-5.4c-1-3.2-3.4-6.2-2.5-9.4
			c0.5-0.8,1.7-0.8,2.5-0.3c0.8,0.5,1.2,1.4,1.6,2.2C358.8,673.3,362,680.2,360.8,687.2z M367.1,684c-0.8-0.5-1.2-1.4-1.5-2.3
			c-3.3-9.9-5.2-20.4-5.5-30.8c3.1,2.3,5.2,5.8,6.5,9.5c1.3,3.7,1.8,7.6,2.3,11.4C369.4,675.9,369.8,680.7,367.1,684z M377.1,646.7
			c-1.1-2.8-2.8-5.4-4.9-7.6c-1.9-1.9-4-3.5-5.7-5.5c-1.7-2-2.9-4.8-2.2-7.3c0.1-0.3,0.2-0.5,0.4-0.7c0.2-0.2,0.5-0.2,0.7-0.2
			c4.8-0.6,9.7,2.7,11.7,7.1S378.8,642.1,377.1,646.7z M361.9,610.9c0.2-1.5,1.3-2.9,2.8-3.4c1.6-0.6,3.5-0.2,5,0.7
			c1.5,0.9,2.6,2.3,3.6,3.7c2.3,3.2,4.3,6.6,5.8,10.2c0.9,2.2,1.7,4.6,1.3,6.9c-2.5-1.3-3.3-4.5-5.1-6.6c-0.8-0.9-1.7-1.5-2.6-2.2
			c-3.2-2.3-6.4-4.5-9.6-6.8c-0.3-0.2-0.7-0.5-0.9-0.8C361.9,612,361.8,611.4,361.9,610.9z M358.4,639.6c1.9-1,4.3-0.9,6.3-0.1
			c2,0.8,3.7,2.2,5.1,3.8c6.2,6.9,8,17.5,4.4,26c-2.8-4.3-4.3-9.2-6.4-13.8c-2.1-4.6-4.8-9.2-9.1-12c-0.8-0.5-1.8-1.1-1.8-2
			C356.8,640.7,357.6,640,358.4,639.6z M349.2,593.6c0.4,2.2,0.4,4.4,0,6.5c-3.9,0.9-8.2-0.2-11.2-2.9c-2.2-1.9-3.6-4.6-5-7.2
			c-0.5-1-1.1-2-1.6-3.1c-1.3-3-2-6.2-2-9.4c2.9,2.9,4.1,7.2,7.2,9.8c1.9,1.6,4.4,2.4,6.8,2.3c1.2-0.1,2.4-0.3,3.4,0.2
			C348.3,590.4,349,592.1,349.2,593.6z M372.8,520.9c-0.4,2.5-1.6,5-3.9,6.1c-0.2-4.5-2.9-8.5-3.3-13c-0.1-1.8,0.1-3.6,0.4-5.4
			c0.3-2.3,0.7-4.5,1-6.8c1.3,3.3,2.7,6.6,4,9.9c0.7,1.7,1.4,3.3,1.7,5.1C373,518.2,373,519.6,372.8,520.9z M378,507.7
			c0,0.5-0.1,1-0.2,1.4c-0.2,0.4-0.4,0.8-0.6,1.1c-0.5,0.8-1,1.8-1.3,2.7c0-1.8-0.4-3.6-1.2-5.2c-0.9-2-2.3-3.8-3.3-5.8
			c-2.1-4.6-1.4-9.8-1.5-14.8c0-2-0.2-4-0.5-6c0.5,0,0.9,0.5,1.2,0.9C375.9,489.3,378.6,498.6,378,507.7z M386.5,489.7
			c-1.3,2.6-3.1,6.2-5,8.3c-0.5-2.2-0.4-4.7-0.5-7c-0.1-2-0.2-4.1-0.6-6.1c-1.2-6.3-5-11.9-5.7-18.3c-0.1-0.6,0-1.5,0.7-1.6
			c0.2,0,0.5,0,0.7,0.1c1.2,0.5,2.4,0.9,3.5,1.4C385.8,473,391.1,480.6,386.5,489.7z M366.9,448.9c1.8-1.4,4.1-2.1,6.3-2.1
			c5.9-0.2,11.8,3.7,13.9,9.2c1,2.7,1.2,5.7,1.4,8.6c0,0.7,0,1.5-0.5,1.9c-0.7,0.6-1.7,0.3-2.4-0.2c-2-1.3-3.4-3.2-5.1-4.9
			c-4.3-4.3-10.4-6.7-16.5-6.6C364,452.5,365.1,450.3,366.9,448.9z M364.5,529.3c0.3,2.8-0.3,5.7-1.1,8.4c-0.4,1.2-1.1,2.6-2.4,2.5
			c-1.4-2.8-2.8-5.6-3.3-8.6c-0.9-5.8,1.6-11.5,1.8-17.4c1,2.5,1.9,5.1,2.9,7.6C363.3,524.3,364.3,526.8,364.5,529.3z M376.8,376.1
			c-1.2-4.9-3.1-9.6-5-14.4c-1-2.5-2-5.1-3-7.6c-1.4-3.6-2.9-7.3-4.9-10.6c2.2,0,4.2,1.2,6.1,2.4c1.5,0.9,2.9,1.8,4.1,3.1
			c0.9,1,1.5,2.2,2,3.4C379.5,359.8,379.7,368.5,376.8,376.1z M383.6,354.7c-1.4-11.2-8-21.6-17.5-27.6c-0.9-0.6-2-1.3-2-2.4
			c-0.1-1,0.8-1.9,1.7-2.4c3-1.7,6.9-1.2,9.9,0.6c3,1.8,5.1,4.7,6.6,7.9C385.8,338.2,386.3,347,383.6,354.7z M363.9,308.9
			c3.3-0.9,6.8-0.8,10,0c3.2,0.8,6.2,2.6,8.1,5.3c1.8,2.7,2.3,5.9,2.7,9.1c0.2,1.6,0.5,3.3,0.7,4.9c-0.8-2.7-3.1-4.6-5.4-6.2
			c-2.6-1.7-5.4-3.2-8.4-4.3c-2-0.8-4.2-1.5-5.7-2.9C364.4,313.4,363.6,311.1,363.9,308.9z M371.5,382.5c0.9,6.9-1.6,14-5.9,19.4
			c-0.1,0.2-0.3,0.4-0.5,0.3c-0.2,0-2.9,1.9-3.1,2.3c0,0,0,0,0,0c0,0,0,0,0,0c1.5-12.7,0.7-25.6-2.2-38
			C366.2,369.1,370.6,375.6,371.5,382.5z M359.9,406.4c1.1,3,2.2,6.2,1.8,9.4c-0.2,1.2-0.6,2.4-1,3.6c-0.2,0.5-0.4,1-0.8,1.4
			c-1,0.8-2.4,0-3.2-1c-1.3-1.6-1.9-3.5-2.3-5.5c-1.8-8-1.2-16.5-3.6-24.4c3.1,0.6,4.6,4,5.7,6.9C357.6,400,358.7,403.2,359.9,406.4
			z M377.3,211.3c-2,0.9-4.3,0.7-6.5,0.6c-7.5-0.2-15.1,0.9-22.2,3.3c2.2-6,8.2-10.4,14.5-10.8c2.3-0.1,4.5,0.2,6.8-0.1
			c1.9-0.2,3.8-0.9,5.7-0.9s4,0.9,4.7,2.7C381,208.2,379.4,210.5,377.3,211.3z M386.5,190.2c-0.8,3-2.9,5.7-5.7,7.1
			c-1.1,0.5-2.2,0.9-3.4,1.2c-6.3,1.6-12.9,1.6-19.2,0.2c1.7-3.1,4.9-5.2,8.2-6.5c1.3-0.5,2.6-1,3.9-1.3c2.6-0.6,5.3-0.8,8-0.6
			c1.7,0.1,3.5,0.4,4.8-0.5c0.5-0.4,0.9-0.9,1.5-1.2c0.5-0.3,1.3-0.4,1.7,0.1C386.7,189,386.6,189.7,386.5,190.2z M388.2,211.8
			c-1.9-2.8-1.4-5.7-1-8.9l0.2,0.2c0.3-0.8,1.6-1,2.3-0.4c0.7,0.5,1,1.5,1.3,2.4c0.8,3,1.3,6.2,1.3,9.3
			C392.3,214.3,388.5,212.3,388.2,211.8z M376,166.9c0.3-1.1,0.7-2.2,1.3-3.2c2.1-3.2,6.6-4.6,10.1-3.1c1.2,0.5,2.2,1.2,3.2,2
			c0.4,0.3,0.9,0.8,0.8,1.3c-0.1,0.2-0.2,0.4-0.4,0.5c-3.4,3.5-7.7,6.6-12.6,6.8c-0.4,0-0.9,0-1.3-0.1c-0.7-0.3-1.2-1-1.4-1.8
			C375.6,168.5,375.8,167.7,376,166.9z M385.7,172.8c1.1-0.2,2.2-0.4,3.3-0.5c0.5-0.1,1.1-0.1,1.5,0.2c0.2,0.2,0.3,0.4,0.4,0.6
			c0.8,2-0.8,4-2.3,5.6c-3,3.1-6.3,6.3-10.5,7.3c-1.8,0.4-3.6,0.4-5.5,0.6c-3.2,0.3-6.3,1-9.2,2.3
			C368.1,180.6,376.4,174.6,385.7,172.8z M358.2,166.4c0.8-1,2.1-1.4,3.3-1.6c0.6-0.1,1.3-0.1,1.8,0.2c1.2,0.6,1.2,2.2,1.1,3.5
			c-1.1,9.1-5.8,17.7-13,23.4c0.7-7.9,3.2-15.6,5.7-23.1C357.3,167.9,357.6,167.1,358.2,166.4z M332.2,144.2
			c-0.6,0.8-1.8,1.8-2.6,1.1c-0.2-0.2-0.4-0.5-0.5-0.8c-1.2-2.7-1.5-5.6-1.1-8.5c0-1.5,0.1-2.9,0.5-4.3c0.3-1.1,0.9-2.2,1.5-3.2
			c3.5-5.7,12.2-9.1,15.6-10.6c0.7-0.3,3-0.8,3.4-0.8c0.5,0,0.7,0.1,1.1,0.2c0.4,0.2,0.8,0.7,1,1.1c0.8,1.8,0.4,3.4-0.5,4.9
			c-0.5,1-1.3,1.8-2.1,2.6c-1,1.2-2.1,2.2-3.3,3.2C340.6,134,336.2,138.9,332.2,144.2z M340.5,165c-3-3-4-7.4-3.6-11.6
			c0.4-4.2,2-8.1,3.7-11.9c0.8-1.8,1.6-3.6,2.8-5.1c2.3-3.1,5.9-5,9.4-6.5c1.3,4.2-1.4,8.4-3.7,12.1C345,149.1,342,156.9,340.5,165z
			 M346.1,180.1c-2.7-7.4-1.5-15.7,0.6-23.3c0.9-3.4,2.1-6.9,4.3-9.7c0.3-0.3,0.5-0.6,0.9-0.8c1.3-0.5,2.5,1,2.9,2.4
			c1.6,5,0.9,10.5-0.5,15.5s-3.5,9.9-4.7,15c-0.3,1.2-1.1,2.8-2.3,2.5C346.6,181.4,346.3,180.7,346.1,180.1z M351.3,218.3
			c2.8-1.1,5.9-0.4,8.8-0.8c2.3-0.3,4.5-1.3,6.9-1.5s5.1,1.1,5.4,3.4c0.4,2.5-2.1,4.5-4.5,5.4c-1.8,0.6-3.8,0.9-5.7,0.8
			c-1.4-0.1-2.8-0.3-4.2-0.2c-1.9,0.2-3.7,1-5.5,1.6c-3.9,1.1-8.2,0.7-11.8-1.1C345,224.9,347.2,219.9,351.3,218.3z M342.9,234
			c3.4-1.3,7.2-1.2,10.9-0.8c1.5,0.1,3,0.3,4.4,0.5c1.1,0.1,2.3,0.3,3.4,0.4c0.9,0.1,1.9,0.3,2.3,1.1c0.6,1.1-0.4,2.3-1.4,2.9
			c-4,2.7-9.2,2.8-14,2.8c-4.2,0-8.5,0.1-12.7,0.8C336.4,238.1,339.5,235.2,342.9,234z M327.8,261.3c1-1.7,1.9-3.4,2.9-5
			c0.6-1,1.2-2,1.9-3c4-5.3,11.2-7.1,17.8-7.1c2.3,0,5.2,0.5,5.9,2.7c0.6,1.9-0.8,3.9-2.4,5.2c-1.3,1-2.9,1.9-4.6,1.9
			c-1.2,0-2.4-0.3-3.6-0.4c-1.8-0.1-3.6,0.5-5.4,1.1c-1.1,0.4-2.2,0.8-3.1,1.5c-0.6,0.5-1,1.1-1.4,1.6c-1.7,2.1-3.8,3.9-6.2,5.3
			c-0.3,0.2-0.6,0.3-1,0.4c-0.9,0.1-1.6-0.8-1.6-1.7C326.9,262.9,327.4,262.1,327.8,261.3z M327.9,275.1c1.1-2.6,2.8-4.8,4.9-6.7
			c3.7-3.6,8.9-6.4,14-5.3c1.4,0.3,3,1.2,3.1,2.6c0.1,1.1-0.7,2.1-1.6,2.6c-0.9,0.6-2,0.8-3,1.2c-2.7,1-4.9,3.1-7,5.1
			c-3.1,3-6.2,6.1-9.5,8.8c-0.3,0.3-0.8,0.6-1.2,0.3c-0.1-0.1-0.2-0.3-0.3-0.5C326.5,280.7,326.9,277.7,327.9,275.1z M326.6,307.7
			c-1-3.4-1.9-7-1-10.4c0.9-3.3,3.3-5.9,5.8-8.3c3.8-3.7,7.6-7.4,11.6-10.9c0.7-0.7,1.6-1.4,2.6-1.2c0.3,1.5,0.7,3,0.6,4.6
			c-0.2,2.7-1.8,5.1-3.6,7.2c-1.8,2-3.9,3.8-5.5,6c-1.7,2.3-2.7,5-4.1,7.4C331.3,304.5,329.4,306.9,326.6,307.7z M333.9,328.4
			c0,0.1-0.1,0.1-0.2,0.2c-0.2,0.1-0.3-0.1-0.4-0.2c-2.4-3.5-3.4-7.9-2.7-12.1c0.6-3.3,2.2-6.4,3.9-9.3c2.1-3.7,4.8-7.6,8.9-8.5
			c0,0.4,0.1,0.8,0.1,1.2c0.2,2.7,0.4,5.6-0.8,8.1c-0.6,1.2-1.4,2.2-2.1,3.3C337.3,316.2,337.1,323,333.9,328.4z M345.6,333
			c-1.1,4.6-2.1,9.2-3.2,13.7c-2.3-0.4-4-2.5-4.6-4.8s-0.4-4.6-0.1-6.9c0.2-1.7,0.4-3.4,0.6-5.2c0.5-4.7,1-9.5,2.8-13.9
			c0.5-1.3,1.1-2.5,2.1-3.4c1-0.9,2.5-1.3,3.7-0.8c1.8,0.8,2.2,3.3,2,5.3c-0.2,2.7-0.8,5.3-1.4,7.9
			C346.9,327.7,346.3,330.4,345.6,333z M348.2,345.6c-0.1-7.9,1.2-16.1,4.9-23.1c0.4,6,0.9,11.9,1.3,17.9c0.4,5.8,0.8,11.7-1,17.2
			c-0.4,1.1-1.2,2.5-2.4,2.4C348.9,355.6,348.3,350.5,348.2,345.6z M342.7,413c0.5-0.7,1.4-1,2.3-1c1.7-0.1,3.4,0.8,4.5,2.1
			c1.2,1.2,1.9,2.8,2.5,4.4c2.3,6,2.5,12.8,0.7,19c-2-0.9-3.7-2.4-4.7-4.3c-0.6-1-1-2-1.4-3.1c-0.9-2.4-1.8-4.8-2.7-7.2
			c-0.9-2.5-1.9-5.1-1.9-7.8C342.2,414.5,342.3,413.7,342.7,413z M331.2,432.5c0.2-1.3,1-2.6,2.2-3c2-0.8,4.1,1,5.4,2.7
			c3.5,4.9,5.2,11.4,10,14.9c2.3,1.7,5.3,2.8,6.1,5.6c-1.7-0.3-3.4-0.6-5.2-0.9c-1.2-0.2-2.5-0.4-3.7-0.9c-1.8-0.6-3.4-1.6-5-2.6
			c-1.7-1.1-3.4-2.2-4.8-3.7c-2.2-2.3-3.6-5.2-4.6-8.3C331.4,435.1,331.1,433.8,331.2,432.5z M334.9,462.7c-0.5-0.2-0.9-0.5-1.4-0.8
			c-1.5-1-3-2.1-4-3.6c-0.9-1.5-1.2-3.7,0-5c1.1-1.3,3.1-1.5,4.9-1.3c4,0.5,7.5,2.7,10.9,4.8c2.4,1.5,8.9,4.7,11.3,6.2
			c0.4,0,0.4,0.7,0.1,1c-1.8,2.2-5.1,1.9-7.8,1.4c-3.7-0.6-7.4-1.3-11.1-1.9C336.8,463.3,335.8,463.1,334.9,462.7z M339.5,477.2
			c-2.5-1.5-4.3-4.4-3.7-7.3c5.1-1,10.2,1.4,15.4,1.6c1,0,2.1,0,3.1,0.1c1.4,0.1,2.7,0.5,4,0.9c0.8,0.3,1.8,0.6,2.1,1.5
			c-1.9,2.3-4.5,3.9-7.4,4.6c-1.6,0.4-3.3,0.5-5,0.4C345,479.1,342,478.7,339.5,477.2z M351.2,494.4c-2-0.3-3.9-1.7-4.6-3.6
			c-0.6-1.7-0.1-3.8,1.4-4.6c0.6-0.3,1.3-0.5,2-0.5c2.7-0.3,5.4-0.2,8.1,0.4c0.7,2,0.3,4.4-1.1,6.1S353.3,494.7,351.2,494.4z
			 M346.9,537.5c0.2-6,0.6-12.6,4.7-16.8c-0.4,0.7-0.3,1.6-0.3,2.4c0.6,7.3,1.9,14.5,3.9,21.6c0.8,2.8,1.7,5.7,0.9,8.5
			c-2.1,0.8-4.6,0-6.3-1.6c-1.6-1.6-2.4-3.9-2.8-6.1C346.7,542.7,346.8,540.1,346.9,537.5z M339.9,550c0.2-2.6,1.4-4.9,2.5-7.2
			c3.8,8.1,5.2,17.4,3.8,26.3c-0.1,0.5-0.2,1.1-0.5,1.6c-0.3,0.4-1,0.7-1.5,0.4c-0.3-0.2-0.5-0.6-0.6-0.9c-2-5.3-2.8-10.9-3.5-16.5
			C339.9,552.4,339.8,551.2,339.9,550z M329.6,566.6c0.9-3.4,2.2-6.8,4-9.9c2.2,3.8,2.1,8.5,4.3,12.3c0.6,1.1,1.4,2,2,3.1
			c1.4,2.4,1.7,5.4,1,8.1c-0.1,0.2-0.1,0.4-0.3,0.6c-0.3,0.3-0.8,0.3-1.2,0.2c-3.4-0.7-5.7-3.7-7.7-6.5c-1.2-1.6-2.4-3.4-2.4-5.4
			C329.2,568.3,329.4,567.4,329.6,566.6z M328,593c3,3.3,5.9,6.7,9.4,9.4c4.3,3.3,7.7,3.5,12.9,3.5c0.8,0,1.6,0,2.2,0.5
			c0.6,0.4,0.9,1.1,1.2,1.8c0.7,1.6,1.3,3.7,0,4.9c-0.5,0.5-1.2,0.7-2,0.9c-0.1,0-0.2,0-0.3,0c-5.7,0.9-13.9-1.8-17.8-6.1
			C330.2,603.9,329,598.3,328,593z M349,630.7c-2.3-0.6-4.3-2-6.2-3.5c-4.8-3.8-9.3-8.5-10.8-14.5c3.9,1.6,7.7,3.1,11.6,4.7
			c2.3,0.9,4.6,1.8,7,1.7c1.9-0.1,4.2-0.7,5.4,0.7c0.5,0.6,0.7,1.5,0.8,2.3c0.3,2.4,0.3,5-1.2,6.9C354,630.8,351.3,631.3,349,630.7z
			 M343.5,674.9c1.3-1.1,3.4-0.6,4.6,0.5c1.2,1.2,1.7,2.9,2.1,4.5c2.2,8.7,2.8,17.7,1.6,26.6c0-0.4-1.4,2.8-1.4,2.4
			c0-2.9-2.1-5.3-3.4-7.9c-2-3.6-2.7-7.8-3.4-11.9C342.8,684.4,342.1,679.5,343.5,674.9z M330.1,689.5c0.4-0.7,1.3-0.8,2.1-0.6
			c2.1,0.5,3.4,2.5,4.4,4.4c4.3,7.6,8.7,15.9,7.9,24.6c0,0.3,0,0.8,0.3,0.9c0.3,0.1,0.6,3.8,0.3,4c0.1,0.3-0.5,0.3-0.7,0
			c-4.7-5.3-8.2-11.8-9.9-18.7c-0.4-1.8-0.8-3.5-1.5-5.2c-1.2-2.8-3.3-5.4-3.1-8.4C329.8,690.1,329.9,689.8,330.1,689.5z M323.1,712
			c4.3,2.2,6.6,7,9.9,10.6c1.5,1.6,3.2,2.9,4.7,4.5c2.2,2.3,4,5.1,5.2,8.1c0.2,0.5,0.4,1,0.3,1.6c-0.1,1.1-1.3,1.9-2.5,1.9
			s-2.2-0.5-3.2-1.1c-3.3-1.9-6.3-4.2-8.9-6.9c-1.1-1.1-2.2-2.3-3-3.6C322.9,722.7,323,717.2,323.1,712z M326,746.6
			c-1.1-1.4-4.6-5.2-2.1-6.7c1.9-1.1,9,1.6,11.1,2.1c1.3,0.3,2.6,0.6,3.8,0.8c1.3,0.3,2.6,0.6,3.8,1.2c1,0.5,1.9,1.2,2.6,2.1
			c1.3,1.6,1.9,4.1,0.7,5.7c-1.4,1.7-4.4,1.6-6.4,1.3c-2.1-0.3-4.3-0.5-6.3-1.3C330.4,750.8,327.9,748.9,326,746.6z M328.3,757.3
			c3.6-0.9,7.4-0.5,11,0.4c3.6,1,7,2.5,10.4,4.1c0.3,0.1,0.5,0.2,0.7,0.5c0.7,0.8,0,2-0.8,2.6c-2.9,2.5-7.2,3.2-10.9,2.3
			C333.9,765.9,329.8,762,328.3,757.3z M333,769.9c3.2,0.4,6.4,0.9,9.7,1.5c1.1,0.2,2.2,0.4,3.2,0.6c0.9,0.2,1.9,0.3,2.7,0.8
			s1.4,1.4,1.3,2.3c-0.1,0.8-0.7,1.4-1.4,1.7c-0.7,0.3-1.5,0.4-2.2,0.4C340.9,777.3,335.8,774.4,333,769.9z M353.5,819.3
			c-2.5,1.8-5.5,2.7-8.5,3.7c-4.1,1.3-8.2,2.5-12.3,3.8c-3.1,1-6.4,1.9-9.7,1.7c1.5-1.4,3-2.8,4.5-4.1c2.1-1.9,4.3-3.9,6.9-5.2
			c1.5-0.7,3.1-1.2,4.6-1.7c6.3-1.9,12.5-3.9,18.8-5.8C357.9,814.6,356,817.5,353.5,819.3z M363.2,804.4c-0.9,1.5-2.3,2.6-3.9,3.3
			c-3.3,1.5-7.1,1.4-10.5,2.6c-1.2,0.4-2.4,1-3.5,1.6c-3.2,1.5-6.7,2.5-10.2,3c-0.2-2.7,1.6-5.2,3.7-6.8c2.1-1.6,4.7-2.6,7.1-3.9
			c2.6-1.4,5-3.1,7.7-4.3c2.7-1.2,5.7-2,8.6-1.4c0.2,0,0.4,0.1,0.6,0.2c0.3,0.2,0.5,0.4,0.7,0.7
			C364.3,800.9,364.1,802.9,363.2,804.4z M365.2,794c-1.9,1.9-4.4,3-7.1,3.2c-0.9,0.1-1.7,0-2.6,0c-4.3,0-8.6,1.2-12.3,3.4
			c1.5-3.2,3.3-6.8,6.6-7.9c0.9-0.3,1.8-0.4,2.7-0.5c4-0.5,7.9-1.4,11.7-2.7c0.8-0.3,1.8-0.5,2.3,0.2c0.2,0.2,0.2,0.5,0.2,0.8
			C366.9,791.9,366.1,793.1,365.2,794z M376.6,775.5c-0.6,4-3.4,7.4-6.8,9.5c-3.4,2.1-7.4,3.1-11.4,3.7c-2.9,0.5-6,0.8-8.9,0.3
			c-0.6-0.1-1.3-0.3-1.5-0.8c2.7-0.7,5.5-1.4,7.6-3.1c1.2-1,2.2-2.2,3.3-3.4c4.1-4.4,9.4-7.6,15.2-9c0.3,0,0.5-0.2,0.8-0.2
			c0.6-0.1,1.3,0.4,1.6,1C376.7,774.2,376.7,774.9,376.6,775.5z M380.4,760.7c-0.4,2.9-2.2,5.5-4.4,7.5c-2.2,2-4.8,3.3-7.5,4.6
			c-1.8,0.8-3.7,1.4-5.5,2.2c-1.6,0.8-2.9,1.7-4.7,2.2c-0.4,0.1-0.7,0.2-1.1,0.2c-1.2,0.2-2.3,0.5-3.5,0.7c1.3-1.5,2.7-2.9,4.2-4.1
			c4.9-4.1,7.5-10,11.5-14.8c1.6-1.9,3.4-3.7,5.6-4.8c0.8-0.4,1.8-0.7,2.7-0.7c0.9,0,1.9,0.5,2.3,1.3c0.3,0.6,0.4,1.3,0.4,2
			C380.5,758.2,380.6,759.5,380.4,760.7z M396.2,785.7c-0.7-1.7-1.5-3.4-2.4-5c-2-3.5-5.3-8.9-6.2-12.8c-0.3-1.1,0.6-2.2,1.7-2.5
			c1.1-0.3,2.3,0.1,3.1,0.9c0.9,0.7,1.5,1.7,2,2.7c1.5,2.6,2.9,5.3,3.4,8.2C398.4,780.1,398,783.3,396.2,785.7z M413.9,786.9
			c-0.2,1-1.2,2.2-2.1,1.7c-0.5-0.2-0.7-0.8-0.9-1.3c-1.5-4-5.5-6.4-8.2-9.6c-3.2-3.9-4.6-9-8.2-12.5c2.8,0,5.5,1.2,7.7,2.8
			c2.3,1.6,4.1,3.7,6,5.8c1.7,1.9,3.3,3.7,4.5,6C413.9,781.9,414.5,784.5,413.9,786.9z M426.4,787.8c-0.3,0.5-1.1,0.5-1.6,0.2
			s-0.8-0.8-1.2-1.3c-4-6.1-8.8-11.6-14.4-16.3c-1.3-1.1-2.7-2.3-2.9-4c0-0.3,0-0.6,0.1-0.8c0.2-0.2,0.4-0.2,0.7-0.3
			c4-0.5,7.7,1.7,10.7,4.4c4.9,4.4,8.5,10.5,8.7,17C426.6,787.1,426.6,787.5,426.4,787.8z M440.7,788.5c0,0.7-0.1,1.5-0.4,2.1
			c-0.3,0.6-1,1.1-1.7,1c-1-0.2-1.4-1.3-1.7-2.3c-1.5-5.5-4.5-10.5-8.4-14.6c-1.6-1.6-3.5-3.4-3.6-5.6c0-0.3,0-0.6,0.2-0.8
			c0.2-0.2,0.4-0.3,0.6-0.3c4.8-1.4,10,1.7,12.5,6C440.6,778.3,440.9,783.5,440.7,788.5z M454.3,790.2c-2.7-4.2-5.4-8.5-8.7-12.2
			c-3-3.4-6.5-6.4-8.6-10.4c2.1,0,4.1,0.2,6.2,0.5c1,0.2,2,0.4,2.9,0.8c1.1,0.5,2,1.3,2.9,2.2C453.8,776.1,455.8,783.5,454.3,790.2z
			 M472.2,793c-4.1-4.1-8.2-8.3-12.3-12.4c-3.1-3.1-6.4-6.7-6.3-11.1c1.9,0.3,3.8,0.4,5.6,1.1c2.5,1,4.2,3.3,5.8,5.4
			c1.9,2.5,3.8,5.1,5.2,7.9C471.6,786.7,472.5,789.9,472.2,793z M485.8,792.8c-5-4.9-10-9.7-15-14.6c-2-1.9-4.1-4.2-4.1-6.9
			c2.3-0.2,4.7,0.6,6.7,1.8c2,1.2,3.7,2.9,5.4,4.5c2.1,2.1,4.3,4.2,5.7,6.7S486.7,789.9,485.8,792.8z M501.8,796
			c-2.9-1.1-4.7-3.9-6.6-6.4c-3.8-4.8-8.7-8.7-12.9-13.3c-0.7-0.8-1.4-1.7-1.8-2.7c-0.3-1-0.2-2.3,0.5-3.1c0.5-0.5,1.2-0.7,1.9-0.8
			c3.6-0.5,6.7,2.5,9.2,5.2c2.7,3,5.4,6,7.3,9.5C501.4,788,502.5,792,501.8,796z M512.6,794.9c-4.2-7.2-10.7-12.7-16.4-18.7
			c-0.9-1-1.9-2.1-1.9-3.5c2.2,0.3,4.6,0,6.8,0.6c2.8,0.8,5,2.9,6.9,5.1c1.9,2.3,3.7,4.8,4.6,7.7
			C513.5,788.9,513.7,792.1,512.6,794.9z M527,795.3c-0.4,0.7-1.1,1.3-1.8,1.1c-0.3-0.1-0.6-0.3-0.8-0.6c-1.8-2-2.4-4.7-3.3-7.2
			c-1.1-3.2-2.8-6.1-4.9-8.7c-1.1-1.3-2.3-2.6-3-4.1c-0.8-1.5-1.1-3.4-0.3-4.9c0.1-0.2,0.2-0.4,0.4-0.5c0.3-0.2,0.7-0.2,1.1-0.2
			c1.8,0.3,3.4,1.3,4.3,2.8c0.5,0.9,0.8,1.9,1.3,2.8c0.9,2,2.3,3.7,3.5,5.5c1.7,2.6,3,5.5,3.8,8.6
			C527.6,791.7,527.9,793.7,527,795.3z M539.9,795.6c-2.9-3.5-4.5-7.8-7.4-11.3c-3.2-3.8-7.8-6.4-10-10.8c2.2-0.2,4.5-0.1,6.7,0.1
			c0.8,0.1,1.6,0.2,2.3,0.4c1,0.4,1.9,1,2.7,1.7c4.1,3.5,6.8,8.7,7.1,14.2C541.4,791.9,541.2,794.1,539.9,795.6z M553.7,794.3
			c-0.7,1.6-1.9,3.2-3.6,3.5c0.1-8-4.6-15.2-9.9-21.2c-1.3-1.5-2.7-3.2-2.5-5.2c3.9-0.3,7.6,1.8,10.4,4.5c2.5,2.3,4.6,5.2,5.7,8.4
			C555,787.5,555.1,791.1,553.7,794.3z M562.6,794.5c-0.7,1.3-2,2.7-3.3,2c0.2-1.7,0.3-3.4,0.3-5c0-1.9,0.3-3.2,0-5.4
			c-0.2-2-0.8-4-1.9-5.5c-1.6-2.2-5-5.1-7.5-6.3c-0.7-0.3-1.4-0.6-1.9-1.2c-0.7-1.1,0-2.7,1.2-3.2c0.6-0.3,1.3-0.4,1.9-0.3
			c0.6,0,1.2,0.2,1.8,0.3c4.8,1.5,9,4.9,10.7,9.7C565.7,784.3,565,789.9,562.6,794.5z"/>
	</g>
	<path d="M865.1,795c-1.3-1.4-2.9-2.6-4.7-3.4c-1-0.4-1.9-0.7-2.9-1c-3.6-1-7.1-2.1-10.7-3.1c1.4-0.4,2.5-0.3,3.9-0.3
		c1.5,0,3.2-0.5,4.7-0.7c3.2-0.6,6.5-1.2,9.6-2.2c0.4-0.1,0.7-0.2,1-0.4c-4-0.2-8.1-0.7-12-1.7c3.2-0.6,6.4-1,9.6-1.4
		c0.8-0.1,1.6-0.2,2.2-0.7c-1.1-0.1-2.1-0.1-3.2-0.2c-1.3-0.1-2.5-0.2-3.8-0.2c-1.6,0-3.2,0-4.8,0.1c1.9-0.7,3.9-1,5.7-1.8
		c1-0.4,2-0.9,2.9-1.4c0.6-0.4,1.7-1.5,2.3-1.6c-3.1,0.7-6.2,1.4-9.4,1.2c2.4-1,4.7-2.6,7.1-3.9c-3.8,0.6-6.8,1.4-10.6,2
		c-0.7,0.1-2.1,0.4-2.7,0.7c-1,0.4-2.1,0.8-3.2,0.9c2-1.4,4-2.9,5.8-4.5c0.9-0.8,1.8-1.6,2.7-2.5c0.7-0.7,2.3-2.6,2.3-2.6
		s-6.4,3.2-9.6,4.8c2-2.5,3.8-4.8,5.2-7.7c0.4-0.9,0.9-1.9,0.8-2.8c-4.2,5.9-9.6,11-15.8,14.7c-0.7,0.4-1.5,0.9-2.3,1
		c5.2-4.1,9.9-8.9,14.1-14.1c0.5-0.6,1-1.3,1.3-2c-2.4,2-5,4.1-8.1,4.8c1.2-1.1,2.3-2.4,3.3-3.7c0.5-0.6,1-1.3,1.3-2
		c0.3-0.6,0.8-2.1,0.8-2.1s-1.3,1.3-2.1,1.7c1.1-2.1,1.7-4.4,1.7-6.7c-2.2,3.7-4.6,6.7-7.5,9.7c2.5-5,3.1-10.9,3.1-16.5
		c-1.2,3.4-2.9,6.6-5.2,9.5c0.5-1.8,0.9-3.5,0.8-5.3c0-0.9-0.3-4.3-0.9-6.2c-0.4,1.6-0.7,3.7-1.6,5.1c0-1.3,0.1-2.6,0.2-3.9
		c0.1-1.1,0.2-3.5-0.7-4.2c-0.6,2.3-0.6,5.1-1.4,7.3c0-0.8-0.1-1.6-0.1-2.4c-0.1-1-0.4-2.1-0.6-3.1c-0.2,1.2-0.5,2.3-0.7,3.5
		c-0.2,0.8-0.3,1.5-0.7,2.2c0-2.3-0.6-5.6-1-7c-0.2-0.6-0.8-1.7-0.8-1.7s-0.1,1.8-0.1,1.9c-0.1,3.5-0.2,6.5-0.9,9.9
		c-0.2-3.1-0.7-6.2-1.3-9.3c0-0.2-0.2-0.6-0.5-0.8c-0.1,3.4-0.5,7.3-1.2,10.7c-0.1-3.6-0.2-7.2-2.2-10.2c0.2,2.6,0.1,5.2-0.2,7.8
		c-0.2-1.5-0.7-3.1-1.2-4.6c-0.3-0.9-0.6-1.8-0.9-2.6c-0.2-0.6-0.9-2.2-0.9-2.2s0.7,12.9,0.2,19.3c-0.3-4.6-1-9.1-2.4-13.4
		c-0.2-0.8-0.5-1.6-1.1-2.2c0.6,6.2,0.6,12.3,0.2,18.5c0-1-0.8-2.3-1.2-3.2c-0.5-1.2-1-2.5-2.1-3.3c1,6.6,1.2,13.4,0.5,20
		c0-0.4-0.2-0.8-0.4-1.1c-0.4,2.3-0.6,4.6-0.6,7c-4.1-1.3-7.7-1.7-10.8,0.4c-2.3,1.6-3.1,3-3.3,4.1c-0.2,1.1,1,1.9,1.7,2.5
		c1.7,1.5,3.5,2.9,4.5,5c0.7,1.4,0.9,3,1,4.6c0.3,3,0.3,6.1,0.1,9.2c-0.1,1.2-0.2,2.3-0.6,3.4c-0.3,0.7-0.6,1.3-0.6,2
		c0,1,1.2,1.6,2,2c1,0.7,2.7,1.6,3.9,2c2,0.6,3.9,0.6,6,0.3c1.6-0.2,3-1.2,4-2.5c0.2-0.3,0.5-0.7,0.8-0.8c1-0.5,2,0.8,2.7,1.3
		c1,0.8,1.9,1.6,2.9,2.5c2,1.6,3.9,3.3,5.7,5.1c3,3.1,5.6,7,6.2,11.3c0.9-2.6,1-5.4,0.5-8c0.7,0.8,1.3,1.8,1.7,2.8
		c0.7,2.2,0.9,3.3,0.9,3.3s0.2-0.4,0.3-0.6c0.6-2.1,0.6-4.3,0.6-6.4c1.4,1.9,3.5,3.4,5.1,5.3c-0.2-0.7-0.5-1.3-0.8-2
		c-1-2.1-2-4.2-3.5-6c1.3,0.9,2.5,2,3.7,3c1,0.8,3.5,3.7,3.5,3.7s-2.1-4.8-3.8-6.8c-0.8-1-1.8-2-2.3-3.1c2.5,1.3,4.8,2.9,6.6,4.9
		c1,1,1.9,2.1,2.7,3.3c0.6,0.8,2.2,3.5,2.2,3.5s-2.2-9.5-5.6-12.8c1.1,0.9,2.3,1.7,3.5,2.6c0.4,0.3,1.3,1.1,1.3,1.1
		c-0.8-3.1-1.2-5.2-2.9-8c1.6,0.9,1.7,1.1,3,2.3c0.2,0.2,0.4,0.3,0.7,0.5c-0.5-2.3-2.1-4.2-3.8-5.8c-0.7-0.7-2.1-2.2-2.1-2.3
		c2.1,1,4.2,2.1,5.9,3.8c-0.8-1.6-2.2-2.8-3.3-4.2c-0.6-0.7-0.9-1.1-1.6-1.7c1.8,0.7,6.3,2.7,6.3,2.7s-4.1-4.4-6.7-5.9
		c4.3,0.9,7.9,3.8,11.3,6.7c-1.1-3.2-3.7-5.6-6.3-7.8c-2.4-2-4.8-3.9-7.4-5.6c2.4-0.2,5.1,0.7,7.3,1.4c2.5,0.8,5,1.8,7.4,3
		c-1.2-2-3.3-3.2-5.4-4.2c-1.8-0.9-3.6-1.8-5.4-2.6C857.7,793,861.7,794.2,865.1,795z M850.2,793.5c-3.9,1.3-7.9,2.3-11.9,2
		c-0.6-0.1-1.3-0.1-1.9-0.2c-3-0.4-5.9-0.8-8.9-1.2c-0.5-0.1-1.1-0.2-1.3-0.6c-0.3-0.4-0.2-1,0.2-1.4s0.8-0.6,1.3-0.7
		c1.9-0.5,3.8-0.1,5.7,0.1C839,792,844.9,791.5,850.2,793.5z M842.1,764.9c-1,2.4-2.9,4.3-4.7,6.1c-0.8,0.8-1.7,1.7-2.6,2.5
		c-2.9,2.8-5.9,5.6-9.4,7.7c-1,0.6-2,1.2-3.2,1.4c0.1-1,0.9-1.7,1.6-2.4c2.9-2.6,5.7-5.2,8.6-7.8c0.7-0.7,1.5-1.4,2.2-2
		C837,768.4,839.4,766.3,842.1,764.9z M835.4,761.7c0.1,3.1-1.2,6.1-3,8.6s-4.1,4.7-6.3,6.8c-0.6,0.5-1.1,1-1.7,1.6
		c-1.7,1.6-3.5,3.2-5.6,4.2c0.9-2.4,2.8-4.2,4.4-6.1c2-2.4,3.6-5.1,5.7-7.4C831.3,766.8,834.1,764.7,835.4,761.7z M818,778.6
		c0.5-6,1-12,1.5-17.9c1.7,2.9,2,6.4,2.2,9.7c0.5-2.1,1.1-4.2,1.2-4.8c0.5-2.5,1.3-4.6,1.5-5.5c0.4-1.7,1.2-4.2,1.7-5.5
		c0.3-0.7,1.7-3.5,1.8-4.5c1.6,5.7,0.9,9.3-0.9,15c1.7-3.1,3.3-6.1,5-9.2c0.7-1.3,1.4-2.6,1.8-4c0.5,2.9-0.2,5.7-1.2,8.4
		c-1.2,3.2-2.4,6.4-4.2,9.2c-0.7,1.1-1.6,2.4-2.4,3.5c-2.4,3-4.8,5.7-8,7.7C817.9,779.9,817.9,779.2,818,778.6z M812.4,811.9
		c-0.1,0.2-0.2,0.5-0.4,0.6c0-4.5-0.4-9-1.1-13.4c-0.1-0.7-0.3-1.5-0.4-2.2c-0.2-0.8-0.5-1.7-0.8-2.5c-0.7-1.8-1.4-3.6-2.3-5.3
		c-0.5-0.8-1-1.6-1.7-2.4c-0.5-0.6-1.2-0.9-1.2-1.7c1-0.2,1.9,0.8,2.4,1.4c1.9,2.3,3.6,4.7,4.7,7.5c1.2,3,1.3,6.3,1.5,9.5
		c0,1.1,0.1,2.2,0.1,3.4C813,808.6,813,810.3,812.4,811.9z M814.8,812.9c-0.2-4.2,0.1-8.5-0.5-12.6c-0.9-6.4-3.8-12.4-8.1-17.2
		c0.6,0.1,1.1,0.4,1.6,0.7c0.6,0.4,1.2,1,1.7,1.6c3.1,3.8,5.5,8.2,6.5,13C816.9,803.3,816.6,808.4,814.8,812.9z M817.4,813.3
		c1.3-5.5,1.1-11.4-0.4-16.8c-1.6-5.4-4.6-10.4-8.7-14.4c2.5,0.7,4.3,2.9,6,4.9c1.4,1.7,2.8,3.5,3.8,5.5
		C821.5,799,821.2,807.2,817.4,813.3z M823.4,804.5c-0.3,2.2-0.8,4.3-2,6.1c0.7-4.3,0.3-8.7-0.3-12.9c-0.2-1.6-0.5-3.1-1-4.6
		c-0.4-1-0.9-1.9-1.4-2.8c-0.9-1.6-1.9-3.1-3.1-4.5c-1-1.1-2.2-2.1-3-3.3c0.2,0,0.3,0.1,0.5,0.2c4.8,2,8.1,6.6,9.6,11.5
		C823.7,797.5,823.9,801,823.4,804.5z M822.7,786.8c0.3-0.8,1-1.4,1.7-1.9c5.2-3.8,11.3-6.1,17.5-7.5c-2.8,2.3-6,4.1-9.2,5.8
		c-0.6,0.3-1.2,0.6-1.8,1c-1.8,1-3.7,2-5.7,2.6C824.4,787,823.5,787.1,822.7,786.8z M825,790.6c-0.1,0-0.1-0.1-0.1-0.2
		c0-0.7,0.3-1.3,0.7-1.9s1-0.9,1.5-1.3c5.3-3.8,11.6-6.3,18.1-7.1c-0.4,1.4-1.5,2.6-2.7,3.6c-2.6,2.2-5.8,3.6-9,5.1
		c-1.6,0.7-3.2,1.4-4.9,1.8c-1.2,0.2-2.4,0.3-3.5,0.2C825,790.6,825,790.6,825,790.6z M844.3,820.1c-0.7-0.3-1.4-0.6-2.1-0.9
		c-0.7-0.3-1.4-0.7-2.1-1.1c-2.6-1.5-5.1-3.1-7.6-4.8c1.7,1.9,3.2,4,4.4,6.3c0.5,0.9,1,1.8,1.1,2.9c-1.6-2.5-4.1-4.3-6.4-6.2
		c-2.3-2-4.4-4.2-6.3-6.6c2.8-0.5,5.7-0.3,8.3,0.7c0.7,0.2,1.3,0.5,1.9,0.9c4.4,2.2,8.2,5.7,10.7,10
		C845.7,820.9,845,820.5,844.3,820.1z M829.2,806.3c-0.6-0.4-1.2-0.8-1.7-1.3c-0.5-0.5-0.9-1.2-0.9-1.9c1-0.5,2.1-0.5,3.2-0.3
		c4,0.6,7.5,3,10.7,5.3c3.4,2.4,6.8,5,9.2,8.3C843,812.8,835.6,810.4,829.2,806.3z M854.2,815.2c-1.8-1.7-3.7-3.1-5.6-4.6
		c-3.2-2.4-6.4-4.8-10.1-6.5c-3.9-1.8-8.1-2.7-11.7-5.1c-0.5-0.3-1-0.9-0.8-1.4c0.1-0.3,0.5-0.5,0.8-0.7c1.6-0.6,3.3-0.7,5-0.5
		c5,0.6,9.7,3.2,13.5,6.6C848.9,806.4,851.8,810.7,854.2,815.2z"/>
	<path d="M854.3,917.8c-1.6-3-4.4-5.2-7.4-6.7c-3-1.5-6.4-2.3-9.7-2.9c-8.8-1.7-18-2.2-27-2.7c-9.2-0.5-18.4-0.5-27.5-0.4
		c-15.2,0.1-30.3,0.1-45.5,0.2c0-1.5,2.3-15.9,2.7-19.7c0.7-5.9,2.2-12.4,3.4-18.3c1.8-8.9,4.6-16.3,8.4-23
		c1.9-3.4,4.9-8.6,8.1-10.9c7.1-5,14.6-9.3,22.9-11.5c12.8-3.5,28.8-6.5,28.8-6.5s-2.4-0.7-3.1-1.3c-1-0.9-1.4-1.9-1.4-1.9
		s2.4-3.4,1.5-11.4c-0.2-2-0.5-7.5-3.3-10.4c-1.3-1.3-4.3-4-4.3-4s-2.7-0.8-5.9-0.7c-1,0-4.2,0.9-5.2,1.3c-0.8,0.3-1.6,0.7-2.2,1.3
		c-0.6,0.6-1,1.5-0.9,2.3c-2.3-1.6-4.7-2.3-7.5-2.3c-1.7-0.1-3.4,0-4.9,0.8c-1.5,0.8-2.7,2.4-2.5,4c-4.1-1.4-8.9-0.1-12.4,2.3
		c-1.8,1.2-3.4,3.3-2.9,5.4c-3.8-1-8-1.1-11.4,0.7c-2.5,1.3-7.7,7-4.8,9.9c-2.6,0.4-5.1,0.7-7.2,2.5c-2,1.7-3.1,4.4-2.4,6.9
		c-2.8,0.2-5.1,1.4-6.7,3.7c-1.5,2.1-2.4,4.7-2.6,7.3c0,0.4,0,0.9-0.2,1.3c-0.4,1.1-1.7,1.8-2.5,2.7c-1,1-1.8,2.3-2.4,3.5
		c-1.2,2.4-1.7,5.1-1.4,7.8c0,0.2,0.1,0.5,0,0.7c-0.1,0.2-0.2,0.3-0.3,0.5c-2,2.2-3.7,4.4-4.9,7.1c-0.7,1.5-1.3,3.1-1.4,4.8
		c-0.1,1.7,0.5,3.4,1.9,4.4c-1.7,1.3-3.3,2.7-4.4,4.5s-1.7,4-1.1,6.1c0.3,1.1,0.9,2.1,1.3,3.2c0.8,2-0.1,3.1-1.1,4.7
		c-1.3,1.9-1.8,4.4-1.7,6.6c0.1,1.2,0.4,2.4,0.8,3.6c0.5,1.6,1.2,3.2,2.1,4.7c-1.1,1.3-2.1,2.7-2.8,4.3c-0.7,1.6-0.8,3.4-0.1,5
		c-2.4,0.1-4.7,0.3-7.1,0.3c-5,0.2-9.9,0-14.8,0c-20.8,0.1-41.7,0.3-62.5,0.5c-10.4,0.1-39.4-0.5-39.5-0.5c0.2,0-4.9-11.9-23.2-11.2
		c-14.3,0.5-25.4,8-25.5,26.4c-0.1,14.7,7.5,26.4,26.4,26.8c16.6,0.4,21-7.3,21-7.3s33,0.9,53.6,1.3c20.8,0.4,41.6,0.6,62.4,0.7
		c-1.3,1.5-2.9,3.1-3.5,5c-0.2,0.5-0.2,5.8,0.1,5.7c-2.2,1.3-4.3,3.1-5.5,5.4s-1.3,5.3,0.2,7.4c-2.5,1.5-4.9,3.2-6.5,5.6
		c-1.6,2.4-2.3,5.5-1.3,8.2c-3,1.1-6.4,2.6-8.3,5.3c-1.6,2.3-2.2,5.4-1.5,8.1c-1.3,0.2-2.6,0.1-3.9,0.5c-0.8,0.2-1.5,0.5-2.1,1
		c-2.4,1.7-2.7,5-2.6,7.9c-2.8-0.5-5.7,0.4-7.8,2.2c-2.1,1.8-3.4,4.6-3.4,7.4c-2.1,0.1-4.7,0.7-6.5,1.7c-2,1.2-3.5,3.3-3.3,5.6
		c-2.3-0.2-4.8-0.1-6.9,1c-2.1,1-3.8,3.1-3.9,5.5c-2.2-0.7-5.3-0.8-7.2,0.8c-1.5,1.2-2,3.3-2.1,5.3c-2.1-0.9-4.5-1.3-6.6-0.5
		c-2.1,0.8-3.7,3.1-3.3,5.3c-0.9-0.8-2.6-1.1-3.8-1.2c-2.7-0.3-5.8-0.1-7.8,1.8c-1.3,1.2-2,2.8-2.5,4.5c-3.7-2.2-8.2-1.4-11.6,1
		c-1,0.7-2,1.7-2.1,2.9c-2.2-1.4-5-2.1-7.5-1.7c-2.6,0.5-5,2.3-5.9,4.8c-1.6-2.2-5.1-3-7.7-2.9c-2.8,0.1-5.6,1.4-7.4,3.5
		c-1.9-1.9-4.6-3.1-7.2-3c-2.7,0.1-5.3,1.6-6.5,4c-1.7-1.5-3.3-2.4-5.6-2.6c-0.5,0-1-0.1-1.5,0c-0.8,0.1-1.6,0.5-2.3,0.9
		c-1.3,0.6-2.6,1.3-3.3,2.6c-1.1-0.9-2.7-1.6-4.1-1.9c-0.5-0.1-1.1-0.2-1.7-0.2c-1.2,0-2.3,0.5-3.3,1c-0.9,0.4-1.9,0.9-2.4,1.7
		c-1-1.9-2-3.5-3.9-4.7c-1.2-0.7-2.6-1-3.8-0.5c-0.3,0.1-0.7,0.3-1,0.4c-0.3,0.1-0.6,0.1-0.8,0.1c-1.1,0.2-2,1.2-3.1,1.7
		c-0.9-2.3-2.9-4.1-5.2-4.8s-5-0.4-7,1c-1.7-2.1-3.1-3.5-5.9-3.9c-2.4-0.3-5,0.4-6.8,2c-1.4-2.3-3.3-4.1-5.8-5.2
		c-2.1-0.9-4.7-0.9-6.7,0.1c-0.3,0.2-0.6,0.3-0.9,0.2c-0.3-0.1-0.4-0.3-0.6-0.5c-1.7-2-3.7-3.7-6-4.7c-2.4-1-5.2-1.2-7.5-0.2
		c-1-2.2-2.8-4.4-4.7-5.8c-1.9-1.4-4.4-2.3-6.7-1.7c-1.1-2.5-3.1-4.6-5.6-5.7c-2.5-1.1-5.4-1.3-8-0.5c-0.6-1.9-1.8-3.9-3.2-5.3
		c-1.6-1.5-4.1-1.9-6.1-0.9c-0.8-1.9-1.9-3.7-3.5-5.1s-3.8-2.1-5.8-1.6c-0.5,0.1-1.1,0.3-1.5-0.1c-0.1-0.1-0.2-0.4-0.3-0.6
		c-0.4-1.2-0.8-2.3-1.3-3.5c-0.7-1.5-1.6-2.9-2.9-3.8s-3.3-1.1-4.5-0.1c-0.7-2.4-1.6-4.9-3.4-6.7s-4.4-2.9-6.8-2.3
		c-0.4-2.5-1.3-4.9-2.6-7c-0.5-0.9-0.9-1.5-1.8-2c-0.3-0.2-3.2-0.8-3.1-0.6c-0.4-2-1-4.1-2.1-5.8s-2.9-3.1-5-3.2
		c-0.1-1.8-0.5-3.6-1-5.3c-0.5-1.6-1.7-3.5-3.1-4.5c-1.3-0.9-2.9-1.5-4.2-1.3c0-4.9-2.2-9.9-6.3-12.8c-0.7-0.5-1.6-1-2.4-0.7
		c-0.4-3.9-1.5-7.6-3.1-11.1c-0.2-0.5-0.6-1-1.1-0.8c-0.1-0.8-0.3-1.8-1.1-2.1c1.4,0,2.8,0,4.2,0c2.6,0.1,5.1,0.2,7.7,0.2
		c3,0.1,5.9,0.2,8.9,0.1c2.3-0.1,5.2,0.2,7.3-0.6c3.7-1.4,4.7-6.5,5-10c0.1-2.1-0.1-4.2-0.6-6.3c-0.2-0.9-1.4-5-2.4-5.2
		c-1.8-0.4-3.9,0.1-5.7,0.2c-2,0.1-4.1,0.3-6.1,0.4c-4.5,0.1-8.9,0.3-13.4,0.4c-3.5,0.1-7.1,0-10.6,0.2c-1.1-7.6-0.6-15.9,0.3-23.4
		c0.9-7.9,2.6-15.7,4.7-23.3c2-7.6,4-13.6,7.1-20.9c0.7-1.6,1.8-4.5,2.6-6c-5.8-0.1-17.3-0.1-17.3-0.1s-3.2,2-3.9,2.5
		c-2.1,1.3-5.9,3.5-8.9,4.9c-1.4,0.7-2.8,1.1-4.2,1.5c-0.9,0.2-2.1,0.2-2.7-0.6c-0.2-0.4-0.1-1.4,0.1-1.8c0.9-2.5,1.9-3.9,4-6.5
		c-2,0-4,0-6.4,0c-0.1-0.1-1.1,8.2-2.1,12.5c-1.4,1.1-2.6,2.4-3.6,3.8c-1.3,1.8-2.2,3.9-2.5,6.1c-0.3,2.2,0.2,4.5,1.6,6.3
		c-1.7,1.9-3.3,4.1-4.2,6.5c-0.9,2.4-1.2,5.2-0.4,7.6c0.3,1,0.9,1.9,1,2.9c0.4,2-1.1,4.6-1.2,6.7c-0.1,2.4,0.6,4.9,1.9,7
		c0.2,0.3,0.4,0.6,0.4,0.9c0,0.2-0.1,0.5-0.2,0.7c-1.2,2.9-1.1,6.3,0.2,9.2c0.1,0.3,0.3,0.6,0.3,0.9c0,0.3-0.2,0.6-0.3,0.9
		c-0.6,1.4-0.7,3-0.3,4.4c-2.2,0.5-4.5,0.1-6.7,0.2c-2.5,0.1-5,0.2-7.5,0.3c-5,0.2-9.9,0.4-14.9,0.6c-10.1,0.4-20.1,0.7-30.2,0.9
		c-4.7,0.1-9.5,0.6-14.3,0.9c-5.2,0.2-10.4,0.4-15.6,0.7c-10.4,0.4-20.8,0.8-31.1,1c-0.8,0-1.7,0-2.5,0c-10.4,0.2-20.8,0.4-31.1,0.7
		c-9.9,0.3-19.7,1.3-29.6,1.7c-20.4,1-40.8,1.1-61.2,2.4c-20.3,1.3-40.7,1.3-61,3.1c-0.8,0.1-1.9,0.6-1.6,1.4
		c3.5,0.6,6.7,0,10.2,0.1c4.1,0.2,8.1,0.3,12.2,0.5c8.2,0.3,16.4,0.6,24.6,0.9c9.9,0.4,19.9,0.7,29.8,1.1c20.4,0.8,40.8,1,61.2,1.1
		c6.1,0,12.1,0,18.2,0c7.4,0,14.9-0.1,22.3-0.1c20.8,0.1,41.7,0.3,62.5,0.4c10.4,0.1,20.8,0.1,31.2,0.2c9.7,0.1,19.4-0.8,29.1-0.2
		c1.6,0.1,3.1,0.2,4.7,0.3c0.6,0,4.8-0.1,5.1,0.4c1.9,3.4,3.9,6.6,5.7,10.1c1.8,3.7,3.6,7.4,5.6,11c3.6,6.6,8,12.9,12.1,19.3
		c5.1,8,9.1,17,15.2,24.2c11.8,14,28.1,29.3,42.7,41.3c12.4,10.2,49.7,26.7,64.7,30.7c16.9,4.5,28.6,7.3,46,9.1
		c9.9,1,26.1,2.9,36,2.9c9.6,0,40-2.9,55.7-6.7c12.7-3.1,41.5-14.3,52.7-21c6.9-4.1,15.3-9.8,21.7-14.7
		c13.8-10.5,19.9-18.7,30.7-32.3c7.3-9.2,15.9-23.8,21.6-34.1c4.1-7.5,9.7-22.4,11.2-27.3c3.7,0.3,17.8-0.5,21.8-0.5
		c2.9,0,5.8,0,8.8-0.1c1.4,0,2.9-0.1,4.3-0.1c5.1-0.1,10.2-0.4,15.4-0.7c4.6-0.3,9.1-0.1,13.7-0.3c10.2-0.5,20.5-1,30.7-1.7
		c7.9-0.5,15.3-1.5,21.7-6.5C855,932.6,858.3,925,854.3,917.8z M316.2,856.4c1.8-1.9,6.9-5.2,9.6-6.9c3-1.9,9.7-4.7,12.6-4.7
		c1.7,0,3.2,1,3.6,4.6c0.2,1.7-2.5,4.5-4.7,5.5c-3.9,1.7-8.2,3.5-9.9,4.4c-1.5,0.8-3.9,2.3-6.2,3.8c-2.3,1.5-4.2,2.9-6.1,2.7
		c-1.6-0.2-1.9-1.4-1.9-2.3C313.1,860.9,314.4,858.4,316.2,856.4z M309.2,874.7c1.1-1.6,2.6-2.9,4.2-4.2c1.1-0.9,9.7-5.3,12.8-6.7
		c3.2-1.4,5.5-2.4,9-2.6c1.2-0.1,3.6,0.8,3.8,1.9c0.6,2.8,0,4.8-1.1,5.9c-1.7,1.6-4.6,2.7-6.8,3.7c-6.7,3.1-13,5.4-19.7,8.5
		c-1,0.5-2.3,0.9-3,0.1c-0.2-0.3-0.4-0.6-0.5-1C307.5,878.4,308.1,876.4,309.2,874.7z M308,893.9c-0.2-0.3-0.2-0.6-0.2-0.9
		c0-0.9,0-1.9,0.3-2.8c0.4-1.1,1.1-1.9,1.9-2.7c5.7-5.9,10.4-8.1,15.6-9.4c2.1-0.5,7-0.6,7.8-0.1c1,0.6,0.8,3,0.6,4.1
		c-0.2,1.1-3.6,3.4-6,4.2c-1,0.4-2,0.7-3.1,1c-3.9,1.4-7.4,3.7-11,5.8c-1.7,1-3.6,1.9-5.4,1.2C308.3,894.2,308.1,894.1,308,893.9z
		 M329.2,898.8c-0.9,0.4-4.9,1.6-8.7,3.8c-2.4,1.4-4.7,3-7,4.8c-1.2,0.9-2.5,2-4.1,2.2c-0.9-1.5-0.8-3.5-0.1-5.1
		c0.7-1.6,1.8-3,3.1-4.3c4.5-4.5,11.8-8.6,13-8.9c2.7-0.6,6.7,0.2,7.3,1.9C333.8,896,331.3,897.8,329.2,898.8z M332.9,908.5
		c-0.1,2.3-1.4,3.3-2.5,4.3c-0.4,0.4-3,1.4-3,1.4s-11.3,0.9-16.3,1.2c1.5-3.7,5-7.1,8.5-9c3.5-1.9,5.7-3,9.7-2.5
		C331.6,904.1,333,906.7,332.9,908.5z M302.8,929.3c-6.8-0.1-13.6-0.5-20.3-0.2c-12.4,0.4-24.9-0.1-37.3-0.1c-3.9,0-7.8-0.1-11.8,0
		c-2,0-4,0-6,0.1c-1.6,0-3.1-0.1-4.7-0.1c-6.9,0.1-13.7,0.1-20.6,0.1c-3.4,0-6.8,0.2-10.1,0.3c-1.7,0.1-3.4,0.2-5.2,0.2
		c-1.2,0-2.2-0.3-3.4-0.3c-6.9-0.1-13.9,0.4-20.8,0.6c-13.9,0.3-27.7,0.4-41.6,0.4c-5.6,0-11.2-0.1-16.7-0.1
		c-5.5-0.1-10.9,0.1-16.3,0.1c-6.4,0-12.9,0-19.3,0c-6.4,0-12.7-0.5-19.1-1c0.3-0.1,0.6-0.3,0.8-0.3c1.5-0.5,3-0.3,4.5-0.4
		c1.2-0.1,2.4-0.4,3.6-0.5c3.4-0.2,6.9-0.2,10.3-0.2c6.8,0,13.6,0,20.4-0.8c0.9-0.1,1.8-0.2,2.7-0.2c0.8,0,1.7,0.2,2.5,0.2
		c1.3,0.1,2.6,0,3.9-0.1c6.3-0.4,12.7-0.7,19-0.9c3.4-0.1,6.8-0.2,10.3-0.2c20.5-0.4,40.8-1,61.3-1.7c10.4-0.3,20.7-0.7,31.1-1.1
		c3.7-0.1,7.4-0.2,11-0.8c3.7-0.6,7.8-0.1,11.6-0.1c8.2,0,16.4-0.2,24.6-0.5c7.4-0.2,14.7-1.6,22.1-1.6c4.4,0,8.8,0.3,13.2,0.1
		c4.1-0.2,8.1-0.8,12.1-1.2c10-1.1,20.1-1.2,30.1-1.4c5.1-0.1,10.1-0.3,15.2-0.6c2.5-0.2,5-0.4,7.6-0.7c1.7-0.2,5.3-1.4,6.8-0.6
		c1.4,0.7,2.3,3.5,2.7,4.9c0.5,1.8,0.6,3.8,0,5.5c-1.4,4.2-8.1,4-11.7,3.9c-13.9-0.2-27.7-0.3-41.6-0.5
		C316.6,929.6,309.7,929.5,302.8,929.3z M322.7,942.4c-1.6,0.4-2.8-1-3.1-1.8c-0.5-1.5,1-5.4,1.5-6.6c0-0.1,0.1-0.2,0.2-0.3
		c0.1-0.1,0.3-0.1,0.4-0.1c3.4-0.2,6.8-0.2,10.2,0c-1.4,2.1-2.8,3.4-4.5,5.3C325.5,941,324.1,942.1,322.7,942.4z M327.3,953
		c-1.8-1.7-1.5-6-0.1-8.6c1.4-2.6,3.3-4.9,5.4-7c1-1,2-1.9,3.3-2.5c0.7-0.3,9.5-1.6,9.4-0.8c-0.2,1.7-0.8,3.4-1.8,4.9
		c-2.8,4.4-5.7,7.3-9.5,11.2C332.2,952.1,330,955.5,327.3,953z M335.4,965.7c-2-2-1.4-6.7,0.7-10.9c0.7-1.3,1.5-2.5,2.3-3.7
		c1.9-2.7,3.8-5.5,6.4-7.5c0.5-0.4,1-0.7,1.6-0.8c1.1-0.1,2.1,0.8,2.5,1.8c0.4,0.8,0.5,1.7,0.5,2.5c-0.1,1.6-1.6,3.1-2.4,4.5
		c-2.3,4.2-3.4,5.6-5.1,9.1C341.2,962.6,338.3,968.6,335.4,965.7z M352,978.1c-1.5,1.6-4,1.4-4.6,1.1c-2.1-1.1-1.6-5-1-10.3
		c0.3-2.4,0.7-4.5,1.4-6.8c0.8-2.5,2.2-7.9,6.2-7.1c1.8,0.3,2.5,2.8,2.6,3.7c0.9,5.2-0.5,7.7-1.5,11.1
		C354.6,971.8,354.1,975.9,352,978.1z M361.1,992.9c-0.1,0.6-1.2,2.5-2.3,2.3c-1.7-0.3-2-4.8-2.1-6.5c-0.1-3-2-25,5.7-22.3
		c1.8,0.6,2.3,2.9,2.3,4.7c0,3.7-0.7,7.4-1.5,11C362.1,987.3,361.7,989.7,361.1,992.9z M373,984.3c-0.8,7.1-1.6,14.3-2.4,21.4
		c-0.1,0.9-0.3,2-1.2,2.3c-0.6,0.2-1.3,0-1.8-0.4c-0.5-0.4-0.8-1-1-1.6c-2.2-5.3-2.2-11.3-2-17.1c0.1-2,0.1-4,0.8-5.9
		c0.6-1.9,1.9-3.7,3.7-4.5c0.5-0.2,1-0.3,1.5-0.3c1.4,0.1,2.3,1.6,2.5,3C373.2,982.2,373.1,983.3,373,984.3z M380.5,1016
		c-0.1,0.8-0.3,1.7-1.1,2c-0.6,0.2-1.2-0.1-1.6-0.6c-0.4-0.5-0.5-1.1-0.7-1.7c-2.2-9-3.8-18.5-1.3-27.5c0.2-0.7,0.5-1.5,1-1.9
		c0.7-0.5,1.6-0.5,2.4-0.1s1.3,1.1,1.6,1.8c0.7,1.5,0.8,3.2,0.8,4.9C381.9,1000.7,381.5,1008.4,380.5,1016z M391.7,1023
		c-0.1,2.5-0.1,5-0.8,7.3c-1.2-1-1.9-2.5-2.4-4c-0.6-1.6-1.3-3.3-1.7-5c-0.5-1.8-0.8-3.7-1-5.5c-0.9-6.3-1.7-12.8-0.5-19
		c0.2-0.9,0.5-1.9,1.2-2.3c1.3-0.7,2.8,0.4,3.5,1.6c0.7,1.3,1,2.9,1.1,4.3C392,1007.9,391.8,1015.4,391.7,1023z M402.6,1035.7
		c0,0.6-0.1,1.5-0.8,1.6c-1.9-3.6-3.7-7.2-4.8-11.1c-0.6-2.1-0.9-4.3-1.2-6.5c-0.6-3.9-1.1-7.8-0.8-11.7c0.1-0.9,0.2-1.8,0.9-2.4
		c0.8-0.6,2-0.3,2.9,0.3c2.5,1.8,3,5.3,3.2,8.3C402.5,1021.4,402.7,1028.5,402.6,1035.7z M411.5,1042c-0.1,0.7-0.5,1.5-1.1,1.3
		c-0.2-0.1-0.3-0.3-0.5-0.5c-0.5-0.9-0.9-1.9-1.3-2.9c-1.4-3.6-2.6-7.4-3.3-11.2c-0.8-3.8,0-8.2,0.7-12c0.3-1.4,0.7-4.8,2.7-3.9
		c0.4,0.2,0.8,0.5,1.1,0.8c0.6,0.6,1.2,1.4,1.5,2.2c0.4,1,0.4,2,0.4,3.1c0,4.8,0.1,9.5,0.1,14.3C411.8,1036.1,411.9,1039,411.5,1042
		z M425.9,1048.2c-0.3,1-1,1.9-2.1,2.1c-0.9,0.2-1.8-0.3-2.4-1c-0.6-0.7-1-1.5-1.3-2.4c-2.5-6.4-3.8-13.3-3.9-20.3
		c0-1.8,0.1-3.8,1.1-5.4c0.4-0.7,1.2-1.4,2-1.3c0.9,0.1,1.5,0.9,1.9,1.7c1.1,2.3,1.7,4.8,2.1,7.3c1.1,5.4,2.1,10.7,2.7,16.2
		C426.1,1046.1,426.2,1047.2,425.9,1048.2z M435.7,1053.2c-0.5,0.6-1.4,0.6-2.1,0.3c-0.7-0.4-1.1-1.1-1.5-1.7
		c-3.6-6.4-4.9-14.2-4.7-21.4c0-1.1,0.1-5.1,1.4-5.7c0.3-0.2,0.7-0.1,1.2,0.2c2.2,1.5,3.4,4.1,3.9,6.7c0.6,2.6,0.5,5.3,0.7,7.9
		c0.3,4.1,1,8.1,1.3,12.2C436,1052.1,436,1052.7,435.7,1053.2z M446.7,1058.3c-3-3.5-4.9-7.8-6.2-12.2c-1-3.2-1.6-6.7-0.7-9.9
		c0.1-0.4,0.3-0.9,0.6-1.1c0.3-0.3,0.7-0.4,1.2-0.5c1.7-0.2,3.4,0.8,4.4,2.2c1,1.4,1.5,3.1,1.9,4.7c1.5,6.1,2.2,12.3,2.9,18.5
		C449.3,1060.7,447.7,1059.5,446.7,1058.3z M737.5,873.1c-0.3,0.5-0.9,0.8-1.4,1.2c-4.2,2.5-8.4,5-12.4,7.7c-2,1.4-4,2.8-5.9,4.3
		c-1.5,1.2-2.5,3.3-4.2,4.1c-1,0.5-2.2,0.6-3.1,0c-1.4-0.9-1.6-2.7-1.3-4.3c0.4-2.4,1.8-4.6,3.5-6.4c1.7-1.8,3.8-3.2,5.8-4.5
		c1.2-0.7,2.4-1.5,3.7-2.1c4.3-2.1,9.3-2.9,14.1-2.3c0.5,0.1,1,0.2,1.3,0.5C737.9,871.9,737.8,872.6,737.5,873.1z M734.7,901.3
		c-0.6,0.7-1.3,1.2-2,1.8c-0.6,0.5-1.2,1.2-1.7,1.8c-0.1,0.1-0.2,0.3-0.3,0.4c-0.2,0.1-0.4,0.1-0.7,0.1c-2.3,0-4.6,0-6.9-0.1
		c0.1-1.9,1.6-3.4,3-4.8c1.2-1.1,2.4-2.3,4-2.8c0.6-0.1,1.1-0.2,1.7-0.2c0.6,0,1.3-0.1,1.9,0.1c0.6,0.2,1.2,0.5,1.5,1.1
		C735.6,899.5,735.3,900.5,734.7,901.3z M791.6,789.1c0.3-0.3,0.7-0.5,1.2-0.6c1.8-0.4,3.8,0,5.4,1c1.6,1,2.9,2.4,4,4
		c2.4,3.6,3.5,7.9,3.2,12.2c-0.1,1.8-0.7,3.8-2.3,4.7c-0.4,0.2-1,0.4-1.4,0.1c-0.5-0.3-0.6-0.9-0.7-1.5c-0.8-4.3-2.8-8.4-5.8-11.7
		c-1.8-2-4.1-3.9-4.1-6.6C791.1,790.2,791.2,789.5,791.6,789.1z M779.8,791.4c1.8-0.1,3.4,0.8,4.8,1.9c5.8,4.3,9.3,11.5,9.1,18.7
		c0,0.3,0,0.6-0.2,0.8c-0.2,0.3-0.6,0.3-1,0.3c-2.3-0.2-3.8-2.5-5-4.6c-2.3-3.9-5.2-7.5-8.6-10.5c-1.1-0.9-2.4-2-2.5-3.4
		C776.3,793,778.1,791.5,779.8,791.4z M762.7,796.8c0.9-1,2.3-1.3,3.7-1.2c1.3,0.1,2.6,0.7,3.8,1.3c5.2,2.7,9.6,7,12.4,12.2
		c0.9,1.6,1.6,3.3,2,5.1c0.3,1.3,0.1,3-1.1,3.4c-1.2,0.5-2.4-0.7-3.2-1.8c-2.1-2.8-4.1-5.6-6.5-8.1c-2.4-2.5-5.2-4.6-8.5-5.7
		c-1-0.4-2.2-0.6-2.9-1.5C761.5,799.4,761.8,797.8,762.7,796.8z M744.8,806.6c0.2-0.8,0.8-1.4,1.5-1.8c2.8-1.8,7-1,9.9,0.2
		c6.6,2.8,14.2,5.4,16.8,12.9c0.2,0.5,0.2,1.2-0.3,1.3c-0.2,0-0.4-0.1-0.5-0.2c-2.9-1.6-5.3-4.1-8.1-5.8c-3.7-2.2-8.2-2.7-12.5-2.7
		c-1.5,0-3,0.1-4.4-0.4C745.6,809.6,744.5,808.1,744.8,806.6z M735.7,816.1c1.4-1.5,3.5-2.1,5.6-2.3c3.7-0.3,7.4,0.3,11,1
		c2.3,0.5,4.6,1,6.7,2.1c2.1,1,4,2.6,5.1,4.6c0.4,0.7,0.6,1.8-0.1,2.3c-0.3,0.2-0.6,0.2-1,0.3c-4.3,0.2-8.5-1.7-12.8-2.3
		c-3.3-0.5-6.7-0.2-10,0.3c-1.5,0.2-3.2,0.4-4.4-0.4C734.2,820.4,734.3,817.7,735.7,816.1z M724.7,829.6c0.9-1.7,2.5-2.9,4.2-3.6
		c1.7-0.7,3.6-1,5.5-1.1c4-0.3,8,0,11.9,0.7c1.6,0.3,3.2,0.7,4.7,1.1c0.9,0.3,1.8,0.6,2.4,1.2s0.8,1.8,0.2,2.5
		c-0.4,0.4-0.9,0.5-1.4,0.6c-1.8,0.3-3.6,0-5.4-0.1c-5.9-0.3-11.8,1.2-17.6,2.5c-0.9,0.2-1.8,0.4-2.8,0.3s-1.8-0.7-2.2-1.5
		C724,831.4,724.3,830.4,724.7,829.6z M718.5,840.1c1.9-2.7,6.2-3.8,9.4-4.2c1.4-0.2,2.8-0.1,4.1,0c4.5,0.4,11.2,0.5,12.9,5.8
		c-5.3,0.5-10.7,1.3-15.9,2.4c-1.5,0.3-3.1,0.7-4.5,1.3c-1.6,0.7-3.2,1.8-4.9,1.4c-1.3-0.4-2.1-1.7-2.3-3
		C717.3,842.5,717.8,841.2,718.5,840.1z M710.9,859.5c0.2-1,0.6-2,1-3c-0.1,0-0.1,0.1-0.2,0.1c0.2-0.3,0.5-0.5,0.7-0.8
		c0.6-0.3,1.1-0.7,1.6-1.2c-0.3,0-0.5,0-0.8,0.1c1,0,1.8-0.8,2.5-1.5c4.9-4.5,11.8-6.1,18.4-6.5c1.8-0.1,3.9,0,4.8,1.6
		c0.3,0.4,0.4,0.9,0.3,1.4c-0.2,0.8-1,1.2-1.7,1.6c-4.4,2.3-8.7,4.7-13.1,7c-2,1.1-4.1,2.2-6.3,2.9c-1.6,0.5-3.2,0.9-4.8,1
		c-0.8,0.1-1.7,0-2.2-0.5C710.6,861.1,710.7,860.2,710.9,859.5z M709,870.5c1.8-3.3,5.6-5.1,9.1-6.5c3.9-1.6,8-3.1,12.2-3.3
		c1.2-0.1,2.5,0,3.6,0.7s1.5,2.2,0.8,3.2c-0.4,0.6-1.2,0.8-1.9,1c-5,1.6-10,3.6-14.7,6c-2.3,1.1-4.5,2.4-7,2.8c-0.5,0.1-1,0.1-1.5,0
		c-0.7-0.3-1.2-1.1-1.2-1.8S708.7,871.2,709,870.5z M709.8,898.8c1.7-1.7,3.7-2.9,5.5-4.4c1.1-1,2.1-2.1,3.2-3.1
		c3.4-3.3,7.6-5.8,12-7.4c0.8-0.3,1.6-0.5,2.5-0.5s1.7,0.5,2,1.3c0.3,0.6,0.2,1.2,0,1.8c-0.5,1.4-1.7,2.4-2.9,3.3
		c-5.9,4.8-11,10.1-16,15.8c-0.1,0.2-0.3,0.3-0.5,0.4c-0.2,0.1-0.3,0.1-0.5,0.1c-2.8,0.1-5.5,0.1-8.3,0.2
		C706.7,903.7,707.6,900.6,709.8,898.8z M465.6,1066c-0.2,0.7-0.9,1.4-1.6,1.4c-0.4,0-0.7-0.2-1-0.5c-3.9-2.7-5.9-7.2-7.7-11.5
		c-1.4-3.4-2.7-6.9-2.5-10.6c0.1-1.1,0.3-2.2,0.9-3.1c0.6-0.9,1.6-1.6,2.7-1.6c1.4,0,2.5,1.2,3.3,2.3c1.7,2.6,2.3,5.6,3,8.6
		c0.9,4.2,1.9,8.5,2.8,12.7C465.7,1064.4,465.8,1065.2,465.6,1066z M478.5,1070c-0.4,0.8-1.4,1.1-2.2,1c-0.9-0.1-1.6-0.6-2.3-1.2
		c-2.7-2.5-3.8-6.3-4.7-9.9c-1.1-4.3-2.1-8.7-2.2-13.1c-0.1-1.7,0.2-3.7,1.8-4.3c1.1-0.5,2.5,0,3.3,0.9c0.8,0.9,1.2,2.1,1.6,3.3
		c0.9,3,1.6,6.1,2.3,9.2c0.9,4,1.7,8,2.6,11.9C478.6,1068.5,478.8,1069.3,478.5,1070z M495.3,1073.2c-0.2,0.8-0.8,1.5-1.6,1.4
		c-0.5-0.1-0.8-0.4-1.2-0.7c-4.9-4.4-8.8-10-11.3-16.2c-0.9-2.1-1.6-4.4-1.6-6.6c0-0.8,0-1.6,0.4-2.3c0.8-1.5,2.8-2.1,4.3-1.4
		c1.8,0.8,2.7,2.7,3.5,4.6c2.6,6.3,5.2,12.5,7.2,19C495.3,1071.6,495.5,1072.4,495.3,1073.2z M506.5,1075.2
		c-3.4-0.8-5.8-3.9-7.8-6.8c-3-4.2-5.9-8.6-7.1-13.6c-0.3-1.2-0.4-2.7,0.5-3.7c0.8-0.9,2.3-0.9,3.4-0.5c1.6,0.6,2.9,2,3.7,3.6
		c0.8,1.5,1.3,3.3,1.9,4.9c0.9,2.8,2.1,5.4,3.4,8C505.8,1069.7,507.3,1072.5,506.5,1075.2z M519,1077.2c-0.5,0.2-1,0-1.5-0.3
		c-6.4-3.6-11.4-9.6-13.6-16.6c-0.5-1.6-0.9-3.5-0.1-5c0.2-0.5,0.6-0.9,1-1.2c0.4-0.3,1-0.4,1.5-0.4c1.9,0,3.6,1.5,4.5,3.2
		c0.9,1.7,1.1,3.7,1.5,5.6c0.7,3.1,1.9,6.1,3.9,8.6c1.1,1.3,2.4,2.5,3.1,4.2C519.6,1075.9,519.7,1076.9,519,1077.2z M534.4,1077.1
		c-2.9-0.2-5.4-2-7.6-3.8c-4.6-3.9-8.8-8.8-10-14.7c-0.3-1.3-0.3-2.8,0.6-3.7c1.1-1.2,3.1-0.9,4.4,0.2s1.8,2.6,2.4,4.1
		c1.9,5,4.2,10.1,8,13.8C533.3,1074.1,534.8,1075.5,534.4,1077.1z M546.7,1076.1c-0.9,0.4-2-0.2-2.8-0.7
		c-5.8-3.9-10.3-9.6-12.8-16.2c-0.4-1-0.7-2.1-0.8-3.2c-0.1-0.6-0.1-1.3,0.3-1.9c0.2-0.3,0.5-0.5,0.9-0.7c2.3-1.1,5.2,0.4,6.6,2.5
		s2.1,4.7,3.2,7c1.5,3,4,5.5,5.7,8.5c0.4,0.8,0.8,1.6,0.9,2.5C547.9,1074.8,547.5,1075.8,546.7,1076.1z M563.4,1075.9
		c-1.2,0.3-2.4-0.6-3.4-1.4c-1.9-1.6-4-2.8-5.8-4.5c-2-1.9-3.9-3.9-5.7-6c-1.3-1.5-2.7-3-3.7-4.8s-1.7-3.8-1.5-5.8
		c0-0.4,0.1-0.8,0.4-1c0.2-0.2,0.5-0.1,0.8-0.1c2.4,0.1,4.9,0.6,6.5,2.2c0.7,0.7,1.1,1.5,1.6,2.3c1.6,2.6,3.4,5.1,5.5,7.4
		c2.1,2.3,3.4,4.3,4.7,7.1c0.3,0.7,0.7,1.4,0.8,2.2S563.8,1075.2,563.4,1075.9z M576.3,1073.4c-6.8-2.1-11.7-7.8-15.9-13.5
		c-0.8-1.2-1.7-2.4-2.1-3.7c-0.3-0.9-0.4-2,0.2-2.8c0.6-0.8,1.7-1,2.8-0.9l-0.7-0.2c2.9-0.2,5.6,1.6,7.4,3.8c1.6,1.9,2.2,3.8,3,6
		c0.6,1.6,1.2,3.3,2.5,4.4c1.1,1,2.5,1.6,3.8,2.2c0.8,0.4,2.3,0.9,2.9,1.6C582.2,1073,578.1,1073.9,576.3,1073.4z M596.1,1070.1
		c-0.4,0.2-0.8,0.1-1.2,0c-4.6-1.3-9.1-3.1-12.9-5.9c-3.9-2.8-7.1-6.5-8.8-10.9c-0.5-1.3-0.7-3.1,0.4-3.9c0.5-0.3,1.1-0.4,1.8-0.4
		c2.9,0.1,5.5,1.9,7.5,4s3.6,4.5,5.5,6.7c2.5,2.8,5.7,5.1,7.8,8.2C596.5,1068.6,596.8,1069.7,596.1,1070.1z M603.9,1065.1
		c-3.3-0.3-6.4-1.9-8.9-4s-4.7-4.6-6.8-7.2c-1.5-1.8-3-3.9-2.9-6.2c0-0.4,0.1-0.8,0.2-1.1c0.6-1.4,2.4-1.9,3.9-1.4s2.4,1.8,3.2,3.1
		c0.8,1.3,1.3,2.7,2.2,3.9c1.2,1.5,2.9,2.6,4.4,3.8c2.5,1.9,4.7,4.1,6.7,6.6c0.3,0.3,0.5,0.7,0.6,1.2
		C606.4,1064.8,604.9,1065.2,603.9,1065.1z M618.5,1061.6c-0.3,0.2-0.7,0.1-1,0.1c-6-0.7-11-4.7-15.1-9.1c-1-1.1-2-2.2-2.6-3.6
		c-0.6-1.2-0.9-2.6-0.8-3.9c0-1.8,1-3.8,2.7-4.1c1.3-0.2,2.6,0.7,3.3,1.8c0.7,1.1,1.1,2.4,1.6,3.6c2.1,5.2,7.1,8.6,11.3,12.2
		c0.4,0.4,0.9,0.8,1.1,1.3C619.1,1060.6,619,1061.3,618.5,1061.6z M634.4,1055c-0.5,0.5-1.3,0.7-2,0.7c-4.7,0.2-9.2-2-13.1-4.6
		c-2.5-1.7-4.9-3.6-6.3-6.2c-0.6-1-0.9-2.2-1.1-3.3c-0.3-1.7,0-3.8,1.4-4.7c1.6-1.1,3.9-0.3,5.2,1.1c1.4,1.4,2.1,3.3,3,4.9
		c2.1,3.6,5.5,6.5,9.4,7.9c1,0.4,2.1,0.7,2.9,1.4C634.8,1052.8,635.1,1054.2,634.4,1055z M643.7,1049c-4.4,0.9-8.9-1.1-12.6-3.6
		c-3.3-2.2-6.4-5.1-7.8-8.8c-0.5-1.4-0.7-3,0-4.3c0.8-1.4,2.7-2,4.3-1.6c1.6,0.4,2.9,1.5,4,2.7c1.1,1.2,2,2.7,3.1,3.9
		c1.7,1.9,3.8,3.4,6.2,4.2c1,0.4,2.1,0.6,3.1,1.2c0.9,0.5,1.6,1.2,2.2,2c0.3,0.4,0.5,0.9,0.6,1.4
		C646.9,1047.7,645.2,1048.7,643.7,1049z M659.5,1038.5c-0.5,1.4-2.1,1.9-3.6,2.1c-6.8,0.7-13.6-2.7-18.4-7.7
		c-1.1-1.2-2.1-2.4-2.5-4c-0.4-1.5,0-3.4,1.4-4.3c1.5-1,3.6-0.4,5.1,0.7c1.4,1.1,2.4,2.7,3.7,4c2.5,2.6,6,3.9,9.5,4.7
		c1.2,0.3,2.4,0.6,3.4,1.3S659.9,1037.4,659.5,1038.5z M672,1029.7c-0.5,2.1-3.1,2.4-4.9,2.4c-8.4-0.2-16.8-3.3-22.5-9.4
		c-0.4-0.4-0.7-0.8-0.9-1.3c-0.4-1.2,0.2-2.6,1.3-3.3c1.1-0.7,2.4-0.8,3.7-0.6c7.3,1.1,12.4,7.4,19.4,9.3c1.2,0.3,3.1,0.5,3.7,1.5
		C672.1,1028.6,672.2,1029.1,672,1029.7z M683.1,1017.4c-0.5,1.1-1.3,1.9-2.4,2.4c-0.4,0.2-0.9,0.3-1.3,0.4
		c-5.5,1.5-11.4,1-16.7-0.9c-2.1-0.8-4.2-1.8-6.2-2.9c-1.2-0.7-2.5-1.5-3.2-2.7c-0.7-1.2-0.7-3,0.4-3.9c0.5-0.4,1.2-0.6,1.9-0.8
		c1.1-0.3,2.2-0.6,3.4-0.5c1.7,0.1,3.3,1.1,4.8,1.9c3.4,1.7,7.3,2.5,11.2,2.3c1.9-0.1,3.9-0.4,5.6,0.2
		C682.4,1013.6,683.9,1015.6,683.1,1017.4z M691.9,1005.1c-3.3,2.4-7.7,2.5-11.8,2.4c-2.3,0-4.6,0-7,0c-1.8,0-3.7,0-5.4-0.8
		c-2.3-1.1-3.8-3.8-3.5-6.3c0.1-0.6,0.2-1.2,0.6-1.6c0.7-0.9,2.1-1,3.3-1c3.4,0.2,6.8,1.1,10.1,1.8c3.9,0.8,7.8,1.2,11.8,1.4
		c1.2,0,2.8,0.3,3.2,1.4C693.7,1003.4,692.8,1004.4,691.9,1005.1z M705.4,989.8c-0.8,1.9-3.8,2.7-5.6,3.2c-3,0.8-6.1,1.7-9.3,1.8
		c-1,0-2.1,0-3.1,0c-3.5-0.1-6.9,0-10.3-1.2c-1.4-0.5-2.8-1.3-3.4-2.7c-0.6-1.5,0-3.4,1.2-4.5c1.2-1.1,2.9-1.6,4.6-1.7
		c1.7-0.1,3.3,0.1,5,0.3c5.5,0.4,10.9-0.5,16.4-0.9c1.5-0.1,3.2,0,4,1.2c0.4,0.5,0.5,1.2,0.5,1.8
		C705.6,987.9,705.7,988.9,705.4,989.8z M712.5,977.2c-0.8,0.6-1.8,0.8-2.8,1c-2.8,0.6-5.6,1.3-8.5,1.4c-1.6,0.1-3.3,0-4.9,0
		c-2.1-0.1-4.2-0.2-6.3-0.2c-2.4-0.1-5-0.3-6.9-1.8c-0.6-0.5-1.2-1.2-1.4-2c-0.4-1.5,0.5-3,1.8-3.9c1.3-0.8,2.9-1,4.4-0.8
		c1.5,0.2,3,0.6,4.4,0.9c5.4,1.2,11,0.8,16.5,0.5c1.1-0.1,2.1-0.1,3.2,0.2s1.9,1.2,2,2.2C714,975.7,713.3,976.6,712.5,977.2z
		 M720.3,960.5c-0.4,2.1-2.2,3.6-4.3,4.8c-1.9,1.1-4.1,1.8-5.8,2.2c-3.9,1.1-8,1.1-12,0.8c-2.7-0.2-7.2-1.3-8.8-3.6
		c-0.9-1.3-0.7-3.5,0.4-4.6c1.1-1.2,3.3-1.1,4.8-0.8c1.7,0.3,3.4,1,5.2,0.9c0.5,0,1.1-0.2,1.6-0.2c4.7-0.4,9.4-0.8,13.9-2
		c0.8-0.2,1.6-0.5,2.4-0.5c0.8,0,1.7,0.3,2.2,1C720.4,959.1,720.4,959.9,720.3,960.5z M723.1,948.9c-6.5,5.2-15.3,7.5-23.5,6.1
		c-1.9-0.3-4-1.1-4.6-3c-0.4-1.2,0.2-2.6,1.1-3.5c0.9-0.9,2.1-1.4,3.4-1.7c1.4-0.4,2.8-0.6,4.2-0.6c1.7,0,3.4,0.2,5.2,0.1
		c5.5-0.2,10.5-3.3,15.1-6.4c0.7-0.4,1.3-0.9,2.1-1s1.7,0.2,2,0.9c0.1,0.3,0.2,0.7,0.1,1C728,944.1,725.7,946.9,723.1,948.9z
		 M724.5,934.8c-4.2,3.2-8.5,6.4-13.7,7.8c-2.9,0.7-7.4,1-9.2-1.9c-0.9-1.4-0.4-3.2,0.6-4.4c1-1.2,2.5-1.9,4-2.5
		c4.1-1.5,8.5-2.3,12.5-4c2.9-1.3,5.6-3.2,7.9-5.4c0.9-0.9,1.9-1.9,3.2-1.8c1.1,0.1,1.9,1.3,2,2.4
		C732.1,929.1,727.4,932.5,724.5,934.8z M705.6,922.8c0.4-0.2,0.8-0.2,1.3-0.3c4.4-0.4,8.9-0.3,13.3,0.1c-2.2,3.5-6.6,5-10.8,5
		c-0.9,0-1.9-0.1-2.8-0.4c-0.9-0.4-1.7-1-1.9-2C704.4,924.3,704.8,923.2,705.6,922.8z M848.9,930.7c-1.2,3.2-6.3,7-11.4,8.1
		c-10.2,2.2-20.6,2.5-31,2.7c-12.3,0.3-24.6,0.5-36.9,0.8c-6.2,0.1-12.4,0.3-18.7,0.4c-3,0.1-6.1,0.1-9.1,0.2c-0.6,0-7.3-0.4-7.6,0
		c1.4-2.9,2.4-5.9,3.1-9c29.2,0.8,58.5,1.6,87.5-1.1c2.5-0.2,5.6-0.9,6.3-3.4c0.3-1,0.1-2-0.4-2.9c-1.2-2.4-4-3.5-6.6-4.2
		c-4.3-1.1-21.3-1.5-25.3-1.6c-3.8-0.1-7.7-0.2-11.5-0.3c-2.2-0.1-4.4-0.1-6.6-0.2c-27.4-0.7-54.8-0.2-82.2,0.5
		c-1.7,0-3.5,0.1-5.2,0.6c-2.6,0.8-6.2,3.5-5.9,6.6c0.2,1.7,1.6,3,3.2,3.7c1.6,0.6,3.3,0.7,5,0.7c1.8,0,3.6,0.1,5.4,0.1
		c-0.8,2.4-3,7.1-3,7.1s-19.3-0.8-29-1.1c-10-0.3-20-0.6-29.9-0.8c-27.1-0.6-79.4-1.3-79.4-1.3s-4.8-0.2-7-6
		c-1.2-3.1-2.8-10.8,1.5-15.3c2.7-2.8,8-2,10.7-2c3.1,0,6.2-0.2,9.4-0.1c12.8,0.1,25.7,0,38.5-0.2c27.3-0.4,54.7-0.7,81.9-2
		c27.6-1.3,55.3-0.5,82.9-0.2c3.9,0,7.8,0.1,11.6,0.1c3.6,0,20.9,0,27.4,0.5c7.6,0.5,17.3,1.6,24.8,3.3c3.9,0.9,7.7,3.7,8.2,7.7
		C850.2,925.6,849.5,929.3,848.9,930.7z M738.4,923.7c-0.5,0,16.6,0,21.6,0.1c8.2,0.2,14.7,0.2,22.1,0.4c6.8,0.2,13.8,0.2,20.6,0.2
		c3.2,0,10.8,0.1,10.7,2.8c0,2.6-4.1,2.5-5.4,2.7c-2.6,0.5-10.5,0.9-11.6,0.9c-18,0.6-27.2,0.2-44.9,0.1c-4.6,0-8.9-0.5-13.8-0.8
		C738.4,927.8,738.4,923.7,738.4,923.7z M699.6,925.1c0.2,0,0.7,0.3,0.7,0.3s0,0.5,0,0.7c-0.1,1.2-0.4,2.7-0.5,3.9
		c-1.7,0.1-2.7,0.1-4.1,0c-1.1,0-2.2-0.2-3-0.8s-1.4-1.9-0.8-2.8C692.8,924.9,697,924.6,699.6,925.1z"/>
	<path d="M368.3,904.8c5.6-1.7,10.1-0.7,12.5,0.4c4,1.9,8.6,6.9,8.6,15c0,13.6-10.5,18.2-16.7,17.3c6.7-3.6,10.2-6.3,9.9-17.2
		C382.4,911.6,371.1,906.5,368.3,904.8z"/>
	<path d="M580,15c-4.3-11.5-19.1-15-23.7-15c-7.2,0-13.5,0-20,4.5c-3.6,2.5-6.1,6.8-5.8,7.3c-1.8-3-6.8-2.9-9.3-0.9
		c-1.2-1.5-3.1-2.4-5-2.4c-1.9,0-3.8,0.9-5,2.4c-2.1-2.1-3.8-4.4-7-4.3c-2.3,0-4.5,1.4-5.5,3.4c-1.2-1.2-2.5-2.4-4-3.2
		c-3.3-1.5-7.6-0.3-9.5,2.8c-2.3-1.7-4-3.6-7.2-3.3c-2.3,0.2-4.4,1.5-5.6,3.5c-1.9-1.9-4.5-3-7.2-2.9s-5.3,1.3-7,3.3
		c-2.1-1.9-4.2-3.4-7.1-3.4c-2.7,0-5.3,1.9-6.3,4.4c-4-2.6-9.9-1.5-12.8,2.3c-2.4-1.6-5.9-1.9-8.7-1.4c-2.9,0.5-5.8,2.2-7.2,4.8
		c-4.3-2.1-9.7-1.7-13.7,1c-0.8,0.6-1.7,1.3-1.9,2.3c-2.6-0.8-5-1.2-7.7-0.1c-2.5,1-4.4,3.6-3.9,6.2c-1.9-0.2-3.9-0.4-5.8-0.2
		s-3.9,1-5.2,2.4c-1.3,1.4-1.9,3.6-1.1,5.4c-3-2.6-7.6-3.5-10.9-0.7c-1.2-1.7-2.5-3.2-4.4-4.1c-1.8-0.9-4.1-1-5.8,0.2
		c-0.4,0.3-0.9,0.7-1.4,0.7c-1.2,0-2.1-1.4-3.4-1.6c-1.7-0.2-3.4,0-4.9,0.9c-2.5,1.5-4,4.4-4.6,7.3c-1.1,5.2,0.5,10.8,4,14.7
		c-1.8,1.4-3.7,2.9-5,4.8c-1.3,1.9-2.2,4.3-1.7,6.5c-6.6,3.5-10.6,10.8-10.6,18.2c0,0.6,0,1.3-0.1,1.9c-0.4,1.8-2.8,3-3.9,4.5
		c-1.3,1.8-2.2,3.8-3,5.8c-0.6,1.6-1.3,3.1-1.5,4.8c-0.2,1.7,0,3.5,1.1,4.8c-1.8,2.5-3.4,5.1-3.8,8.2c1.7,0,6.4-0.1,6.4-0.1
		s7.9-8.4,12.6-11.2c3-1.8,6.3-3.4,9.9-3.5c1.2,0,2.4,0.1,3.4,0.7c1,0.5,1.9,1.6,2,2.7c0.2,2.1-1.8,3.7-3.6,4.9
		c-2.9,1.9-7.5,5.3-8.6,6.5c5.7,0,10.9,0.1,17.2,0.1c0-0.3,0.1-0.3,0.2-0.6c0.3-1.5,0.1-3.2-0.6-4.6c-0.1-0.3-0.3-0.5-0.3-0.8
		c0-0.3,0.2-0.6,0.4-0.8c2.8-3.4,3.1-8.3,1.8-12.5c-0.1-0.3-0.2-0.5-0.1-0.8c0.1-0.2,0.3-0.3,0.4-0.4c2-1.3,4.3-2.3,5.8-4.1
		c1.6-2,2.2-4.8,1.4-7.2c1.6-0.4,3.3-0.9,4.6-1.9c1-0.8,1.8-1.9,1.9-3.2c0.1-0.7-0.1-2.9-0.7-3.3c2.2,1.2,4.3,1.9,6.9,1.1
		c1.4,1.4,3,2.7,4.8,3.5s4,0.9,5.8,0c0.8,2.3,4.3,3.6,6.5,3.3c2.4-0.3,4.5-2,5.9-4c1.4-2,2.1-4.4,2.6-6.8c0.4-2,0.8-4.1,0.8-6.2
		c0-2.3-0.4-4.6-0.8-6.9c0-0.3-0.1-0.5,0-0.8c0.1-0.3,0.4-0.6,0.7-0.8c5.4-3.5,12-5.1,18.2-6.6c6.6-1.6,13.4-2.7,20.1-3.4
		c13.8-1.5,27.6-1.4,41.5-1.3c15.2,0.1,30.3,0.7,45.5,0.7c0.7,0,2.2,0.2,2.2,0.2s5.4,10.4,21.4,9.9c12.5-0.4,19.1-4.3,23.3-10.7
		C581,34.8,583.4,24.1,580,15z M347.7,32.1c0.6-0.6,1.7-0.6,2.5-0.1c0.8,0.5,1.3,1.3,1.7,2c2.2,3.7,3.8,7.8,4.7,12.1
		c0.4,1.9,0.7,3.9,0.1,5.7c-0.2,0.5-0.6,1.1-1.1,1.1c-0.4,0-0.7-0.3-1-0.6c-4.8-4.7-7.5-11.4-7.4-18.1
		C347.1,33.5,347.1,32.6,347.7,32.1z M344,58.6c0-0.4,0.1-0.8,0.3-1.2c0.3-0.5,0.9-0.7,1.4-0.9c4.6-1.5,10.1,0.2,13,4.2
		c-3.6,0.5-7.2,0.8-10.8,0.9c-0.7,0-1.4,0.1-2.1-0.1c-0.7-0.2-1.3-0.6-1.6-1.2C343.9,59.7,343.9,59.2,344,58.6z M358.2,85.4
		c-1.7,0.6-5.2,0.7-6.7,1.1c-6.9,1.9-8.3,2.6-14.3,5c-1.3,0.5-9.8,5.5-12.1,6.6c-0.4,0.2-0.5-2.4,0.2-5.3c1.3-5.7,4.2-7.8,9.4-10.6
		c5.2-2.8,11-4.2,16.9-4.7c1.7-0.2,3.5-0.3,5.2,0.3c1.7,0.6,3.1,2,3.3,3.7C360.2,82.9,359.6,84.9,358.2,85.4z M364.4,71.1
		c-0.3,0.8-1,1.4-1.8,1.9c-2.5,1.5-5.6,1.5-8.6,1.6c-4.6,0.2-9.1,0.7-13.6,1.7c-1.8,0.4-4,0.7-5.2-0.7c-1.2-1.5-0.3-3.8,1.1-5.1
		c2.4-2.2,5.8-2.9,9-3.6c2.4-0.5,4.9-0.9,7.3-1.4c2.2-0.4,4.5-0.8,6.7-0.5c2.2,0.4,4.4,1.8,5.1,3.9
		C364.6,69.7,364.7,70.4,364.4,71.1z M366.4,59.4c-1.1,0.3-2.1-0.9-2.6-2c-1.2-2.6-2.1-5.3-3-8c-1.1-3.3-2.2-6.7-3.3-10
		c-0.5-1.5-1-3.1-1.4-4.6c-0.1-0.4-0.2-0.9,0-1.3c0.2-0.4,0.6-0.6,1-0.7c1.5-0.4,3.2,0.3,4.4,1.4c1.1,1.2,1.8,2.7,2.3,4.2
		c2,5.6,3,11.6,3.9,17.5C367.8,57.2,367.7,59.1,366.4,59.4z M379.1,61.2c-0.1,0.5-0.2,1.1-0.5,1.4c-0.6,0.7-1.7,0.6-2.5,0
		c-0.7-0.6-1.1-1.4-1.4-2.3c-3.2-7.9-5.2-16.3-5.8-24.9c0-0.2,0-0.4,0.1-0.6c0.2-0.3,0.5-0.3,0.8-0.4c1.9-0.1,3.7,1,4.9,2.4
		c1.2,1.4,2,3.2,2.5,5C379.4,48.1,380,54.7,379.1,61.2z M389.5,69.4c-1.1,0.7-2.6,0.1-3.5-0.9s-1.2-2.3-1.5-3.5
		c-0.6-2.3-1.2-4.7-1.8-7c-0.6-2.4-1.2-4.7-1.5-7.1c-0.4-3.1-0.4-6.3,0-9.4c2.3-0.2,4.5,1.2,5.9,3c1.4,1.8,2.1,4.1,2.6,6.3
		C391,56.9,390.9,63.3,389.5,69.4z M399.3,68.3c-0.1,0.4-0.3,0.9-0.6,1.2c-0.8,0.8-2.2,0.3-2.9-0.6c-0.6-0.9-0.7-2.1-0.8-3.2
		c-0.4-4.6-1.6-9-2.8-13.5c-0.1-0.6-0.3-1.2-0.2-1.7c0.1-0.6,0.5-1.1,1.1-1.2c0.4-0.1,0.8,0.1,1.1,0.3c1.2,0.7,2.1,1.8,2.8,3
		C400,57.2,400.9,63.1,399.3,68.3z M402.9,48.5c-0.5,0.8-1.7,0.6-2.6,0.1c-7.7-3.8-14.5-9.8-17.6-17.8c3.1-1.2,6.8-0.6,9.7,1.1
		c2.9,1.7,5.1,4.3,7,7.1c1.7,2.6,3.2,5.4,3.6,8.4C403.1,47.7,403.1,48.1,402.9,48.5z M414.7,43.1c-0.5,0.7-1.5,0.5-2.3,0.3
		c-2-0.5-4.1-1.1-5.7-2.4c-0.7-0.6-1.3-1.3-1.9-2.1c-2.3-2.9-4.5-5.8-6.8-8.6c-1.1-1.3-2.2-3.1-1.5-4.7c0.7-1.7,3.1-2,4.7-1.2
		c1.6,0.8,2.7,2.4,3.7,3.9c2,2.7,4.3,5.2,6.6,7.6c1.7,1.8,3.5,3.8,3.4,6.2C415,42.5,414.9,42.9,414.7,43.1z M429,38.4
		c-0.3,0.3-0.9,0.2-1.3,0c-6.1-2.8-11.7-6.5-16.7-11c-1.5-1.4-3.1-3.4-2.3-5.3c0.4-1.1,1.6-1.8,2.7-1.9c1.2-0.2,2.3,0.1,3.4,0.5
		c5.2,1.9,9.2,6.1,12.1,10.8c1.2,1.9,2.2,4,2.3,6.2C429.1,37.9,429.1,38.2,429,38.4z M442.7,38c-0.5,0.6-1.5,0.3-2.1-0.1
		c-1.8-1.1-3.2-2.6-4.7-4.1c-2.6-2.6-5.1-5.2-7.7-7.8c-1.3-1.3-2.6-2.6-3.4-4.3c-0.8-1.6-1-3.7-0.1-5.2c4.8,0.9,9.3,3.4,12.5,7
		c3.3,3.6,5.3,8.4,5.6,13.2C443,37.2,443,37.7,442.7,38z M454,34.9c0,0.5-0.1,1-0.5,1.4c-0.7,0.7-1.8,0-2.5-0.6
		c-4.4-4.2-6.9-10-11-14.4c-1.7-1.8-3.8-3.7-3.8-6.2c1.9-0.6,3.9-0.4,5.7,0.4s3.4,2,4.8,3.4C451.1,23,454.3,28.8,454,34.9z M467,36
		c-1.1,0.7-2.5-0.4-3.3-1.4c-4.7-5.5-9.3-11-14-16.4c-1.2-1.4-2.5-3.4-1.7-5.1c2.2-0.8,4.8-0.3,6.9,0.8s3.8,2.9,5.4,4.6
		c3.9,4.3,7.4,9.5,7.5,15.2C467.8,34.6,467.7,35.6,467,36z M481.9,32.9c-0.2,0.7-0.7,1.4-1.4,1.5c-0.4,0-0.7-0.1-1-0.3
		c-1.5-0.9-2.3-2.6-3.2-4.1c-3.4-5.7-9.5-9.3-13.8-14.4c-0.5-0.6-1-1.3-0.8-2.1c0.2-0.7,0.9-1.1,1.5-1.3c2.2-0.8,4.8-0.3,6.8,0.9
		c2.1,1.1,3.8,2.9,5.3,4.7c2.5,3,4.7,6.3,6.1,9.9C482,29.4,482.4,31.2,481.9,32.9z M494.5,32.9c-0.1,0.4-0.2,0.8-0.5,1.1
		c-0.5,0.5-1.2,0.5-1.8,0.3s-1.1-0.7-1.5-1.2c-2.1-2.3-3.9-4.9-5.8-7.5c-2.7-3.8-5.4-7.6-8.1-11.4c-0.5-0.7-1-1.5-0.9-2.3
		c3.1-0.8,6.4,0.1,9.1,2s4.6,4.5,6.3,7.2C493.4,24.6,495.3,28.8,494.5,32.9z M507.9,36.3c-1.4,0.3-2.7-0.4-3.7-1.4
		c-1-1-1.6-2.2-2.2-3.4c-2.9-5.3-6.5-10.2-10.3-14.8c-1.2-1.5-2.5-3.2-2.2-5c3.4-0.9,6.9,1.2,9.5,3.7
		C504.7,20.6,508.6,28.4,507.9,36.3z M519.1,34.5c-0.1,0.5-0.2,1.1-0.6,1.4c-0.5,0.4-1.2,0.3-1.7,0c-0.5-0.3-0.9-0.9-1.1-1.4
		c-1.3-2.5-1.9-5.3-3.2-7.8c-1.3-2.5-3.3-4.5-4.9-6.7c-1.6-2.2-3-4.9-2.8-7.7c2.2-0.1,4.4,0.8,6.1,2.2s3.1,3.2,4.3,5
		c1,1.5,2,3.1,2.7,4.7C519.1,27.4,519.6,31,519.1,34.5z M527.9,33.7c-0.3,0.6-0.9,1.1-1.6,1.1c-0.4,0-0.7-0.2-1-0.4
		c-1.4-0.9-2-2.7-2.4-4.3c-1.2-4.3-2.6-8.8-5.6-12.2c-1.2-1.4-2.9-2.9-2.9-4.8c2.3-0.5,4.7,0.5,6.4,2.1c1.7,1.6,2.9,3.7,3.9,5.8
		c1.7,3.4,3.2,6.9,3.4,10.7C528.3,32.4,528.2,33.1,527.9,33.7z M536.6,33.9c-0.1,0.4-0.2,0.9-0.5,1.2c-0.5,0.6-1.5,0.4-2.1-0.2
		c-0.6-0.5-0.8-1.3-1.1-2.1c-1.8-5.2-4.3-10.2-7.5-14.8c-1-1.4-2-2.8-2.4-4.5c1.8-0.3,3.8,0.3,5.3,1.3s2.7,2.5,3.8,4.1
		C535.2,23.4,537.3,28.7,536.6,33.9z M546.4,34.4c-0.2,0.9-0.9,1.7-1.9,1.9c-0.9,0.1-1.8-0.5-2.4-1.2c-3.6-3.9-3.5-10.1-6.5-14.5
		c-1.2-1.8-2.9-3.6-2.5-5.6c1.5-0.2,3.1,0.2,4.3,1c0.8,0.6,1.5,1.3,2.2,2.1c3.3,3.9,5.6,8.7,6.7,13.7
		C546.5,32.5,546.7,33.5,546.4,34.4z M555.8,34.5c0,0.3-0.1,0.6-0.2,0.8c-0.5,0.8-1.7,0.8-2.4,0.2c-0.7-0.6-1.1-1.5-1.4-2.3
		c-1.6-4.1-3.7-8-6.2-11.7c-1.2-1.8-2.7-3.9-2.1-6c0.1-0.3,0.2-0.6,0.5-0.8c0.3-0.2,0.6-0.2,0.9-0.1c2,0.2,3.9,1.4,5.3,2.9
		C554.6,21.8,556.8,28.4,555.8,34.5z"/>
</g>
</svg>
